%FSLAX25Y25*%
%MOIN*%
G70*
G01*
G75*
G04 Layer_Physical_Order=2*
G04 Layer_Color=16711680*
%ADD10R,0.06500X0.01400*%
%ADD11R,0.01400X0.06500*%
%ADD12C,0.02000*%
%ADD13C,0.01400*%
%ADD14C,0.01000*%
%ADD15R,0.03000X0.03000*%
G04:AMPARAMS|DCode=16|XSize=60mil|YSize=100mil|CornerRadius=0mil|HoleSize=0mil|Usage=FLASHONLY|Rotation=0.000|XOffset=0mil|YOffset=0mil|HoleType=Round|Shape=Octagon|*
%AMOCTAGOND16*
4,1,8,-0.01500,0.05000,0.01500,0.05000,0.03000,0.03500,0.03000,-0.03500,0.01500,-0.05000,-0.01500,-0.05000,-0.03000,-0.03500,-0.03000,0.03500,-0.01500,0.05000,0.0*
%
%ADD16OCTAGOND16*%

%ADD17R,0.06500X0.06500*%
G04:AMPARAMS|DCode=18|XSize=55mil|YSize=120mil|CornerRadius=0mil|HoleSize=0mil|Usage=FLASHONLY|Rotation=0.000|XOffset=0mil|YOffset=0mil|HoleType=Round|Shape=Octagon|*
%AMOCTAGOND18*
4,1,8,-0.01375,0.06000,0.01375,0.06000,0.02750,0.04625,0.02750,-0.04625,0.01375,-0.06000,-0.01375,-0.06000,-0.02750,-0.04625,-0.02750,0.04625,-0.01375,0.06000,0.0*
%
%ADD18OCTAGOND18*%

%ADD19R,0.08000X0.06000*%
%ADD20C,0.14961*%
G36*
X662736Y555037D02*
X662980Y555023D01*
X663202Y555000D01*
X663409Y554963D01*
X663601Y554926D01*
X663772Y554882D01*
X663927Y554838D01*
X664060Y554793D01*
X664179Y554749D01*
X664282Y554697D01*
X664371Y554660D01*
X664438Y554623D01*
X664497Y554586D01*
X664534Y554564D01*
X664556Y554549D01*
X664563Y554542D01*
X664652Y554460D01*
X664734Y554371D01*
X664808Y554275D01*
X664867Y554179D01*
X664919Y554083D01*
X664963Y553987D01*
X664993Y553890D01*
X665022Y553802D01*
X665044Y553713D01*
X665059Y553631D01*
X665074Y553557D01*
X665081Y553498D01*
X665089Y553446D01*
Y553402D01*
Y553380D01*
Y553372D01*
X665074Y553173D01*
X665044Y552988D01*
X664993Y552832D01*
X664941Y552699D01*
X664889Y552588D01*
X664859Y552551D01*
X664837Y552514D01*
X664822Y552484D01*
X664808Y552462D01*
X664793Y552455D01*
Y552447D01*
X664667Y552314D01*
X664534Y552203D01*
X664386Y552107D01*
X664253Y552033D01*
X664127Y551974D01*
X664075Y551944D01*
X664023Y551929D01*
X663986Y551915D01*
X663957Y551900D01*
X663942Y551892D01*
X663934D01*
X663823Y551855D01*
X663712Y551826D01*
X663476Y551781D01*
X663231Y551744D01*
X662995Y551722D01*
X662891Y551715D01*
X662795Y551707D01*
X662706D01*
X662625Y551700D01*
X662336D01*
X662203Y551707D01*
X662084D01*
X661966Y551715D01*
X661862Y551730D01*
X661759Y551737D01*
X661670Y551744D01*
X661589Y551759D01*
X661515Y551767D01*
X661448Y551781D01*
X661396Y551789D01*
X661352Y551796D01*
X661315Y551804D01*
X661293Y551811D01*
X661278Y551818D01*
X661270D01*
X661108Y551863D01*
X660960Y551915D01*
X660834Y551974D01*
X660723Y552018D01*
X660627Y552070D01*
X660560Y552100D01*
X660523Y552129D01*
X660508Y552137D01*
X660397Y552218D01*
X660301Y552299D01*
X660220Y552388D01*
X660146Y552470D01*
X660094Y552544D01*
X660057Y552603D01*
X660035Y552640D01*
X660027Y552647D01*
Y552655D01*
X659968Y552773D01*
X659931Y552899D01*
X659901Y553017D01*
X659879Y553128D01*
X659864Y553224D01*
X659857Y553306D01*
Y553335D01*
Y553358D01*
Y553365D01*
Y553372D01*
X659872Y553572D01*
X659901Y553757D01*
X659953Y553913D01*
X660005Y554046D01*
X660064Y554157D01*
X660086Y554201D01*
X660116Y554238D01*
X660131Y554268D01*
X660146Y554290D01*
X660160Y554297D01*
Y554305D01*
X660279Y554438D01*
X660419Y554549D01*
X660560Y554645D01*
X660693Y554719D01*
X660819Y554778D01*
X660871Y554808D01*
X660923Y554823D01*
X660960Y554838D01*
X660989Y554852D01*
X661004Y554860D01*
X661011D01*
X661122Y554889D01*
X661233Y554919D01*
X661478Y554963D01*
X661722Y555000D01*
X661951Y555023D01*
X662062Y555030D01*
X662158Y555037D01*
X662247D01*
X662329Y555045D01*
X662477D01*
X662736Y555037D01*
D02*
G37*
G36*
X665000Y555718D02*
X664393D01*
Y558242D01*
X664267Y558153D01*
X664216Y558108D01*
X664164Y558071D01*
X664119Y558034D01*
X664090Y558005D01*
X664068Y557983D01*
X664060Y557975D01*
X664023Y557938D01*
X663986Y557894D01*
X663890Y557790D01*
X663779Y557672D01*
X663668Y557546D01*
X663572Y557428D01*
X663527Y557376D01*
X663483Y557331D01*
X663453Y557294D01*
X663431Y557265D01*
X663416Y557250D01*
X663409Y557243D01*
X663305Y557124D01*
X663209Y557006D01*
X663113Y556902D01*
X663032Y556806D01*
X662950Y556717D01*
X662876Y556643D01*
X662810Y556569D01*
X662750Y556510D01*
X662691Y556451D01*
X662647Y556406D01*
X662610Y556369D01*
X662573Y556332D01*
X662528Y556295D01*
X662514Y556281D01*
X662388Y556177D01*
X662277Y556088D01*
X662166Y556014D01*
X662077Y555955D01*
X661996Y555911D01*
X661936Y555881D01*
X661899Y555866D01*
X661885Y555859D01*
X661774Y555814D01*
X661663Y555785D01*
X661559Y555755D01*
X661470Y555740D01*
X661389Y555733D01*
X661330Y555726D01*
X661278D01*
X661167Y555733D01*
X661063Y555748D01*
X660960Y555763D01*
X660871Y555792D01*
X660693Y555866D01*
X660553Y555940D01*
X660486Y555985D01*
X660434Y556022D01*
X660382Y556059D01*
X660345Y556096D01*
X660316Y556125D01*
X660286Y556140D01*
X660279Y556155D01*
X660271Y556162D01*
X660197Y556244D01*
X660131Y556332D01*
X660079Y556429D01*
X660035Y556525D01*
X659961Y556717D01*
X659909Y556910D01*
X659894Y556991D01*
X659879Y557072D01*
X659872Y557146D01*
X659864Y557206D01*
X659857Y557257D01*
Y557302D01*
Y557324D01*
Y557331D01*
X659864Y557465D01*
X659872Y557590D01*
X659894Y557709D01*
X659916Y557820D01*
X659946Y557923D01*
X659975Y558020D01*
X660012Y558108D01*
X660049Y558190D01*
X660086Y558264D01*
X660123Y558323D01*
X660153Y558375D01*
X660183Y558419D01*
X660205Y558456D01*
X660227Y558478D01*
X660234Y558493D01*
X660242Y558501D01*
X660316Y558575D01*
X660397Y558641D01*
X660486Y558708D01*
X660575Y558760D01*
X660752Y558848D01*
X660930Y558908D01*
X661011Y558930D01*
X661093Y558952D01*
X661159Y558967D01*
X661219Y558982D01*
X661270Y558989D01*
X661307D01*
X661330Y558996D01*
X661337D01*
X661404Y558353D01*
X661233Y558338D01*
X661085Y558308D01*
X660952Y558264D01*
X660849Y558212D01*
X660760Y558168D01*
X660701Y558123D01*
X660664Y558094D01*
X660649Y558079D01*
X660560Y557968D01*
X660493Y557849D01*
X660442Y557724D01*
X660412Y557613D01*
X660390Y557509D01*
X660382Y557420D01*
X660375Y557391D01*
Y557368D01*
Y557354D01*
Y557346D01*
X660382Y557191D01*
X660412Y557050D01*
X660456Y556932D01*
X660501Y556828D01*
X660553Y556747D01*
X660590Y556695D01*
X660619Y556658D01*
X660634Y556643D01*
X660738Y556554D01*
X660841Y556488D01*
X660945Y556436D01*
X661048Y556406D01*
X661130Y556384D01*
X661204Y556377D01*
X661248Y556369D01*
X661263D01*
X661396Y556384D01*
X661537Y556414D01*
X661663Y556466D01*
X661781Y556517D01*
X661877Y556577D01*
X661959Y556628D01*
X661988Y556643D01*
X662010Y556658D01*
X662018Y556673D01*
X662025D01*
X662107Y556732D01*
X662188Y556806D01*
X662277Y556887D01*
X662366Y556976D01*
X662543Y557161D01*
X662721Y557346D01*
X662802Y557442D01*
X662876Y557524D01*
X662943Y557605D01*
X663002Y557672D01*
X663046Y557724D01*
X663083Y557768D01*
X663106Y557798D01*
X663113Y557805D01*
X663268Y557990D01*
X663416Y558160D01*
X663550Y558301D01*
X663661Y558412D01*
X663757Y558508D01*
X663823Y558575D01*
X663868Y558612D01*
X663875Y558626D01*
X663883D01*
X664008Y558730D01*
X664127Y558811D01*
X664245Y558885D01*
X664349Y558945D01*
X664438Y558989D01*
X664504Y559019D01*
X664549Y559033D01*
X664556Y559041D01*
X664563D01*
X664645Y559070D01*
X664719Y559085D01*
X664793Y559100D01*
X664859Y559107D01*
X664919Y559115D01*
X665000D01*
Y555718D01*
D02*
G37*
G36*
X665089Y562800D02*
X659790Y561313D01*
Y561816D01*
X665089Y563303D01*
Y562800D01*
D02*
G37*
G36*
X661707Y550472D02*
X661655Y550361D01*
X661603Y550250D01*
X661552Y550146D01*
X661507Y550057D01*
X661470Y549983D01*
X661441Y549939D01*
X661433Y549931D01*
Y549924D01*
X661352Y549791D01*
X661270Y549672D01*
X661196Y549569D01*
X661130Y549487D01*
X661078Y549413D01*
X661034Y549369D01*
X661004Y549332D01*
X660997Y549325D01*
X665000D01*
Y548696D01*
X659857D01*
Y549103D01*
X659983Y549177D01*
X660101Y549258D01*
X660220Y549354D01*
X660323Y549443D01*
X660412Y549532D01*
X660486Y549598D01*
X660508Y549628D01*
X660530Y549650D01*
X660538Y549658D01*
X660545Y549665D01*
X660671Y549820D01*
X660789Y549976D01*
X660893Y550124D01*
X660974Y550272D01*
X661048Y550398D01*
X661078Y550449D01*
X661100Y550494D01*
X661122Y550531D01*
X661130Y550560D01*
X661145Y550575D01*
Y550583D01*
X661751D01*
X661707Y550472D01*
D02*
G37*
G36*
X665000Y536160D02*
X662676D01*
Y533755D01*
X662070D01*
Y536160D01*
X660486D01*
Y533378D01*
X659879D01*
Y536841D01*
X665000D01*
Y536160D01*
D02*
G37*
G36*
X665089Y540903D02*
X659790Y539416D01*
Y539919D01*
X665089Y541407D01*
Y540903D01*
D02*
G37*
G36*
X663764Y547060D02*
X663875Y547038D01*
X664082Y546971D01*
X664260Y546890D01*
X664334Y546846D01*
X664408Y546801D01*
X664475Y546757D01*
X664526Y546712D01*
X664578Y546675D01*
X664615Y546638D01*
X664645Y546616D01*
X664667Y546594D01*
X664682Y546579D01*
X664689Y546572D01*
X664756Y546483D01*
X664822Y546394D01*
X664874Y546305D01*
X664919Y546209D01*
X664993Y546024D01*
X665037Y545847D01*
X665052Y545765D01*
X665067Y545691D01*
X665074Y545625D01*
X665081Y545565D01*
X665089Y545521D01*
Y545484D01*
Y545462D01*
Y545454D01*
X665081Y545314D01*
X665067Y545188D01*
X665044Y545062D01*
X665015Y544944D01*
X664978Y544833D01*
X664941Y544737D01*
X664896Y544640D01*
X664852Y544559D01*
X664815Y544478D01*
X664771Y544411D01*
X664734Y544352D01*
X664697Y544307D01*
X664667Y544270D01*
X664645Y544241D01*
X664630Y544226D01*
X664623Y544219D01*
X664534Y544130D01*
X664438Y544056D01*
X664341Y543989D01*
X664245Y543930D01*
X664156Y543886D01*
X664060Y543841D01*
X663883Y543782D01*
X663801Y543767D01*
X663727Y543752D01*
X663661Y543738D01*
X663601Y543730D01*
X663557Y543723D01*
X663490D01*
X663313Y543730D01*
X663150Y543760D01*
X663009Y543804D01*
X662891Y543849D01*
X662795Y543893D01*
X662721Y543937D01*
X662676Y543967D01*
X662662Y543974D01*
X662551Y544078D01*
X662454Y544189D01*
X662380Y544307D01*
X662321Y544426D01*
X662277Y544529D01*
X662247Y544611D01*
X662240Y544640D01*
X662232Y544663D01*
X662225Y544677D01*
Y544685D01*
X662158Y544559D01*
X662092Y544455D01*
X662018Y544367D01*
X661951Y544293D01*
X661892Y544233D01*
X661840Y544189D01*
X661811Y544167D01*
X661796Y544159D01*
X661692Y544100D01*
X661589Y544056D01*
X661485Y544019D01*
X661389Y543997D01*
X661307Y543982D01*
X661248Y543974D01*
X661189D01*
X661063Y543982D01*
X660937Y544004D01*
X660826Y544034D01*
X660730Y544071D01*
X660649Y544108D01*
X660582Y544137D01*
X660545Y544159D01*
X660530Y544167D01*
X660419Y544241D01*
X660323Y544330D01*
X660242Y544418D01*
X660168Y544507D01*
X660116Y544581D01*
X660072Y544648D01*
X660049Y544692D01*
X660042Y544700D01*
Y544707D01*
X659983Y544840D01*
X659938Y544973D01*
X659901Y545107D01*
X659879Y545225D01*
X659864Y545321D01*
X659857Y545403D01*
Y545432D01*
Y545454D01*
Y545469D01*
Y545477D01*
Y545588D01*
X659872Y545691D01*
X659909Y545891D01*
X659968Y546061D01*
X660027Y546209D01*
X660064Y546276D01*
X660094Y546328D01*
X660123Y546379D01*
X660153Y546416D01*
X660175Y546446D01*
X660190Y546468D01*
X660197Y546483D01*
X660205Y546490D01*
X660345Y546631D01*
X660501Y546742D01*
X660664Y546831D01*
X660826Y546905D01*
X660967Y546949D01*
X661026Y546971D01*
X661078Y546986D01*
X661122Y546994D01*
X661152Y547001D01*
X661174Y547008D01*
X661182D01*
X661293Y546379D01*
X661130Y546350D01*
X660989Y546305D01*
X660871Y546254D01*
X660775Y546202D01*
X660701Y546150D01*
X660649Y546106D01*
X660612Y546076D01*
X660604Y546069D01*
X660530Y545972D01*
X660471Y545869D01*
X660434Y545773D01*
X660405Y545676D01*
X660390Y545588D01*
X660375Y545521D01*
Y545477D01*
Y545469D01*
Y545462D01*
X660382Y545329D01*
X660412Y545210D01*
X660449Y545107D01*
X660486Y545018D01*
X660530Y544951D01*
X660567Y544899D01*
X660597Y544862D01*
X660604Y544855D01*
X660693Y544774D01*
X660789Y544714D01*
X660886Y544677D01*
X660974Y544648D01*
X661056Y544633D01*
X661115Y544618D01*
X661256D01*
X661330Y544633D01*
X661455Y544670D01*
X661566Y544722D01*
X661663Y544781D01*
X661729Y544840D01*
X661781Y544892D01*
X661811Y544929D01*
X661818Y544936D01*
Y544944D01*
X661885Y545070D01*
X661936Y545188D01*
X661973Y545314D01*
X661996Y545425D01*
X662010Y545521D01*
X662025Y545602D01*
Y545632D01*
Y545654D01*
Y545662D01*
Y545669D01*
Y545699D01*
X662018Y545728D01*
Y545758D01*
Y545765D01*
X662573Y545839D01*
X662551Y545743D01*
X662536Y545654D01*
X662521Y545580D01*
X662514Y545514D01*
X662506Y545462D01*
Y545425D01*
Y545403D01*
Y545395D01*
X662521Y545240D01*
X662551Y545099D01*
X662595Y544973D01*
X662647Y544870D01*
X662699Y544788D01*
X662743Y544729D01*
X662773Y544692D01*
X662787Y544677D01*
X662898Y544581D01*
X663017Y544507D01*
X663135Y544455D01*
X663254Y544426D01*
X663350Y544404D01*
X663431Y544396D01*
X663461Y544389D01*
X663505D01*
X663668Y544404D01*
X663816Y544441D01*
X663942Y544485D01*
X664053Y544544D01*
X664142Y544603D01*
X664208Y544648D01*
X664253Y544685D01*
X664267Y544700D01*
X664371Y544818D01*
X664445Y544944D01*
X664497Y545070D01*
X664534Y545188D01*
X664556Y545292D01*
X664563Y545373D01*
X664571Y545403D01*
Y545425D01*
Y545440D01*
Y545447D01*
X664563Y545580D01*
X664534Y545706D01*
X664497Y545817D01*
X664452Y545906D01*
X664415Y545980D01*
X664378Y546039D01*
X664349Y546069D01*
X664341Y546083D01*
X664238Y546172D01*
X664119Y546246D01*
X663994Y546313D01*
X663860Y546365D01*
X663749Y546402D01*
X663698Y546416D01*
X663653Y546424D01*
X663616Y546431D01*
X663587Y546439D01*
X663572Y546446D01*
X663564D01*
X663646Y547075D01*
X663764Y547060D01*
D02*
G37*
G36*
X665000Y568172D02*
X662972D01*
X662817Y568165D01*
X662684Y568158D01*
X662565Y568143D01*
X662469Y568121D01*
X662395Y568098D01*
X662336Y568084D01*
X662306Y568076D01*
X662292Y568069D01*
X662203Y568024D01*
X662121Y567973D01*
X662055Y567913D01*
X661996Y567854D01*
X661951Y567802D01*
X661922Y567758D01*
X661899Y567728D01*
X661892Y567721D01*
X661840Y567625D01*
X661803Y567536D01*
X661781Y567447D01*
X661759Y567373D01*
X661751Y567299D01*
X661744Y567247D01*
Y567218D01*
Y567203D01*
X661751Y567070D01*
X661781Y566951D01*
X661811Y566855D01*
X661855Y566774D01*
X661892Y566707D01*
X661929Y566663D01*
X661959Y566633D01*
X661966Y566626D01*
X662055Y566559D01*
X662166Y566507D01*
X662277Y566470D01*
X662388Y566441D01*
X662491Y566426D01*
X662573Y566419D01*
X665000D01*
Y565790D01*
X662654D01*
X662462Y565797D01*
X662292Y565812D01*
X662151Y565834D01*
X662033Y565856D01*
X661936Y565878D01*
X661870Y565901D01*
X661833Y565915D01*
X661818Y565923D01*
X661714Y565982D01*
X661626Y566049D01*
X661552Y566123D01*
X661485Y566189D01*
X661433Y566256D01*
X661396Y566308D01*
X661374Y566345D01*
X661367Y566359D01*
X661315Y566478D01*
X661270Y566596D01*
X661241Y566715D01*
X661226Y566826D01*
X661211Y566922D01*
X661204Y567003D01*
Y567033D01*
Y567055D01*
Y567062D01*
Y567070D01*
X661211Y567188D01*
X661226Y567307D01*
X661248Y567418D01*
X661285Y567521D01*
X661367Y567714D01*
X661411Y567795D01*
X661455Y567869D01*
X661507Y567936D01*
X661552Y568002D01*
X661596Y568054D01*
X661633Y568091D01*
X661670Y568128D01*
X661692Y568150D01*
X661707Y568165D01*
X661714Y568172D01*
X659879D01*
Y568801D01*
X665000D01*
Y568172D01*
D02*
G37*
G36*
X660597Y579309D02*
X659879D01*
Y579938D01*
X660597D01*
Y579309D01*
D02*
G37*
G36*
X665000D02*
X661285D01*
Y579938D01*
X665000D01*
Y579309D01*
D02*
G37*
G36*
Y584319D02*
X662588D01*
Y581670D01*
X665000D01*
Y580989D01*
X659879D01*
Y581670D01*
X661981D01*
Y584319D01*
X659879D01*
Y585000D01*
X665000D01*
Y584319D01*
D02*
G37*
G36*
Y577726D02*
X663061D01*
X662913Y577718D01*
X662780Y577711D01*
X662654Y577696D01*
X662543Y577674D01*
X662454Y577652D01*
X662388Y577637D01*
X662343Y577630D01*
X662329Y577622D01*
X662247Y577593D01*
X662181Y577556D01*
X662121Y577519D01*
X662070Y577482D01*
X662033Y577445D01*
X662003Y577422D01*
X661988Y577400D01*
X661981Y577393D01*
X661936Y577334D01*
X661907Y577267D01*
X661885Y577200D01*
X661870Y577149D01*
X661862Y577097D01*
X661855Y577060D01*
Y577030D01*
Y577023D01*
X661862Y576941D01*
X661877Y576860D01*
X661899Y576779D01*
X661922Y576712D01*
X661944Y576653D01*
X661966Y576608D01*
X661981Y576579D01*
X661988Y576571D01*
X661411Y576342D01*
X661344Y576468D01*
X661293Y576586D01*
X661256Y576690D01*
X661226Y576786D01*
X661211Y576867D01*
X661204Y576934D01*
Y576971D01*
Y576986D01*
X661211Y577067D01*
X661226Y577141D01*
X661248Y577215D01*
X661270Y577274D01*
X661293Y577319D01*
X661315Y577363D01*
X661330Y577385D01*
X661337Y577393D01*
X661396Y577459D01*
X661470Y577526D01*
X661559Y577593D01*
X661640Y577652D01*
X661722Y577711D01*
X661788Y577748D01*
X661840Y577778D01*
X661848Y577785D01*
X661285D01*
Y578355D01*
X665000D01*
Y577726D01*
D02*
G37*
G36*
X663328Y572561D02*
X663483Y572546D01*
X663638Y572524D01*
X663772Y572494D01*
X663905Y572464D01*
X664016Y572420D01*
X664127Y572383D01*
X664223Y572339D01*
X664304Y572294D01*
X664378Y572257D01*
X664445Y572213D01*
X664497Y572183D01*
X664534Y572154D01*
X664563Y572131D01*
X664578Y572117D01*
X664586Y572109D01*
X664674Y572020D01*
X664748Y571924D01*
X664815Y571828D01*
X664874Y571724D01*
X664919Y571621D01*
X664963Y571525D01*
X665022Y571325D01*
X665037Y571236D01*
X665052Y571155D01*
X665067Y571081D01*
X665074Y571014D01*
X665081Y570962D01*
Y570925D01*
Y570896D01*
Y570888D01*
X665074Y570777D01*
X665067Y570666D01*
X665022Y570474D01*
X664970Y570296D01*
X664904Y570148D01*
X664867Y570089D01*
X664837Y570030D01*
X664808Y569978D01*
X664778Y569941D01*
X664756Y569911D01*
X664741Y569889D01*
X664734Y569874D01*
X664726Y569867D01*
X664652Y569793D01*
X664578Y569726D01*
X664415Y569608D01*
X664245Y569512D01*
X664090Y569445D01*
X663942Y569393D01*
X663883Y569379D01*
X663823Y569364D01*
X663779Y569356D01*
X663749Y569349D01*
X663727Y569342D01*
X663720D01*
X663638Y569963D01*
X663801Y569993D01*
X663949Y570037D01*
X664068Y570096D01*
X664164Y570148D01*
X664245Y570200D01*
X664297Y570244D01*
X664334Y570267D01*
X664341Y570281D01*
X664415Y570378D01*
X664467Y570481D01*
X664512Y570585D01*
X664534Y570681D01*
X664549Y570762D01*
X664556Y570836D01*
X664563Y570881D01*
Y570888D01*
Y570896D01*
X664556Y570977D01*
X664549Y571058D01*
X664512Y571206D01*
X664460Y571332D01*
X664393Y571443D01*
X664334Y571525D01*
X664282Y571591D01*
X664245Y571628D01*
X664230Y571643D01*
X664164Y571695D01*
X664082Y571739D01*
X663920Y571806D01*
X663735Y571858D01*
X663557Y571887D01*
X663394Y571909D01*
X663328Y571917D01*
X663261D01*
X663217Y571924D01*
X663009D01*
X662884Y571909D01*
X662765Y571895D01*
X662662Y571880D01*
X662565Y571858D01*
X662477Y571828D01*
X662395Y571806D01*
X662321Y571776D01*
X662262Y571747D01*
X662210Y571724D01*
X662166Y571695D01*
X662129Y571673D01*
X662099Y571658D01*
X662077Y571643D01*
X662070Y571628D01*
X662062D01*
X662003Y571569D01*
X661951Y571510D01*
X661862Y571384D01*
X661803Y571251D01*
X661766Y571132D01*
X661737Y571021D01*
X661729Y570940D01*
X661722Y570903D01*
Y570881D01*
Y570866D01*
Y570859D01*
X661729Y570748D01*
X661751Y570644D01*
X661781Y570555D01*
X661818Y570474D01*
X661855Y570415D01*
X661885Y570363D01*
X661907Y570333D01*
X661914Y570326D01*
X661988Y570252D01*
X662077Y570185D01*
X662173Y570126D01*
X662262Y570089D01*
X662343Y570052D01*
X662410Y570030D01*
X662454Y570022D01*
X662462Y570015D01*
X662469D01*
X662373Y569401D01*
X662173Y569453D01*
X662003Y569527D01*
X661855Y569608D01*
X661737Y569689D01*
X661640Y569771D01*
X661574Y569837D01*
X661529Y569882D01*
X661515Y569889D01*
Y569897D01*
X661411Y570052D01*
X661337Y570215D01*
X661278Y570378D01*
X661241Y570533D01*
X661219Y570674D01*
X661211Y570733D01*
Y570777D01*
X661204Y570822D01*
Y570851D01*
Y570873D01*
Y570881D01*
X661211Y571058D01*
X661241Y571221D01*
X661278Y571377D01*
X661315Y571502D01*
X661359Y571613D01*
X661381Y571658D01*
X661396Y571695D01*
X661411Y571724D01*
X661426Y571747D01*
X661433Y571761D01*
Y571769D01*
X661522Y571909D01*
X661633Y572035D01*
X661744Y572139D01*
X661855Y572228D01*
X661951Y572294D01*
X662033Y572339D01*
X662062Y572353D01*
X662084Y572368D01*
X662099Y572376D01*
X662107D01*
X662284Y572442D01*
X662462Y572487D01*
X662639Y572524D01*
X662802Y572546D01*
X662876Y572553D01*
X662943Y572561D01*
X663002D01*
X663054Y572568D01*
X663157D01*
X663328Y572561D01*
D02*
G37*
G36*
X714942Y497886D02*
X714368Y496500D01*
X712750D01*
X710500Y494250D01*
Y485750D01*
X712750Y483500D01*
X717250D01*
X719500Y485750D01*
Y487451D01*
X720944D01*
X725451Y482944D01*
Y466549D01*
X689056D01*
X687549Y468056D01*
Y470250D01*
X689750D01*
Y470250D01*
X689750D01*
X689750Y470250D01*
X690250D01*
Y470250D01*
X699750D01*
Y470250D01*
X699750D01*
X699750Y470250D01*
X700250D01*
Y470250D01*
X709750D01*
X709750Y470250D01*
Y470250D01*
X709750D01*
X710250D01*
X710811Y470250D01*
X710811Y470250D01*
X710811Y470250D01*
X714000D01*
Y474999D01*
Y479750D01*
X710811D01*
X710811Y479750D01*
X710811Y479750D01*
X710250Y479750D01*
X710000D01*
X709750D01*
X709189Y479750D01*
X709189Y479750D01*
X709189Y479750D01*
X707243D01*
Y503625D01*
X708629Y504199D01*
X714942Y497886D01*
D02*
G37*
G36*
X664097Y576164D02*
X664282Y576098D01*
X664430Y576016D01*
X664556Y575935D01*
X664660Y575861D01*
X664726Y575794D01*
X664771Y575750D01*
X664778Y575743D01*
X664785Y575735D01*
X664837Y575661D01*
X664882Y575580D01*
X664956Y575402D01*
X665007Y575217D01*
X665044Y575040D01*
X665059Y574958D01*
X665067Y574884D01*
X665074Y574810D01*
Y574751D01*
X665081Y574699D01*
Y574662D01*
Y574640D01*
Y574633D01*
X665074Y574470D01*
X665059Y574329D01*
X665037Y574196D01*
X665007Y574078D01*
X664978Y573981D01*
X664956Y573907D01*
X664941Y573863D01*
X664933Y573856D01*
Y573848D01*
X664867Y573722D01*
X664800Y573619D01*
X664726Y573530D01*
X664660Y573449D01*
X664600Y573389D01*
X664549Y573352D01*
X664519Y573323D01*
X664504Y573315D01*
X664401Y573256D01*
X664290Y573212D01*
X664193Y573175D01*
X664105Y573153D01*
X664023Y573138D01*
X663964Y573130D01*
X663912D01*
X663794Y573138D01*
X663690Y573153D01*
X663601Y573182D01*
X663520Y573204D01*
X663453Y573234D01*
X663409Y573264D01*
X663379Y573278D01*
X663372Y573286D01*
X663298Y573345D01*
X663231Y573412D01*
X663172Y573478D01*
X663128Y573545D01*
X663091Y573611D01*
X663069Y573656D01*
X663054Y573685D01*
X663046Y573700D01*
X663024Y573752D01*
X663002Y573811D01*
X662950Y573952D01*
X662898Y574107D01*
X662854Y574263D01*
X662810Y574403D01*
X662795Y574470D01*
X662780Y574522D01*
X662765Y574566D01*
X662758Y574603D01*
X662750Y574625D01*
Y574633D01*
X662728Y574714D01*
X662706Y574788D01*
X662691Y574855D01*
X662669Y574914D01*
X662647Y575010D01*
X662625Y575084D01*
X662602Y575136D01*
X662595Y575165D01*
X662588Y575180D01*
Y575188D01*
X662558Y575247D01*
X662536Y575299D01*
X662506Y575343D01*
X662484Y575373D01*
X662462Y575402D01*
X662440Y575417D01*
X662432Y575424D01*
X662425Y575432D01*
X662351Y575476D01*
X662277Y575498D01*
X662247D01*
X662225Y575506D01*
X662203D01*
X662136Y575498D01*
X662070Y575476D01*
X662010Y575447D01*
X661966Y575410D01*
X661922Y575380D01*
X661892Y575350D01*
X661877Y575328D01*
X661870Y575321D01*
X661818Y575239D01*
X661781Y575143D01*
X661759Y575040D01*
X661737Y574943D01*
X661729Y574847D01*
X661722Y574773D01*
Y574744D01*
Y574721D01*
Y574707D01*
Y574699D01*
X661729Y574573D01*
X661744Y574455D01*
X661774Y574359D01*
X661803Y574285D01*
X661833Y574218D01*
X661862Y574174D01*
X661877Y574144D01*
X661885Y574137D01*
X661951Y574063D01*
X662025Y574011D01*
X662099Y573967D01*
X662166Y573930D01*
X662232Y573907D01*
X662284Y573893D01*
X662314Y573885D01*
X662329D01*
X662247Y573271D01*
X662121Y573301D01*
X662010Y573330D01*
X661914Y573367D01*
X661825Y573404D01*
X661766Y573441D01*
X661714Y573471D01*
X661685Y573486D01*
X661677Y573493D01*
X661603Y573560D01*
X661537Y573634D01*
X661478Y573715D01*
X661426Y573796D01*
X661389Y573870D01*
X661359Y573930D01*
X661344Y573967D01*
X661337Y573974D01*
Y573981D01*
X661293Y574107D01*
X661263Y574240D01*
X661233Y574366D01*
X661219Y574485D01*
X661211Y574596D01*
X661204Y574677D01*
Y574707D01*
Y574729D01*
Y574744D01*
Y574751D01*
Y574855D01*
X661219Y574958D01*
X661226Y575047D01*
X661241Y575128D01*
X661256Y575195D01*
X661270Y575247D01*
X661278Y575276D01*
X661285Y575291D01*
X661315Y575380D01*
X661344Y575461D01*
X661374Y575528D01*
X661404Y575587D01*
X661426Y575632D01*
X661448Y575661D01*
X661455Y575683D01*
X661463Y575691D01*
X661515Y575765D01*
X661574Y575824D01*
X661640Y575876D01*
X661692Y575920D01*
X661744Y575957D01*
X661781Y575979D01*
X661811Y575994D01*
X661818Y576002D01*
X661899Y576039D01*
X661973Y576068D01*
X662055Y576083D01*
X662121Y576098D01*
X662188Y576105D01*
X662232Y576113D01*
X662277D01*
X662380Y576105D01*
X662469Y576090D01*
X662558Y576068D01*
X662632Y576046D01*
X662691Y576024D01*
X662743Y576002D01*
X662773Y575987D01*
X662780Y575979D01*
X662861Y575920D01*
X662928Y575854D01*
X662987Y575787D01*
X663039Y575720D01*
X663076Y575661D01*
X663106Y575617D01*
X663120Y575587D01*
X663128Y575572D01*
X663150Y575521D01*
X663180Y575454D01*
X663231Y575306D01*
X663276Y575151D01*
X663328Y574988D01*
X663365Y574847D01*
X663387Y574781D01*
X663402Y574721D01*
X663416Y574677D01*
X663424Y574640D01*
X663431Y574618D01*
Y574610D01*
X663453Y574514D01*
X663476Y574433D01*
X663498Y574359D01*
X663520Y574292D01*
X663535Y574233D01*
X663557Y574181D01*
X663587Y574092D01*
X663609Y574033D01*
X663631Y573996D01*
X663638Y573974D01*
X663646Y573967D01*
X663690Y573900D01*
X663749Y573856D01*
X663801Y573819D01*
X663853Y573796D01*
X663905Y573782D01*
X663942Y573774D01*
X663979D01*
X664068Y573782D01*
X664142Y573804D01*
X664216Y573841D01*
X664275Y573878D01*
X664327Y573922D01*
X664364Y573952D01*
X664386Y573981D01*
X664393Y573989D01*
X664452Y574078D01*
X664489Y574174D01*
X664519Y574285D01*
X664541Y574388D01*
X664556Y574485D01*
X664563Y574559D01*
Y574588D01*
Y574610D01*
Y574625D01*
Y574633D01*
X664556Y574788D01*
X664534Y574921D01*
X664504Y575032D01*
X664467Y575128D01*
X664430Y575202D01*
X664401Y575262D01*
X664378Y575291D01*
X664371Y575306D01*
X664290Y575387D01*
X664193Y575454D01*
X664097Y575498D01*
X664008Y575535D01*
X663927Y575565D01*
X663853Y575580D01*
X663809Y575595D01*
X663794D01*
X663890Y576216D01*
X664097Y576164D01*
D02*
G37*
G36*
X662669Y503237D02*
X662928Y503208D01*
X663157Y503171D01*
X663268Y503141D01*
X663365Y503119D01*
X663453Y503097D01*
X663535Y503067D01*
X663609Y503045D01*
X663668Y503030D01*
X663712Y503008D01*
X663749Y503001D01*
X663772Y502986D01*
X663779D01*
X664001Y502875D01*
X664201Y502749D01*
X664371Y502616D01*
X664438Y502549D01*
X664504Y502490D01*
X664563Y502431D01*
X664615Y502372D01*
X664660Y502320D01*
X664689Y502275D01*
X664719Y502246D01*
X664741Y502216D01*
X664748Y502201D01*
X664756Y502194D01*
X664815Y502090D01*
X664867Y501987D01*
X664948Y501765D01*
X665007Y501543D01*
X665044Y501328D01*
X665059Y501225D01*
X665074Y501136D01*
X665081Y501054D01*
Y500988D01*
X665089Y500929D01*
Y500884D01*
Y500855D01*
Y500847D01*
X665081Y500699D01*
X665067Y500559D01*
X665052Y500425D01*
X665022Y500300D01*
X664985Y500181D01*
X664948Y500070D01*
X664911Y499967D01*
X664867Y499870D01*
X664830Y499789D01*
X664793Y499708D01*
X664756Y499648D01*
X664719Y499589D01*
X664689Y499552D01*
X664674Y499515D01*
X664660Y499500D01*
X664652Y499493D01*
X664563Y499389D01*
X664475Y499301D01*
X664371Y499219D01*
X664267Y499138D01*
X664060Y499005D01*
X663853Y498901D01*
X663757Y498857D01*
X663668Y498820D01*
X663587Y498790D01*
X663520Y498768D01*
X663461Y498746D01*
X663416Y498731D01*
X663387Y498723D01*
X663379D01*
X663209Y499404D01*
X663328Y499434D01*
X663439Y499471D01*
X663542Y499508D01*
X663638Y499545D01*
X663727Y499589D01*
X663801Y499634D01*
X663875Y499685D01*
X663942Y499730D01*
X664001Y499767D01*
X664045Y499811D01*
X664090Y499848D01*
X664127Y499878D01*
X664149Y499907D01*
X664171Y499930D01*
X664179Y499937D01*
X664186Y499944D01*
X664245Y500018D01*
X664290Y500100D01*
X664371Y500263D01*
X664430Y500418D01*
X664467Y500573D01*
X664497Y500707D01*
X664504Y500758D01*
Y500810D01*
X664512Y500855D01*
Y500884D01*
Y500899D01*
Y500906D01*
X664504Y501077D01*
X664475Y501239D01*
X664438Y501387D01*
X664393Y501521D01*
X664349Y501624D01*
X664327Y501669D01*
X664312Y501706D01*
X664297Y501735D01*
X664282Y501757D01*
X664275Y501772D01*
Y501780D01*
X664171Y501920D01*
X664060Y502039D01*
X663934Y502142D01*
X663816Y502224D01*
X663712Y502290D01*
X663624Y502335D01*
X663587Y502349D01*
X663564Y502364D01*
X663550Y502372D01*
X663542D01*
X663350Y502431D01*
X663157Y502475D01*
X662965Y502512D01*
X662787Y502534D01*
X662706Y502542D01*
X662632Y502549D01*
X662565D01*
X662514Y502557D01*
X662403D01*
X662210Y502549D01*
X662033Y502534D01*
X661870Y502505D01*
X661722Y502475D01*
X661596Y502453D01*
X661544Y502438D01*
X661500Y502423D01*
X661463Y502416D01*
X661441Y502409D01*
X661426Y502401D01*
X661418D01*
X661248Y502327D01*
X661093Y502246D01*
X660967Y502157D01*
X660856Y502061D01*
X660767Y501979D01*
X660708Y501913D01*
X660671Y501861D01*
X660656Y501854D01*
Y501846D01*
X660560Y501691D01*
X660486Y501521D01*
X660434Y501358D01*
X660405Y501202D01*
X660382Y501062D01*
X660375Y501003D01*
Y500951D01*
X660368Y500914D01*
Y500884D01*
Y500862D01*
Y500855D01*
X660375Y500670D01*
X660405Y500499D01*
X660449Y500359D01*
X660493Y500233D01*
X660545Y500137D01*
X660582Y500063D01*
X660612Y500018D01*
X660627Y500004D01*
X660738Y499885D01*
X660863Y499774D01*
X660997Y499685D01*
X661130Y499611D01*
X661248Y499552D01*
X661307Y499530D01*
X661352Y499515D01*
X661389Y499500D01*
X661418Y499486D01*
X661433Y499478D01*
X661441D01*
X661285Y498812D01*
X661152Y498857D01*
X661034Y498901D01*
X660923Y498960D01*
X660812Y499012D01*
X660715Y499071D01*
X660627Y499138D01*
X660538Y499197D01*
X660464Y499256D01*
X660405Y499315D01*
X660345Y499367D01*
X660294Y499419D01*
X660257Y499456D01*
X660220Y499493D01*
X660197Y499523D01*
X660190Y499537D01*
X660183Y499545D01*
X660116Y499648D01*
X660049Y499752D01*
X659998Y499856D01*
X659953Y499967D01*
X659887Y500189D01*
X659842Y500388D01*
X659820Y500485D01*
X659813Y500566D01*
X659805Y500647D01*
X659798Y500714D01*
X659790Y500766D01*
Y500803D01*
Y500832D01*
Y500840D01*
X659805Y501084D01*
X659842Y501321D01*
X659887Y501528D01*
X659916Y501624D01*
X659946Y501713D01*
X659975Y501794D01*
X660005Y501868D01*
X660027Y501928D01*
X660049Y501987D01*
X660072Y502024D01*
X660086Y502053D01*
X660094Y502076D01*
X660101Y502083D01*
X660227Y502283D01*
X660375Y502453D01*
X660523Y502601D01*
X660671Y502727D01*
X660804Y502823D01*
X660863Y502860D01*
X660915Y502890D01*
X660952Y502919D01*
X660982Y502934D01*
X661004Y502941D01*
X661011Y502949D01*
X661241Y503052D01*
X661478Y503126D01*
X661714Y503178D01*
X661929Y503215D01*
X662025Y503230D01*
X662121Y503237D01*
X662195Y503245D01*
X662269D01*
X662321Y503252D01*
X662403D01*
X662669Y503237D01*
D02*
G37*
G36*
X665000Y503985D02*
X664393D01*
Y506508D01*
X664267Y506419D01*
X664216Y506375D01*
X664164Y506338D01*
X664119Y506301D01*
X664090Y506271D01*
X664068Y506249D01*
X664060Y506242D01*
X664023Y506205D01*
X663986Y506160D01*
X663890Y506057D01*
X663779Y505938D01*
X663668Y505813D01*
X663572Y505694D01*
X663527Y505642D01*
X663483Y505598D01*
X663453Y505561D01*
X663431Y505531D01*
X663416Y505517D01*
X663409Y505509D01*
X663305Y505391D01*
X663209Y505272D01*
X663113Y505169D01*
X663032Y505073D01*
X662950Y504984D01*
X662876Y504910D01*
X662810Y504836D01*
X662750Y504777D01*
X662691Y504717D01*
X662647Y504673D01*
X662610Y504636D01*
X662573Y504599D01*
X662528Y504562D01*
X662514Y504547D01*
X662388Y504444D01*
X662277Y504355D01*
X662166Y504281D01*
X662077Y504222D01*
X661996Y504177D01*
X661936Y504148D01*
X661899Y504133D01*
X661885Y504125D01*
X661774Y504081D01*
X661663Y504051D01*
X661559Y504022D01*
X661470Y504007D01*
X661389Y504000D01*
X661330Y503992D01*
X661278D01*
X661167Y504000D01*
X661063Y504014D01*
X660960Y504029D01*
X660871Y504059D01*
X660693Y504133D01*
X660553Y504207D01*
X660486Y504251D01*
X660434Y504288D01*
X660382Y504325D01*
X660345Y504362D01*
X660316Y504392D01*
X660286Y504407D01*
X660279Y504421D01*
X660271Y504429D01*
X660197Y504510D01*
X660131Y504599D01*
X660079Y504695D01*
X660035Y504791D01*
X659961Y504984D01*
X659909Y505176D01*
X659894Y505258D01*
X659879Y505339D01*
X659872Y505413D01*
X659864Y505472D01*
X659857Y505524D01*
Y505568D01*
Y505591D01*
Y505598D01*
X659864Y505731D01*
X659872Y505857D01*
X659894Y505975D01*
X659916Y506086D01*
X659946Y506190D01*
X659975Y506286D01*
X660012Y506375D01*
X660049Y506456D01*
X660086Y506530D01*
X660123Y506590D01*
X660153Y506641D01*
X660183Y506686D01*
X660205Y506723D01*
X660227Y506745D01*
X660234Y506760D01*
X660242Y506767D01*
X660316Y506841D01*
X660397Y506908D01*
X660486Y506974D01*
X660575Y507026D01*
X660752Y507115D01*
X660930Y507174D01*
X661011Y507196D01*
X661093Y507219D01*
X661159Y507233D01*
X661219Y507248D01*
X661270Y507256D01*
X661307D01*
X661330Y507263D01*
X661337D01*
X661404Y506619D01*
X661233Y506604D01*
X661085Y506575D01*
X660952Y506530D01*
X660849Y506479D01*
X660760Y506434D01*
X660701Y506390D01*
X660664Y506360D01*
X660649Y506345D01*
X660560Y506234D01*
X660493Y506116D01*
X660442Y505990D01*
X660412Y505879D01*
X660390Y505776D01*
X660382Y505687D01*
X660375Y505657D01*
Y505635D01*
Y505620D01*
Y505613D01*
X660382Y505457D01*
X660412Y505317D01*
X660456Y505198D01*
X660501Y505095D01*
X660553Y505013D01*
X660590Y504962D01*
X660619Y504925D01*
X660634Y504910D01*
X660738Y504821D01*
X660841Y504754D01*
X660945Y504703D01*
X661048Y504673D01*
X661130Y504651D01*
X661204Y504643D01*
X661248Y504636D01*
X661263D01*
X661396Y504651D01*
X661537Y504680D01*
X661663Y504732D01*
X661781Y504784D01*
X661877Y504843D01*
X661959Y504895D01*
X661988Y504910D01*
X662010Y504925D01*
X662018Y504939D01*
X662025D01*
X662107Y504999D01*
X662188Y505073D01*
X662277Y505154D01*
X662366Y505243D01*
X662543Y505428D01*
X662721Y505613D01*
X662802Y505709D01*
X662876Y505790D01*
X662943Y505872D01*
X663002Y505938D01*
X663046Y505990D01*
X663083Y506035D01*
X663106Y506064D01*
X663113Y506072D01*
X663268Y506257D01*
X663416Y506427D01*
X663550Y506567D01*
X663661Y506678D01*
X663757Y506775D01*
X663823Y506841D01*
X663868Y506878D01*
X663875Y506893D01*
X663883D01*
X664008Y506997D01*
X664127Y507078D01*
X664245Y507152D01*
X664349Y507211D01*
X664438Y507256D01*
X664504Y507285D01*
X664549Y507300D01*
X664556Y507307D01*
X664563D01*
X664645Y507337D01*
X664719Y507352D01*
X664793Y507367D01*
X664859Y507374D01*
X664919Y507381D01*
X665000D01*
Y503985D01*
D02*
G37*
G36*
X837451Y565114D02*
X836065Y564540D01*
X822549Y578056D01*
Y578799D01*
X824250Y580500D01*
X825750D01*
X827750Y578500D01*
X829000D01*
Y584999D01*
Y591500D01*
X827750D01*
X825500Y589250D01*
X824500D01*
X822250Y591500D01*
X817923D01*
X816971Y592660D01*
X817039Y593000D01*
X816884Y593780D01*
X816442Y594442D01*
X815780Y594884D01*
X815033Y595033D01*
X814884Y595780D01*
X814442Y596442D01*
X813780Y596884D01*
X813000Y597039D01*
X812220Y596884D01*
X811558Y596442D01*
X811116Y595780D01*
X810967Y595033D01*
X810220Y594884D01*
X809558Y594442D01*
X809116Y593780D01*
X808961Y593000D01*
X809116Y592220D01*
X809558Y591558D01*
X810220Y591116D01*
X810967Y590967D01*
X811116Y590220D01*
X811558Y589558D01*
X812220Y589116D01*
X812593Y589042D01*
X812501Y588111D01*
X811939Y587549D01*
X799250D01*
Y590375D01*
X797125Y592500D01*
X792875D01*
X790750Y590375D01*
Y579625D01*
X792875Y577500D01*
X797125D01*
X799250Y579625D01*
Y582451D01*
X815500D01*
Y580750D01*
X817451Y578799D01*
Y577000D01*
X817451Y577000D01*
X817451D01*
X817645Y576024D01*
X818198Y575198D01*
X830509Y562886D01*
X829935Y561500D01*
X831000D01*
Y554999D01*
Y548500D01*
X832250D01*
X832250Y548500D01*
X832250Y548500D01*
X833451Y548002D01*
Y471056D01*
X828944Y466549D01*
X730549D01*
Y484000D01*
X730355Y484975D01*
X729802Y485802D01*
X723802Y491802D01*
X722975Y492355D01*
X722000Y492549D01*
Y492696D01*
X723061Y493757D01*
X743000D01*
X743858Y493928D01*
X744586Y494414D01*
X744586Y494414D01*
X744586Y494414D01*
X757586Y507414D01*
X758072Y508142D01*
X758243Y509000D01*
X758243Y509000D01*
X758243Y509000D01*
Y509000D01*
Y527071D01*
X763929Y532757D01*
X770500D01*
Y530750D01*
X772750Y528500D01*
X777250D01*
X779371Y530621D01*
X780757Y530047D01*
Y524953D01*
X779371Y524379D01*
X777250Y526500D01*
X772750D01*
X770500Y524250D01*
Y515750D01*
X772750Y513500D01*
X777250D01*
X779371Y515621D01*
X780757Y515047D01*
Y510000D01*
X779083Y509667D01*
X777250Y511500D01*
X772750D01*
X770500Y509250D01*
Y502306D01*
X765063D01*
X764205Y502135D01*
X763477Y501649D01*
X748414Y486586D01*
X747928Y485858D01*
X747757Y485000D01*
Y481500D01*
X747750D01*
X745500Y479250D01*
X745500D01*
D01*
X744500D01*
X742250Y481500D01*
X741000D01*
Y474999D01*
Y468500D01*
X742250D01*
X744250Y470500D01*
X745750D01*
X747750Y468500D01*
X752250D01*
X754500Y470750D01*
Y479250D01*
X752250Y481500D01*
X752243D01*
Y484071D01*
X765992Y497820D01*
X772110D01*
X772684Y496434D01*
X770500Y494250D01*
Y485750D01*
X772750Y483500D01*
X772757D01*
Y481500D01*
X772750D01*
X770500Y479250D01*
X770500D01*
D01*
X769500D01*
X767250Y481500D01*
X766000D01*
Y474999D01*
Y468500D01*
X767250D01*
X769250Y470500D01*
X770750D01*
X772750Y468500D01*
X777250D01*
X779500Y470750D01*
Y479250D01*
X777250Y481500D01*
X777243D01*
Y483500D01*
X777250D01*
X779500Y485750D01*
Y487757D01*
X786390D01*
Y485720D01*
X795189D01*
X795720Y485073D01*
X796055Y484365D01*
X795056Y483147D01*
X794222Y481587D01*
X793709Y479894D01*
X793634Y479134D01*
X801559D01*
Y487059D01*
X800799Y486984D01*
X799106Y486471D01*
X798676Y486241D01*
X797390Y487012D01*
Y494502D01*
X797390Y494502D01*
D01*
X797390Y494721D01*
Y494888D01*
Y495142D01*
Y495261D01*
Y495563D01*
X797390Y495721D01*
X797390Y495781D01*
X797390Y495781D01*
X797390Y495781D01*
Y503437D01*
Y512219D01*
D01*
X797390D01*
Y512219D01*
D01*
D01*
X797390Y512437D01*
Y512575D01*
X797390Y513279D01*
X797390Y513437D01*
X797390Y513498D01*
X797390Y513498D01*
X797390Y513498D01*
Y516780D01*
X791889D01*
Y517778D01*
X790890D01*
Y522280D01*
X786390D01*
Y522280D01*
X786304D01*
X785243Y523340D01*
Y535071D01*
X788672Y538500D01*
X792250D01*
X794250Y540500D01*
X795750D01*
X796013Y540237D01*
X797432Y537583D01*
X797416Y537262D01*
X796178Y536247D01*
X795056Y534879D01*
X794222Y533319D01*
X793709Y531627D01*
X793634Y530866D01*
X811484D01*
X811409Y531627D01*
X810896Y533319D01*
X810062Y534879D01*
X808940Y536247D01*
X807572Y537369D01*
X806012Y538203D01*
X804319Y538717D01*
X803831Y540081D01*
X804500Y540750D01*
Y544000D01*
X799999D01*
Y546000D01*
X804500D01*
Y549250D01*
X802379Y551371D01*
X802953Y552757D01*
X815500D01*
Y550750D01*
X817750Y548500D01*
X822250D01*
X824500Y550750D01*
X825500D01*
X827750Y548500D01*
X829000D01*
Y554999D01*
Y561500D01*
X827750D01*
X825500Y559250D01*
X825500D01*
D01*
X824500D01*
X822250Y561500D01*
X817750D01*
X817750Y561500D01*
X817750Y561500D01*
X816384Y561720D01*
X816384Y561720D01*
X816539Y562500D01*
X816384Y563280D01*
X815942Y563942D01*
X815280Y564384D01*
X814533Y564533D01*
X814384Y565280D01*
X813942Y565942D01*
X813280Y566384D01*
X812500Y566539D01*
X811720Y566384D01*
X811058Y565942D01*
X810616Y565280D01*
X810467Y564533D01*
X809720Y564384D01*
X809058Y563942D01*
X808616Y563280D01*
X808461Y562500D01*
X808616Y561720D01*
X809058Y561058D01*
X809720Y560616D01*
X810467Y560467D01*
X810616Y559720D01*
X811058Y559058D01*
X811626Y558678D01*
X811191Y557243D01*
X787243D01*
Y577618D01*
X789250Y579625D01*
Y590375D01*
X787125Y592500D01*
X782875D01*
X780750Y590375D01*
Y579625D01*
X782757Y577618D01*
Y557243D01*
X780000D01*
X779142Y557072D01*
X778414Y556586D01*
X777789Y555961D01*
X777250Y556500D01*
X772750D01*
X770500Y554250D01*
Y545750D01*
X772750Y543500D01*
X772757D01*
Y541500D01*
X772750D01*
X770500Y539250D01*
Y537243D01*
X763000D01*
X762142Y537072D01*
X761414Y536586D01*
X754414Y529586D01*
X753928Y528858D01*
X753757Y528000D01*
Y509929D01*
X742071Y498243D01*
X738953D01*
X738379Y499629D01*
X739500Y500750D01*
Y509250D01*
X737250Y511500D01*
X733632D01*
X733058Y512886D01*
X733672Y513500D01*
X737250D01*
X739500Y515750D01*
Y524250D01*
X737250Y526500D01*
X732750D01*
X730500Y524250D01*
Y516672D01*
X728071Y514243D01*
X720929D01*
X718267Y516905D01*
Y523661D01*
X718224Y523878D01*
Y526776D01*
X720339D01*
Y527976D01*
X718224D01*
Y528412D01*
X716589D01*
Y528411D01*
X710674D01*
Y523878D01*
X710631Y523661D01*
Y523660D01*
Y518911D01*
X710631D01*
Y513126D01*
X710802Y512268D01*
X711288Y511540D01*
X719414Y503414D01*
X720142Y502928D01*
X721000Y502757D01*
X730500D01*
Y500750D01*
X731621Y499629D01*
X731047Y498243D01*
X720929D01*
X702519Y516653D01*
Y518911D01*
X708775D01*
Y523660D01*
Y528411D01*
X702519D01*
Y536182D01*
X716589D01*
Y533076D01*
Y533075D01*
X721122D01*
X721339Y533032D01*
X726089D01*
Y533033D01*
X730500D01*
Y530750D01*
X732750Y528500D01*
X737250D01*
X739500Y530750D01*
Y539250D01*
X737250Y541500D01*
X733672D01*
X732211Y542961D01*
X732750Y543500D01*
X732777Y543500D01*
X732777Y543500D01*
Y543500D01*
X737250D01*
X739500Y545750D01*
Y554250D01*
X737250Y556500D01*
X737243D01*
Y558500D01*
X737250D01*
X739250Y560500D01*
X740750D01*
X742750Y558500D01*
X744000D01*
Y564999D01*
Y571500D01*
X742750D01*
X740500Y569250D01*
X739500D01*
X737250Y571500D01*
X732750D01*
X730500Y569250D01*
Y560750D01*
X732750Y558500D01*
X732757D01*
Y556500D01*
X732750D01*
X730500Y554250D01*
Y550117D01*
X726089D01*
Y553224D01*
X721555D01*
X721339Y553267D01*
X718224D01*
Y555339D01*
X716023D01*
Y556338D01*
X715117D01*
Y556339D01*
Y561089D01*
X715117D01*
Y573945D01*
X718929Y577757D01*
X730500D01*
Y575750D01*
X732750Y573500D01*
X737250D01*
X739250Y575500D01*
X740750D01*
X742750Y573500D01*
X744000D01*
Y579999D01*
Y586500D01*
X742750D01*
X740500Y584250D01*
X739500D01*
X737250Y586500D01*
X732750D01*
X730500Y584250D01*
Y582243D01*
X718000D01*
X717142Y582072D01*
X716414Y581586D01*
X711288Y576460D01*
X710802Y575732D01*
X710631Y574874D01*
Y561089D01*
X710631D01*
Y556339D01*
Y556338D01*
X708818D01*
X708818Y556339D01*
Y561089D01*
X708818D01*
Y583646D01*
X713672Y588500D01*
X717250D01*
X719500Y590750D01*
Y592757D01*
X730500D01*
Y590750D01*
X732750Y588500D01*
X737250D01*
X739250Y590500D01*
X740750D01*
X742750Y588500D01*
X744000D01*
Y594999D01*
Y601500D01*
X742750D01*
X740500Y599250D01*
X739500D01*
X737250Y601500D01*
X732750D01*
X730500Y599250D01*
Y597243D01*
X719500D01*
Y599250D01*
X717250Y601500D01*
X712750D01*
X710500Y599250D01*
Y591672D01*
X705000Y586172D01*
X699500Y591672D01*
Y599250D01*
X697250Y601500D01*
X692750D01*
X690500Y599250D01*
Y590750D01*
X692750Y588500D01*
X692757D01*
Y581500D01*
X692750D01*
X690500Y579250D01*
X690500D01*
D01*
X689500D01*
X687250Y581500D01*
X686000D01*
Y574999D01*
Y568500D01*
X687250D01*
X689250Y570500D01*
X690750D01*
X692750Y568500D01*
X697250D01*
X699500Y570750D01*
Y579250D01*
X697250Y581500D01*
X697243D01*
Y585625D01*
X698629Y586199D01*
X701182Y583646D01*
Y561089D01*
X694926D01*
Y556555D01*
X694883Y556339D01*
Y556338D01*
X692976D01*
Y561089D01*
X691776D01*
Y560128D01*
X690341Y559693D01*
X690081Y560081D01*
X689585Y560413D01*
X689000Y560529D01*
X686000D01*
X685415Y560413D01*
X684919Y560081D01*
X684587Y559585D01*
X684471Y559000D01*
Y556000D01*
X684587Y555415D01*
X684919Y554919D01*
X685307Y554659D01*
X684871Y553224D01*
X683911D01*
Y548824D01*
Y545674D01*
Y542524D01*
Y539375D01*
Y536225D01*
Y536225D01*
X688445D01*
X688661Y536182D01*
X693411D01*
Y536182D01*
X698033D01*
Y528411D01*
X693411D01*
Y529926D01*
Y533076D01*
Y534326D01*
X683911D01*
Y533076D01*
Y529926D01*
Y526776D01*
X691776D01*
Y523878D01*
X691733Y523661D01*
Y505024D01*
X691904Y504165D01*
X692390Y503438D01*
X692390Y503438D01*
X692390Y503438D01*
X692757Y503071D01*
Y479750D01*
X690250D01*
D01*
D01*
X690250Y479750D01*
X689750D01*
Y479750D01*
X680250D01*
Y470250D01*
X682451D01*
Y467000D01*
X682451Y467000D01*
X682451D01*
X682645Y466024D01*
X683198Y465198D01*
X684460Y463935D01*
X683886Y462549D01*
X670000D01*
Y607451D01*
X837451D01*
Y565114D01*
D02*
G37*
G36*
X665000Y494972D02*
Y494372D01*
X661285Y492959D01*
Y493610D01*
X663557Y494431D01*
X663705Y494483D01*
X663838Y494535D01*
X663964Y494572D01*
X664060Y494609D01*
X664149Y494631D01*
X664208Y494653D01*
X664245Y494661D01*
X664260Y494668D01*
X664119Y494713D01*
X663979Y494750D01*
X663853Y494794D01*
X663742Y494831D01*
X663646Y494861D01*
X663572Y494883D01*
X663550Y494890D01*
X663527Y494898D01*
X663520Y494905D01*
X663513D01*
X661285Y495704D01*
Y496370D01*
X665000Y494972D01*
D02*
G37*
G36*
Y483294D02*
X664393D01*
Y485818D01*
X664267Y485729D01*
X664216Y485685D01*
X664164Y485648D01*
X664119Y485611D01*
X664090Y485581D01*
X664068Y485559D01*
X664060Y485551D01*
X664023Y485514D01*
X663986Y485470D01*
X663890Y485366D01*
X663779Y485248D01*
X663668Y485122D01*
X663572Y485004D01*
X663527Y484952D01*
X663483Y484908D01*
X663453Y484871D01*
X663431Y484841D01*
X663416Y484826D01*
X663409Y484819D01*
X663305Y484700D01*
X663209Y484582D01*
X663113Y484478D01*
X663032Y484382D01*
X662950Y484293D01*
X662876Y484219D01*
X662810Y484145D01*
X662750Y484086D01*
X662691Y484027D01*
X662647Y483983D01*
X662610Y483946D01*
X662573Y483909D01*
X662528Y483872D01*
X662514Y483857D01*
X662388Y483753D01*
X662277Y483664D01*
X662166Y483590D01*
X662077Y483531D01*
X661996Y483487D01*
X661936Y483457D01*
X661899Y483442D01*
X661885Y483435D01*
X661774Y483391D01*
X661663Y483361D01*
X661559Y483331D01*
X661470Y483317D01*
X661389Y483309D01*
X661330Y483302D01*
X661278D01*
X661167Y483309D01*
X661063Y483324D01*
X660960Y483339D01*
X660871Y483368D01*
X660693Y483442D01*
X660553Y483516D01*
X660486Y483561D01*
X660434Y483598D01*
X660382Y483635D01*
X660345Y483672D01*
X660316Y483701D01*
X660286Y483716D01*
X660279Y483731D01*
X660271Y483738D01*
X660197Y483820D01*
X660131Y483909D01*
X660079Y484005D01*
X660035Y484101D01*
X659961Y484293D01*
X659909Y484486D01*
X659894Y484567D01*
X659879Y484649D01*
X659872Y484723D01*
X659864Y484782D01*
X659857Y484834D01*
Y484878D01*
Y484900D01*
Y484908D01*
X659864Y485041D01*
X659872Y485167D01*
X659894Y485285D01*
X659916Y485396D01*
X659946Y485500D01*
X659975Y485596D01*
X660012Y485685D01*
X660049Y485766D01*
X660086Y485840D01*
X660123Y485899D01*
X660153Y485951D01*
X660183Y485995D01*
X660205Y486032D01*
X660227Y486055D01*
X660234Y486069D01*
X660242Y486077D01*
X660316Y486151D01*
X660397Y486217D01*
X660486Y486284D01*
X660575Y486336D01*
X660752Y486425D01*
X660930Y486484D01*
X661011Y486506D01*
X661093Y486528D01*
X661159Y486543D01*
X661219Y486558D01*
X661270Y486565D01*
X661307D01*
X661330Y486573D01*
X661337D01*
X661404Y485929D01*
X661233Y485914D01*
X661085Y485884D01*
X660952Y485840D01*
X660849Y485788D01*
X660760Y485744D01*
X660701Y485699D01*
X660664Y485670D01*
X660649Y485655D01*
X660560Y485544D01*
X660493Y485426D01*
X660442Y485300D01*
X660412Y485189D01*
X660390Y485085D01*
X660382Y484996D01*
X660375Y484967D01*
Y484945D01*
Y484930D01*
Y484922D01*
X660382Y484767D01*
X660412Y484626D01*
X660456Y484508D01*
X660501Y484404D01*
X660553Y484323D01*
X660590Y484271D01*
X660619Y484234D01*
X660634Y484219D01*
X660738Y484131D01*
X660841Y484064D01*
X660945Y484012D01*
X661048Y483983D01*
X661130Y483960D01*
X661204Y483953D01*
X661248Y483946D01*
X661263D01*
X661396Y483960D01*
X661537Y483990D01*
X661663Y484042D01*
X661781Y484094D01*
X661877Y484153D01*
X661959Y484205D01*
X661988Y484219D01*
X662010Y484234D01*
X662018Y484249D01*
X662025D01*
X662107Y484308D01*
X662188Y484382D01*
X662277Y484464D01*
X662366Y484552D01*
X662543Y484737D01*
X662721Y484922D01*
X662802Y485019D01*
X662876Y485100D01*
X662943Y485181D01*
X663002Y485248D01*
X663046Y485300D01*
X663083Y485344D01*
X663106Y485374D01*
X663113Y485381D01*
X663268Y485566D01*
X663416Y485736D01*
X663550Y485877D01*
X663661Y485988D01*
X663757Y486084D01*
X663823Y486151D01*
X663868Y486188D01*
X663875Y486203D01*
X663883D01*
X664008Y486306D01*
X664127Y486388D01*
X664245Y486462D01*
X664349Y486521D01*
X664438Y486565D01*
X664504Y486595D01*
X664549Y486610D01*
X664556Y486617D01*
X664563D01*
X664645Y486647D01*
X664719Y486661D01*
X664793Y486676D01*
X664859Y486684D01*
X664919Y486691D01*
X665000D01*
Y483294D01*
D02*
G37*
G36*
Y487520D02*
X664282D01*
Y488238D01*
X665000D01*
Y487520D01*
D02*
G37*
G36*
X662736Y492567D02*
X662980Y492552D01*
X663202Y492530D01*
X663409Y492493D01*
X663601Y492456D01*
X663772Y492411D01*
X663927Y492367D01*
X664060Y492322D01*
X664179Y492278D01*
X664282Y492226D01*
X664371Y492189D01*
X664438Y492152D01*
X664497Y492115D01*
X664534Y492093D01*
X664556Y492078D01*
X664563Y492071D01*
X664652Y491989D01*
X664734Y491901D01*
X664808Y491804D01*
X664867Y491708D01*
X664919Y491612D01*
X664963Y491516D01*
X664993Y491420D01*
X665022Y491331D01*
X665044Y491242D01*
X665059Y491161D01*
X665074Y491087D01*
X665081Y491027D01*
X665089Y490976D01*
Y490931D01*
Y490909D01*
Y490902D01*
X665074Y490702D01*
X665044Y490517D01*
X664993Y490361D01*
X664941Y490228D01*
X664889Y490117D01*
X664859Y490080D01*
X664837Y490043D01*
X664822Y490014D01*
X664808Y489991D01*
X664793Y489984D01*
Y489977D01*
X664667Y489843D01*
X664534Y489732D01*
X664386Y489636D01*
X664253Y489562D01*
X664127Y489503D01*
X664075Y489473D01*
X664023Y489459D01*
X663986Y489444D01*
X663957Y489429D01*
X663942Y489422D01*
X663934D01*
X663823Y489385D01*
X663712Y489355D01*
X663476Y489311D01*
X663231Y489274D01*
X662995Y489251D01*
X662891Y489244D01*
X662795Y489237D01*
X662706D01*
X662625Y489229D01*
X662336D01*
X662203Y489237D01*
X662084D01*
X661966Y489244D01*
X661862Y489259D01*
X661759Y489266D01*
X661670Y489274D01*
X661589Y489288D01*
X661515Y489296D01*
X661448Y489311D01*
X661396Y489318D01*
X661352Y489325D01*
X661315Y489333D01*
X661293Y489340D01*
X661278Y489348D01*
X661270D01*
X661108Y489392D01*
X660960Y489444D01*
X660834Y489503D01*
X660723Y489547D01*
X660627Y489599D01*
X660560Y489629D01*
X660523Y489658D01*
X660508Y489666D01*
X660397Y489747D01*
X660301Y489829D01*
X660220Y489917D01*
X660146Y489999D01*
X660094Y490073D01*
X660057Y490132D01*
X660035Y490169D01*
X660027Y490176D01*
Y490184D01*
X659968Y490302D01*
X659931Y490428D01*
X659901Y490546D01*
X659879Y490657D01*
X659864Y490754D01*
X659857Y490835D01*
Y490865D01*
Y490887D01*
Y490894D01*
Y490902D01*
X659872Y491101D01*
X659901Y491286D01*
X659953Y491442D01*
X660005Y491575D01*
X660064Y491686D01*
X660086Y491730D01*
X660116Y491767D01*
X660131Y491797D01*
X660146Y491819D01*
X660160Y491827D01*
Y491834D01*
X660279Y491967D01*
X660419Y492078D01*
X660560Y492174D01*
X660693Y492248D01*
X660819Y492308D01*
X660871Y492337D01*
X660923Y492352D01*
X660960Y492367D01*
X660989Y492382D01*
X661004Y492389D01*
X661011D01*
X661122Y492419D01*
X661233Y492448D01*
X661478Y492493D01*
X661722Y492530D01*
X661951Y492552D01*
X662062Y492559D01*
X662158Y492567D01*
X662247D01*
X662329Y492574D01*
X662477D01*
X662736Y492567D01*
D02*
G37*
G36*
X665000Y508232D02*
X659879D01*
Y508913D01*
X665000D01*
Y508232D01*
D02*
G37*
G36*
X661707Y523809D02*
X661655Y523698D01*
X661603Y523587D01*
X661552Y523484D01*
X661507Y523395D01*
X661470Y523321D01*
X661441Y523277D01*
X661433Y523269D01*
Y523262D01*
X661352Y523129D01*
X661270Y523010D01*
X661196Y522907D01*
X661130Y522825D01*
X661078Y522751D01*
X661034Y522707D01*
X661004Y522670D01*
X660997Y522662D01*
X665000D01*
Y522033D01*
X659857D01*
Y522440D01*
X659983Y522514D01*
X660101Y522596D01*
X660220Y522692D01*
X660323Y522781D01*
X660412Y522870D01*
X660486Y522936D01*
X660508Y522966D01*
X660530Y522988D01*
X660538Y522995D01*
X660545Y523003D01*
X660671Y523158D01*
X660789Y523314D01*
X660893Y523462D01*
X660974Y523610D01*
X661048Y523735D01*
X661078Y523787D01*
X661100Y523832D01*
X661122Y523869D01*
X661130Y523898D01*
X661145Y523913D01*
Y523920D01*
X661751D01*
X661707Y523809D01*
D02*
G37*
G36*
X663764Y528360D02*
X663875Y528338D01*
X664082Y528272D01*
X664260Y528190D01*
X664334Y528146D01*
X664408Y528101D01*
X664475Y528057D01*
X664526Y528013D01*
X664578Y527976D01*
X664615Y527939D01*
X664645Y527916D01*
X664667Y527894D01*
X664682Y527879D01*
X664689Y527872D01*
X664756Y527783D01*
X664822Y527694D01*
X664874Y527606D01*
X664919Y527509D01*
X664993Y527324D01*
X665037Y527147D01*
X665052Y527065D01*
X665067Y526991D01*
X665074Y526925D01*
X665081Y526866D01*
X665089Y526821D01*
Y526784D01*
Y526762D01*
Y526755D01*
X665081Y526614D01*
X665067Y526488D01*
X665044Y526362D01*
X665015Y526244D01*
X664978Y526133D01*
X664941Y526037D01*
X664896Y525941D01*
X664852Y525859D01*
X664815Y525778D01*
X664771Y525711D01*
X664734Y525652D01*
X664697Y525608D01*
X664667Y525571D01*
X664645Y525541D01*
X664630Y525526D01*
X664623Y525519D01*
X664534Y525430D01*
X664438Y525356D01*
X664341Y525289D01*
X664245Y525230D01*
X664156Y525186D01*
X664060Y525141D01*
X663883Y525082D01*
X663801Y525067D01*
X663727Y525053D01*
X663661Y525038D01*
X663601Y525030D01*
X663557Y525023D01*
X663490D01*
X663313Y525030D01*
X663150Y525060D01*
X663009Y525104D01*
X662891Y525149D01*
X662795Y525193D01*
X662721Y525238D01*
X662676Y525267D01*
X662662Y525275D01*
X662551Y525378D01*
X662454Y525489D01*
X662380Y525608D01*
X662321Y525726D01*
X662277Y525830D01*
X662247Y525911D01*
X662240Y525941D01*
X662232Y525963D01*
X662225Y525978D01*
Y525985D01*
X662158Y525859D01*
X662092Y525756D01*
X662018Y525667D01*
X661951Y525593D01*
X661892Y525534D01*
X661840Y525489D01*
X661811Y525467D01*
X661796Y525460D01*
X661692Y525400D01*
X661589Y525356D01*
X661485Y525319D01*
X661389Y525297D01*
X661307Y525282D01*
X661248Y525275D01*
X661189D01*
X661063Y525282D01*
X660937Y525304D01*
X660826Y525334D01*
X660730Y525371D01*
X660649Y525408D01*
X660582Y525437D01*
X660545Y525460D01*
X660530Y525467D01*
X660419Y525541D01*
X660323Y525630D01*
X660242Y525719D01*
X660168Y525807D01*
X660116Y525881D01*
X660072Y525948D01*
X660049Y525992D01*
X660042Y526000D01*
Y526007D01*
X659983Y526140D01*
X659938Y526274D01*
X659901Y526407D01*
X659879Y526525D01*
X659864Y526621D01*
X659857Y526703D01*
Y526732D01*
Y526755D01*
Y526769D01*
Y526777D01*
Y526888D01*
X659872Y526991D01*
X659909Y527191D01*
X659968Y527361D01*
X660027Y527509D01*
X660064Y527576D01*
X660094Y527628D01*
X660123Y527680D01*
X660153Y527717D01*
X660175Y527746D01*
X660190Y527768D01*
X660197Y527783D01*
X660205Y527791D01*
X660345Y527931D01*
X660501Y528042D01*
X660664Y528131D01*
X660826Y528205D01*
X660967Y528249D01*
X661026Y528272D01*
X661078Y528286D01*
X661122Y528294D01*
X661152Y528301D01*
X661174Y528309D01*
X661182D01*
X661293Y527680D01*
X661130Y527650D01*
X660989Y527606D01*
X660871Y527554D01*
X660775Y527502D01*
X660701Y527450D01*
X660649Y527406D01*
X660612Y527376D01*
X660604Y527369D01*
X660530Y527273D01*
X660471Y527169D01*
X660434Y527073D01*
X660405Y526977D01*
X660390Y526888D01*
X660375Y526821D01*
Y526777D01*
Y526769D01*
Y526762D01*
X660382Y526629D01*
X660412Y526510D01*
X660449Y526407D01*
X660486Y526318D01*
X660530Y526251D01*
X660567Y526200D01*
X660597Y526163D01*
X660604Y526155D01*
X660693Y526074D01*
X660789Y526015D01*
X660886Y525978D01*
X660974Y525948D01*
X661056Y525933D01*
X661115Y525918D01*
X661256D01*
X661330Y525933D01*
X661455Y525970D01*
X661566Y526022D01*
X661663Y526081D01*
X661729Y526140D01*
X661781Y526192D01*
X661811Y526229D01*
X661818Y526237D01*
Y526244D01*
X661885Y526370D01*
X661936Y526488D01*
X661973Y526614D01*
X661996Y526725D01*
X662010Y526821D01*
X662025Y526903D01*
Y526932D01*
Y526954D01*
Y526962D01*
Y526969D01*
Y526999D01*
X662018Y527028D01*
Y527058D01*
Y527065D01*
X662573Y527139D01*
X662551Y527043D01*
X662536Y526954D01*
X662521Y526880D01*
X662514Y526814D01*
X662506Y526762D01*
Y526725D01*
Y526703D01*
Y526695D01*
X662521Y526540D01*
X662551Y526399D01*
X662595Y526274D01*
X662647Y526170D01*
X662699Y526089D01*
X662743Y526029D01*
X662773Y525992D01*
X662787Y525978D01*
X662898Y525881D01*
X663017Y525807D01*
X663135Y525756D01*
X663254Y525726D01*
X663350Y525704D01*
X663431Y525696D01*
X663461Y525689D01*
X663505D01*
X663668Y525704D01*
X663816Y525741D01*
X663942Y525785D01*
X664053Y525844D01*
X664142Y525904D01*
X664208Y525948D01*
X664253Y525985D01*
X664267Y526000D01*
X664371Y526118D01*
X664445Y526244D01*
X664497Y526370D01*
X664534Y526488D01*
X664556Y526592D01*
X664563Y526673D01*
X664571Y526703D01*
Y526725D01*
Y526740D01*
Y526747D01*
X664563Y526880D01*
X664534Y527006D01*
X664497Y527117D01*
X664452Y527206D01*
X664415Y527280D01*
X664378Y527339D01*
X664349Y527369D01*
X664341Y527384D01*
X664238Y527472D01*
X664119Y527546D01*
X663994Y527613D01*
X663860Y527665D01*
X663749Y527702D01*
X663698Y527717D01*
X663653Y527724D01*
X663616Y527731D01*
X663587Y527739D01*
X663572Y527746D01*
X663564D01*
X663646Y528375D01*
X663764Y528360D01*
D02*
G37*
G36*
X660486Y531195D02*
X665000D01*
Y530514D01*
X660486D01*
Y528827D01*
X659879D01*
Y532882D01*
X660486D01*
Y531195D01*
D02*
G37*
G36*
X661707Y519828D02*
X661655Y519717D01*
X661603Y519606D01*
X661552Y519503D01*
X661507Y519414D01*
X661470Y519340D01*
X661441Y519295D01*
X661433Y519288D01*
Y519281D01*
X661352Y519147D01*
X661270Y519029D01*
X661196Y518925D01*
X661130Y518844D01*
X661078Y518770D01*
X661034Y518726D01*
X661004Y518689D01*
X660997Y518681D01*
X665000D01*
Y518052D01*
X659857D01*
Y518459D01*
X659983Y518533D01*
X660101Y518615D01*
X660220Y518711D01*
X660323Y518800D01*
X660412Y518888D01*
X660486Y518955D01*
X660508Y518985D01*
X660530Y519007D01*
X660538Y519014D01*
X660545Y519022D01*
X660671Y519177D01*
X660789Y519332D01*
X660893Y519480D01*
X660974Y519628D01*
X661048Y519754D01*
X661078Y519806D01*
X661100Y519850D01*
X661122Y519887D01*
X661130Y519917D01*
X661145Y519932D01*
Y519939D01*
X661751D01*
X661707Y519828D01*
D02*
G37*
G36*
X665000Y514337D02*
X664993Y514167D01*
X664985Y514012D01*
X664970Y513871D01*
X664956Y513753D01*
X664941Y513649D01*
X664933Y513575D01*
X664926Y513553D01*
X664919Y513531D01*
Y513523D01*
Y513516D01*
X664882Y513383D01*
X664837Y513264D01*
X664800Y513161D01*
X664756Y513072D01*
X664719Y512998D01*
X664689Y512946D01*
X664667Y512917D01*
X664660Y512902D01*
X664593Y512806D01*
X664512Y512724D01*
X664438Y512643D01*
X664364Y512576D01*
X664297Y512517D01*
X664245Y512473D01*
X664208Y512443D01*
X664193Y512436D01*
X664075Y512362D01*
X663949Y512288D01*
X663831Y512228D01*
X663712Y512184D01*
X663609Y512140D01*
X663527Y512110D01*
X663498Y512103D01*
X663476Y512095D01*
X663461Y512088D01*
X663453D01*
X663276Y512043D01*
X663098Y512006D01*
X662928Y511984D01*
X662765Y511962D01*
X662625Y511955D01*
X662565D01*
X662514Y511947D01*
X662417D01*
X662166Y511955D01*
X661936Y511977D01*
X661729Y512014D01*
X661633Y512029D01*
X661552Y512051D01*
X661470Y512073D01*
X661404Y512088D01*
X661344Y512103D01*
X661293Y512125D01*
X661248Y512132D01*
X661219Y512147D01*
X661204Y512154D01*
X661196D01*
X661004Y512236D01*
X660834Y512332D01*
X660686Y512436D01*
X660560Y512532D01*
X660456Y512621D01*
X660382Y512695D01*
X660360Y512724D01*
X660338Y512746D01*
X660331Y512754D01*
X660323Y512761D01*
X660227Y512880D01*
X660153Y513005D01*
X660086Y513131D01*
X660035Y513250D01*
X659998Y513353D01*
X659975Y513435D01*
X659961Y513464D01*
Y513486D01*
X659953Y513501D01*
Y513509D01*
X659931Y513634D01*
X659909Y513782D01*
X659894Y513930D01*
X659887Y514078D01*
X659879Y514212D01*
Y514271D01*
Y514323D01*
Y514360D01*
Y514389D01*
Y514411D01*
Y514419D01*
Y516180D01*
X665000D01*
Y514337D01*
D02*
G37*
%LPC*%
G36*
X662595Y554401D02*
X662477D01*
X662247Y554394D01*
X662040Y554386D01*
X661848Y554371D01*
X661670Y554349D01*
X661515Y554327D01*
X661374Y554297D01*
X661248Y554268D01*
X661137Y554238D01*
X661041Y554209D01*
X660960Y554186D01*
X660893Y554157D01*
X660834Y554135D01*
X660797Y554112D01*
X660767Y554098D01*
X660752Y554083D01*
X660745D01*
X660678Y554031D01*
X660619Y553979D01*
X660575Y553920D01*
X660530Y553861D01*
X660464Y553742D01*
X660419Y553631D01*
X660397Y553535D01*
X660382Y553454D01*
X660375Y553424D01*
Y553402D01*
Y553387D01*
Y553380D01*
X660382Y553298D01*
X660390Y553217D01*
X660412Y553143D01*
X660442Y553076D01*
X660508Y552951D01*
X660582Y552840D01*
X660664Y552758D01*
X660730Y552692D01*
X660760Y552669D01*
X660782Y552655D01*
X660789Y552640D01*
X660797D01*
X660886Y552588D01*
X660989Y552544D01*
X661108Y552499D01*
X661233Y552470D01*
X661367Y552440D01*
X661507Y552418D01*
X661788Y552381D01*
X661929Y552366D01*
X662055Y552359D01*
X662173Y552351D01*
X662269D01*
X662358Y552344D01*
X662706D01*
X662913Y552359D01*
X663098Y552373D01*
X663276Y552388D01*
X663424Y552410D01*
X663564Y552440D01*
X663683Y552470D01*
X663794Y552492D01*
X663883Y552521D01*
X663957Y552551D01*
X664023Y552573D01*
X664075Y552603D01*
X664112Y552618D01*
X664134Y552632D01*
X664149Y552647D01*
X664156D01*
X664230Y552706D01*
X664290Y552766D01*
X664349Y552825D01*
X664393Y552884D01*
X664467Y553010D01*
X664519Y553121D01*
X664549Y553224D01*
X664563Y553298D01*
X664571Y553328D01*
Y553350D01*
Y553365D01*
Y553372D01*
X664563Y553454D01*
X664556Y553528D01*
X664504Y553668D01*
X664438Y553794D01*
X664364Y553905D01*
X664290Y553987D01*
X664223Y554053D01*
X664171Y554090D01*
X664164Y554105D01*
X664156D01*
X664068Y554157D01*
X663964Y554201D01*
X663846Y554246D01*
X663720Y554275D01*
X663587Y554305D01*
X663446Y554327D01*
X663157Y554364D01*
X663024Y554379D01*
X662898Y554386D01*
X662780Y554394D01*
X662684D01*
X662595Y554401D01*
D02*
G37*
G36*
Y491930D02*
X662477D01*
X662247Y491923D01*
X662040Y491915D01*
X661848Y491901D01*
X661670Y491878D01*
X661515Y491856D01*
X661374Y491827D01*
X661248Y491797D01*
X661137Y491767D01*
X661041Y491738D01*
X660960Y491716D01*
X660893Y491686D01*
X660834Y491664D01*
X660797Y491642D01*
X660767Y491627D01*
X660752Y491612D01*
X660745D01*
X660678Y491560D01*
X660619Y491508D01*
X660575Y491449D01*
X660530Y491390D01*
X660464Y491272D01*
X660419Y491161D01*
X660397Y491064D01*
X660382Y490983D01*
X660375Y490953D01*
Y490931D01*
Y490916D01*
Y490909D01*
X660382Y490828D01*
X660390Y490746D01*
X660412Y490672D01*
X660442Y490606D01*
X660508Y490480D01*
X660582Y490369D01*
X660664Y490287D01*
X660730Y490221D01*
X660760Y490199D01*
X660782Y490184D01*
X660789Y490169D01*
X660797D01*
X660886Y490117D01*
X660989Y490073D01*
X661108Y490028D01*
X661233Y489999D01*
X661367Y489969D01*
X661507Y489947D01*
X661788Y489910D01*
X661929Y489895D01*
X662055Y489888D01*
X662173Y489880D01*
X662269D01*
X662358Y489873D01*
X662706D01*
X662913Y489888D01*
X663098Y489903D01*
X663276Y489917D01*
X663424Y489940D01*
X663564Y489969D01*
X663683Y489999D01*
X663794Y490021D01*
X663883Y490051D01*
X663957Y490080D01*
X664023Y490102D01*
X664075Y490132D01*
X664112Y490147D01*
X664134Y490162D01*
X664149Y490176D01*
X664156D01*
X664230Y490236D01*
X664290Y490295D01*
X664349Y490354D01*
X664393Y490413D01*
X664467Y490539D01*
X664519Y490650D01*
X664549Y490754D01*
X664563Y490828D01*
X664571Y490857D01*
Y490879D01*
Y490894D01*
Y490902D01*
X664563Y490983D01*
X664556Y491057D01*
X664504Y491198D01*
X664438Y491323D01*
X664364Y491434D01*
X664290Y491516D01*
X664223Y491582D01*
X664171Y491619D01*
X664164Y491634D01*
X664156D01*
X664068Y491686D01*
X663964Y491730D01*
X663846Y491775D01*
X663720Y491804D01*
X663587Y491834D01*
X663446Y491856D01*
X663157Y491893D01*
X663024Y491908D01*
X662898Y491915D01*
X662780Y491923D01*
X662684D01*
X662595Y491930D01*
D02*
G37*
G36*
X664393Y515499D02*
X660486D01*
Y514426D01*
Y514315D01*
X660493Y514219D01*
Y514123D01*
X660501Y514034D01*
X660523Y513886D01*
X660538Y513768D01*
X660560Y513671D01*
X660582Y513605D01*
X660590Y513568D01*
X660597Y513553D01*
X660664Y513420D01*
X660745Y513294D01*
X660841Y513183D01*
X660937Y513087D01*
X661026Y513013D01*
X661100Y512954D01*
X661130Y512939D01*
X661152Y512924D01*
X661167Y512909D01*
X661174D01*
X661256Y512865D01*
X661352Y512820D01*
X661544Y512754D01*
X661751Y512709D01*
X661951Y512672D01*
X662040Y512665D01*
X662129Y512658D01*
X662203Y512650D01*
X662269D01*
X662329Y512643D01*
X662403D01*
X662610Y512650D01*
X662802Y512665D01*
X662972Y512687D01*
X663120Y512709D01*
X663180Y512724D01*
X663231Y512739D01*
X663283Y512754D01*
X663320Y512761D01*
X663350Y512769D01*
X663372Y512776D01*
X663387Y512783D01*
X663394D01*
X663535Y512835D01*
X663661Y512894D01*
X663772Y512961D01*
X663868Y513020D01*
X663942Y513072D01*
X663994Y513116D01*
X664023Y513146D01*
X664038Y513153D01*
X664097Y513227D01*
X664149Y513301D01*
X664193Y513375D01*
X664238Y513449D01*
X664267Y513516D01*
X664290Y513568D01*
X664297Y513605D01*
X664304Y513620D01*
X664334Y513731D01*
X664356Y513864D01*
X664371Y513997D01*
X664378Y514123D01*
X664386Y514234D01*
X664393Y514286D01*
Y514330D01*
Y514360D01*
Y514389D01*
Y514404D01*
Y514411D01*
Y515499D01*
D02*
G37*
G36*
X684000Y581500D02*
X682750D01*
X680500Y579250D01*
Y576000D01*
X684000D01*
Y581500D01*
D02*
G37*
G36*
X774000Y584000D02*
X770750D01*
Y579625D01*
X772875Y577500D01*
X774000D01*
Y584000D01*
D02*
G37*
G36*
X779250D02*
X776000D01*
Y577500D01*
X777125D01*
X779250Y579625D01*
Y584000D01*
D02*
G37*
G36*
X749500Y579000D02*
X746000D01*
Y573500D01*
X747250D01*
X749500Y575750D01*
Y579000D01*
D02*
G37*
G36*
Y564000D02*
X746000D01*
Y558500D01*
X747250D01*
X749500Y560750D01*
Y564000D01*
D02*
G37*
G36*
X747250Y571500D02*
X746000D01*
Y566000D01*
X749500D01*
Y569250D01*
X747250Y571500D01*
D02*
G37*
G36*
X684000Y574000D02*
X680500D01*
Y570750D01*
X682750Y568500D01*
X684000D01*
Y574000D01*
D02*
G37*
G36*
X832250Y591500D02*
X831000D01*
Y586000D01*
X834500D01*
Y589250D01*
X832250Y591500D01*
D02*
G37*
G36*
X749500Y594000D02*
X746000D01*
Y588500D01*
X747250D01*
X749500Y590750D01*
Y594000D01*
D02*
G37*
G36*
X747250Y601500D02*
X746000D01*
Y596000D01*
X749500D01*
Y599250D01*
X747250Y601500D01*
D02*
G37*
G36*
X777125Y592500D02*
X776000D01*
Y586000D01*
X779250D01*
Y590375D01*
X777125Y592500D01*
D02*
G37*
G36*
X834500Y584000D02*
X831000D01*
Y578500D01*
X832250D01*
X834500Y580750D01*
Y584000D01*
D02*
G37*
G36*
X747250Y586500D02*
X746000D01*
Y581000D01*
X749500D01*
Y584250D01*
X747250Y586500D01*
D02*
G37*
G36*
X774000Y592500D02*
X772875D01*
X770750Y590375D01*
Y586000D01*
X774000D01*
Y592500D01*
D02*
G37*
G36*
X719750Y474000D02*
X716000D01*
Y470250D01*
X719750D01*
Y474000D01*
D02*
G37*
G36*
Y479750D02*
X716000D01*
Y476000D01*
X719750D01*
Y479750D01*
D02*
G37*
G36*
X739000Y481500D02*
X737750D01*
X735500Y479250D01*
Y476000D01*
X739000D01*
Y481500D01*
D02*
G37*
G36*
X811484Y477134D02*
X803559D01*
Y469209D01*
X804319Y469283D01*
X806012Y469797D01*
X807572Y470631D01*
X808940Y471753D01*
X810062Y473120D01*
X810896Y474681D01*
X811409Y476373D01*
X811484Y477134D01*
D02*
G37*
G36*
X739000Y474000D02*
X735500D01*
Y470750D01*
X737750Y468500D01*
X739000D01*
Y474000D01*
D02*
G37*
G36*
X764000D02*
X760500D01*
Y470750D01*
X762750Y468500D01*
X764000D01*
Y474000D01*
D02*
G37*
G36*
X801559Y477134D02*
X793634D01*
X793709Y476373D01*
X794222Y474681D01*
X795056Y473120D01*
X796178Y471753D01*
X797546Y470631D01*
X799106Y469797D01*
X800799Y469283D01*
X801559Y469209D01*
Y477134D01*
D02*
G37*
G36*
X726089Y527976D02*
X722339D01*
Y526776D01*
X726089D01*
Y527976D01*
D02*
G37*
G36*
Y531126D02*
X716589D01*
Y529976D01*
X726089D01*
Y531126D01*
D02*
G37*
G36*
X718224Y561089D02*
X717024D01*
Y557339D01*
X718224D01*
Y561089D01*
D02*
G37*
G36*
X811484Y528866D02*
X803559D01*
Y520941D01*
X804319Y521016D01*
X806012Y521529D01*
X807572Y522363D01*
X808940Y523485D01*
X810062Y524853D01*
X810896Y526413D01*
X811409Y528106D01*
X811484Y528866D01*
D02*
G37*
G36*
X764000Y481500D02*
X762750D01*
X760500Y479250D01*
Y476000D01*
X764000D01*
Y481500D01*
D02*
G37*
G36*
X803559Y487059D02*
Y479134D01*
X811484D01*
X811409Y479894D01*
X810896Y481587D01*
X810062Y483147D01*
X808940Y484515D01*
X807572Y485637D01*
X806012Y486471D01*
X804319Y486984D01*
X803559Y487059D01*
D02*
G37*
G36*
X801559Y528866D02*
X793634D01*
X793709Y528106D01*
X794222Y526413D01*
X795056Y524853D01*
X796055Y523635D01*
X795720Y522927D01*
X795189Y522280D01*
X792890D01*
Y518780D01*
X797390D01*
Y520988D01*
X798676Y521759D01*
X799106Y521529D01*
X800799Y521016D01*
X801559Y520941D01*
Y528866D01*
D02*
G37*
%LPD*%
D10*
X688661Y551024D02*
D03*
Y547874D02*
D03*
Y544724D02*
D03*
Y541575D02*
D03*
Y538425D02*
D03*
Y535276D02*
D03*
Y532126D02*
D03*
Y528976D02*
D03*
X721339D02*
D03*
Y532126D02*
D03*
Y535276D02*
D03*
Y538425D02*
D03*
Y541575D02*
D03*
Y544724D02*
D03*
Y547874D02*
D03*
Y551024D02*
D03*
D11*
X693976Y523661D02*
D03*
X697126D02*
D03*
X700276D02*
D03*
X703425D02*
D03*
X706575D02*
D03*
X709724D02*
D03*
X712874D02*
D03*
X716024D02*
D03*
Y556339D02*
D03*
X712874D02*
D03*
X709724D02*
D03*
X706575D02*
D03*
X703425D02*
D03*
X700276D02*
D03*
X697126D02*
D03*
X693976D02*
D03*
D12*
X650000Y460000D02*
Y610000D01*
Y460000D02*
X840000D01*
X728000Y464000D02*
Y484000D01*
Y464000D02*
X830000D01*
X688000D02*
X728000D01*
X722000Y490000D02*
X728000Y484000D01*
X715000Y490000D02*
X722000D01*
X820000Y577000D02*
Y585000D01*
Y577000D02*
X836000Y561000D01*
Y470000D02*
Y561000D01*
X830000Y464000D02*
X836000Y470000D01*
X685000Y467000D02*
X688000Y464000D01*
X685000Y467000D02*
Y475000D01*
X795000Y585000D02*
X820000D01*
X650000Y610000D02*
X840000D01*
Y460000D02*
Y610000D01*
D13*
X695000Y575000D02*
Y595000D01*
X715000D02*
X735000D01*
X695000Y593000D02*
X703425Y584575D01*
X695000Y593000D02*
Y595000D01*
X785000Y555000D02*
X820000D01*
X780000D02*
X785000D01*
Y585000D01*
X775000Y550000D02*
X780000Y555000D01*
X775000Y535000D02*
Y550000D01*
X735000D02*
Y565000D01*
X732874Y547874D02*
X735000Y550000D01*
X721339Y547874D02*
X732874D01*
X721339Y541575D02*
X730425D01*
X735000Y537000D01*
X783000Y510000D02*
Y520000D01*
Y510000D02*
X785063Y507937D01*
X775000Y520000D02*
X783000D01*
Y536000D01*
X790000Y543000D01*
Y545000D01*
X775000Y518000D02*
Y520000D01*
X785063Y507937D02*
X791890D01*
X735000Y518000D02*
Y520000D01*
X729000Y512000D02*
X735000Y518000D01*
X720000Y512000D02*
X729000D01*
X716024Y515976D02*
X720000Y512000D01*
X716024Y515976D02*
Y523661D01*
X721000Y505000D02*
X735000D01*
X712874Y513126D02*
X721000Y505000D01*
X712874Y513126D02*
Y523661D01*
X775000Y500126D02*
Y505000D01*
X712874Y556339D02*
Y574874D01*
X718000Y580000D01*
X735000D01*
X703425Y556339D02*
Y584575D01*
X715000Y593000D02*
Y595000D01*
X706575Y584575D02*
X715000Y593000D01*
X706575Y556339D02*
Y584575D01*
X750000Y485000D02*
X765063Y500063D01*
X791890D01*
X775000Y490000D02*
X791669D01*
X775000Y475000D02*
Y489331D01*
X712874Y550874D02*
Y556339D01*
X710500Y548500D02*
X712874Y550874D01*
X702500Y548500D02*
X710500D01*
X716524Y551024D02*
X721339D01*
X712000Y546500D02*
X716524Y551024D01*
X712000Y538425D02*
Y546500D01*
X700276Y550724D02*
X702500Y548500D01*
X700276Y550724D02*
Y556339D01*
X750000Y475000D02*
Y485000D01*
X712000Y538425D02*
X721339D01*
X688661D02*
X712000D01*
X697126Y538551D02*
Y556339D01*
X700276Y523661D02*
Y538201D01*
X721339Y538425D02*
X721413Y538500D01*
X695000Y475000D02*
Y504000D01*
X705000Y475000D02*
Y504000D01*
X697126Y511874D02*
X705000Y504000D01*
X693976Y505024D02*
X695000Y504000D01*
X693976Y505024D02*
Y523661D01*
X697126Y511874D02*
Y523661D01*
X721339Y535276D02*
X734724D01*
X735000Y535000D02*
Y537000D01*
X700276Y515724D02*
Y523661D01*
Y515724D02*
X720000Y496000D01*
X743000D01*
X756000Y509000D01*
Y528000D01*
X763000Y535000D01*
X775000D01*
D14*
X812500Y560500D02*
Y564500D01*
X810500Y562500D02*
X814500D01*
X813000Y591000D02*
Y595000D01*
X811000Y593000D02*
X815000D01*
D15*
X687500Y557500D02*
D03*
D16*
X685000Y575000D02*
D03*
X695000D02*
D03*
X775000Y490000D02*
D03*
X715000D02*
D03*
X745000Y595000D02*
D03*
X735000D02*
D03*
Y565000D02*
D03*
X745000D02*
D03*
Y580000D02*
D03*
X735000D02*
D03*
X830000Y555000D02*
D03*
X820000D02*
D03*
X830000Y585000D02*
D03*
X820000D02*
D03*
X715000Y595000D02*
D03*
X695000D02*
D03*
X775000Y550000D02*
D03*
X735000D02*
D03*
Y520000D02*
D03*
X775000D02*
D03*
X735000Y535000D02*
D03*
X775000D02*
D03*
X740000Y475000D02*
D03*
X750000D02*
D03*
X775000D02*
D03*
X765000D02*
D03*
X735000Y505000D02*
D03*
X775000D02*
D03*
X800000Y545000D02*
D03*
X790000D02*
D03*
D17*
X685000Y475000D02*
D03*
X695000D02*
D03*
X705000D02*
D03*
X715000D02*
D03*
D18*
X795000Y585000D02*
D03*
X785000D02*
D03*
X775000D02*
D03*
D19*
X791890Y507937D02*
D03*
X791890Y517779D02*
D03*
X791890Y500063D02*
D03*
Y490220D02*
D03*
D20*
X802559Y478134D02*
D03*
Y529866D02*
D03*
M02*
