%FSLAX25Y25*%
%MOIN*%
G70*
G01*
G75*
G04 Layer_Color=65535*
%ADD10R,0.06500X0.01400*%
%ADD11R,0.01400X0.06500*%
%ADD12C,0.02000*%
%ADD13C,0.01400*%
%ADD14C,0.01000*%
%ADD15R,0.03000X0.03000*%
G04:AMPARAMS|DCode=16|XSize=60mil|YSize=100mil|CornerRadius=0mil|HoleSize=0mil|Usage=FLASHONLY|Rotation=0.000|XOffset=0mil|YOffset=0mil|HoleType=Round|Shape=Octagon|*
%AMOCTAGOND16*
4,1,8,-0.01500,0.05000,0.01500,0.05000,0.03000,0.03500,0.03000,-0.03500,0.01500,-0.05000,-0.01500,-0.05000,-0.03000,-0.03500,-0.03000,0.03500,-0.01500,0.05000,0.0*
%
%ADD16OCTAGOND16*%

%ADD17R,0.06500X0.06500*%
G04:AMPARAMS|DCode=18|XSize=55mil|YSize=120mil|CornerRadius=0mil|HoleSize=0mil|Usage=FLASHONLY|Rotation=0.000|XOffset=0mil|YOffset=0mil|HoleType=Round|Shape=Octagon|*
%AMOCTAGOND18*
4,1,8,-0.01375,0.06000,0.01375,0.06000,0.02750,0.04625,0.02750,-0.04625,0.01375,-0.06000,-0.01375,-0.06000,-0.02750,-0.04625,-0.02750,0.04625,-0.01375,0.06000,0.0*
%
%ADD18OCTAGOND18*%

%ADD19R,0.08000X0.06000*%
%ADD20C,0.14961*%
%ADD21C,0.00787*%
%ADD22C,0.00984*%
%ADD23C,0.00591*%
D13*
X805000Y595000D02*
Y597000D01*
X765000D02*
X805000D01*
X765000Y595000D02*
Y597000D01*
Y593000D02*
X805000D01*
Y577000D02*
Y595000D01*
X765000Y577000D02*
X805000D01*
X765000D02*
Y595000D01*
X708000D02*
X715000D01*
X695000D02*
X702000D01*
X708000Y593000D02*
Y598000D01*
X702000Y593000D02*
Y598000D01*
X704000Y599000D02*
X706000D01*
Y591000D02*
Y599000D01*
X704000Y591000D02*
X706000D01*
X704000D02*
Y599000D01*
X691000Y587384D02*
X720000D01*
X691000Y602616D02*
X720000D01*
X691000Y588834D02*
X720000D01*
X691000Y601000D02*
X719662D01*
X767000Y550000D02*
X771000D01*
X739000D02*
X743000D01*
Y546000D02*
X767000D01*
Y554000D01*
X743000D02*
X767000D01*
X743000Y546000D02*
Y554000D01*
X845000Y529846D02*
Y532543D01*
X843740D02*
X845000D01*
X843740Y529846D02*
Y532543D01*
X845000Y478154D02*
Y529846D01*
X789882Y478154D02*
X793504D01*
X811614D02*
X845000D01*
X789882Y529846D02*
X793504D01*
X811614D02*
X845000D01*
X789882Y522071D02*
Y529846D01*
Y512228D02*
Y513488D01*
Y494945D02*
Y495772D01*
Y478154D02*
Y485496D01*
X845000Y475457D02*
Y478154D01*
X843740Y475457D02*
X845000D01*
X843740D02*
Y478154D01*
X739000Y520000D02*
X743000D01*
X767000D02*
X771000D01*
X743000Y524000D02*
X767000D01*
X743000Y516000D02*
Y524000D01*
Y516000D02*
X767000D01*
Y524000D01*
X739000Y535000D02*
X743000D01*
X767000D02*
X771000D01*
X743000Y539000D02*
X767000D01*
X743000Y531000D02*
Y539000D01*
Y531000D02*
X767000D01*
Y539000D01*
X739000Y505000D02*
X743000D01*
X767000D02*
X771000D01*
X743000Y509000D02*
X767000D01*
X743000Y501000D02*
Y509000D01*
Y501000D02*
X767000D01*
Y509000D01*
D14*
X720000Y587384D02*
G03*
X720000Y602616I0J7616D01*
G01*
X691000D02*
G03*
X691000Y587384I0J-7616D01*
G01*
X720000Y588834D02*
G03*
X720000Y601000I0J6083D01*
G01*
X691000D02*
G03*
X691000Y588834I0J-6083D01*
G01*
X650000Y460000D02*
Y610000D01*
X840000D01*
Y460000D02*
Y610000D01*
X650000Y460000D02*
X840000D01*
X778300Y604865D02*
X779133Y605698D01*
X780799D01*
X781632Y604865D01*
Y604032D01*
X780799Y603199D01*
X779966D01*
X780799D01*
X781632Y602366D01*
Y601533D01*
X780799Y600700D01*
X779133D01*
X778300Y601533D01*
X783298Y605698D02*
Y602366D01*
X784965Y600700D01*
X786631Y602366D01*
Y605698D01*
X788297Y604865D02*
X789130Y605698D01*
X790796D01*
X791629Y604865D01*
Y604032D01*
X790796Y603199D01*
X789963D01*
X790796D01*
X791629Y602366D01*
Y601533D01*
X790796Y600700D01*
X789130D01*
X788297Y601533D01*
X754732Y581665D02*
X753899Y582498D01*
X752233D01*
X751400Y581665D01*
Y578333D01*
X752233Y577500D01*
X753899D01*
X754732Y578333D01*
X756398Y577500D02*
X758065D01*
X757231D01*
Y582498D01*
X756398Y581665D01*
X769132Y465165D02*
X768299Y465998D01*
X766633D01*
X765800Y465165D01*
Y461833D01*
X766633Y461000D01*
X768299D01*
X769132Y461833D01*
X774131Y461000D02*
X770798D01*
X774131Y464332D01*
Y465165D01*
X773298Y465998D01*
X771631D01*
X770798Y465165D01*
X754732Y566665D02*
X753899Y567498D01*
X752233D01*
X751400Y566665D01*
Y563333D01*
X752233Y562500D01*
X753899D01*
X754732Y563333D01*
X756398Y566665D02*
X757231Y567498D01*
X758898D01*
X759731Y566665D01*
Y565832D01*
X758898Y564999D01*
X758065D01*
X758898D01*
X759731Y564166D01*
Y563333D01*
X758898Y562500D01*
X757231D01*
X756398Y563333D01*
X744132Y465165D02*
X743299Y465998D01*
X741633D01*
X740800Y465165D01*
Y461833D01*
X741633Y461000D01*
X743299D01*
X744132Y461833D01*
X748298Y461000D02*
Y465998D01*
X745798Y463499D01*
X749131D01*
X790932Y558165D02*
X790099Y558998D01*
X788433D01*
X787600Y558165D01*
Y554833D01*
X788433Y554000D01*
X790099D01*
X790932Y554833D01*
X795931Y558998D02*
X792598D01*
Y556499D01*
X794265Y557332D01*
X795098D01*
X795931Y556499D01*
Y554833D01*
X795098Y554000D01*
X793431D01*
X792598Y554833D01*
X704732Y576665D02*
X703899Y577498D01*
X702233D01*
X701400Y576665D01*
Y573333D01*
X702233Y572500D01*
X703899D01*
X704732Y573333D01*
X709731Y577498D02*
X708065Y576665D01*
X706398Y574999D01*
Y573333D01*
X707231Y572500D01*
X708898D01*
X709731Y573333D01*
Y574166D01*
X708898Y574999D01*
X706398D01*
X754732Y596665D02*
X753899Y597498D01*
X752233D01*
X751400Y596665D01*
Y593333D01*
X752233Y592500D01*
X753899D01*
X754732Y593333D01*
X756398Y597498D02*
X759731D01*
Y596665D01*
X756398Y593333D01*
Y592500D01*
X811732Y568965D02*
X810899Y569798D01*
X809233D01*
X808400Y568965D01*
Y565633D01*
X809233Y564800D01*
X810899D01*
X811732Y565633D01*
X813398Y568965D02*
X814231Y569798D01*
X815898D01*
X816731Y568965D01*
Y568132D01*
X815898Y567299D01*
X816731Y566466D01*
Y565633D01*
X815898Y564800D01*
X814231D01*
X813398Y565633D01*
Y566466D01*
X814231Y567299D01*
X813398Y568132D01*
Y568965D01*
X814231Y567299D02*
X815898D01*
X811732Y538965D02*
X810899Y539798D01*
X809233D01*
X808400Y538965D01*
Y535633D01*
X809233Y534800D01*
X810899D01*
X811732Y535633D01*
X813398D02*
X814231Y534800D01*
X815898D01*
X816731Y535633D01*
Y538965D01*
X815898Y539798D01*
X814231D01*
X813398Y538965D01*
Y538132D01*
X814231Y537299D01*
X816731D01*
X695032Y516998D02*
X691700D01*
Y514499D01*
X693366D01*
X691700D01*
Y512000D01*
X696698Y516998D02*
X700031D01*
X698364D01*
Y512000D01*
X701697Y516165D02*
X702530Y516998D01*
X704196D01*
X705029Y516165D01*
Y515332D01*
X704196Y514499D01*
X703363D01*
X704196D01*
X705029Y513666D01*
Y512833D01*
X704196Y512000D01*
X702530D01*
X701697Y512833D01*
X706695Y512000D02*
X708361D01*
X707528D01*
Y516998D01*
X706695Y516165D01*
X710860Y512000D02*
X712527D01*
X711693D01*
Y516998D01*
X710860Y516165D01*
X715026Y516998D02*
Y512000D01*
X717525D01*
X718358Y512833D01*
Y516165D01*
X717525Y516998D01*
X715026D01*
X680300Y483700D02*
Y488698D01*
X682799D01*
X683632Y487865D01*
Y486199D01*
X682799Y485366D01*
X680300D01*
X685298Y483700D02*
X686965D01*
X686131D01*
Y488698D01*
X685298Y487865D01*
X751700Y547500D02*
Y552498D01*
X754199D01*
X755032Y551665D01*
Y549999D01*
X754199Y549166D01*
X751700D01*
X753366D02*
X755032Y547500D01*
X756698D02*
X758364D01*
X757531D01*
Y552498D01*
X756698Y551665D01*
X740800Y487500D02*
Y492498D01*
X743299D01*
X744132Y491665D01*
Y489999D01*
X743299Y489166D01*
X740800D01*
X742466D02*
X744132Y487500D01*
X749131D02*
X745798D01*
X749131Y490832D01*
Y491665D01*
X748298Y492498D01*
X746631D01*
X745798Y491665D01*
X750800Y502500D02*
Y507498D01*
X753299D01*
X754132Y506665D01*
Y504999D01*
X753299Y504166D01*
X750800D01*
X752466D02*
X754132Y502500D01*
X755798Y506665D02*
X756631Y507498D01*
X758298D01*
X759131Y506665D01*
Y505832D01*
X758298Y504999D01*
X757465D01*
X758298D01*
X759131Y504166D01*
Y503333D01*
X758298Y502500D01*
X756631D01*
X755798Y503333D01*
X750800Y532500D02*
Y537498D01*
X753299D01*
X754132Y536665D01*
Y534999D01*
X753299Y534166D01*
X750800D01*
X752466D02*
X754132Y532500D01*
X758298D02*
Y537498D01*
X755798Y534999D01*
X759131D01*
X750800Y517500D02*
Y522498D01*
X753299D01*
X754132Y521665D01*
Y519999D01*
X753299Y519166D01*
X750800D01*
X752466D02*
X754132Y517500D01*
X759131Y522498D02*
X755798D01*
Y519999D01*
X757465Y520832D01*
X758298D01*
X759131Y519999D01*
Y518333D01*
X758298Y517500D01*
X756631D01*
X755798Y518333D01*
X809000Y506498D02*
Y502333D01*
X809833Y501500D01*
X811499D01*
X812332Y502333D01*
Y506498D01*
X817331Y505665D02*
X816498Y506498D01*
X814831D01*
X813998Y505665D01*
Y504832D01*
X814831Y503999D01*
X816498D01*
X817331Y503166D01*
Y502333D01*
X816498Y501500D01*
X814831D01*
X813998Y502333D01*
X818997Y506498D02*
Y501500D01*
X821496D01*
X822329Y502333D01*
Y503166D01*
X821496Y503999D01*
X818997D01*
X821496D01*
X822329Y504832D01*
Y505665D01*
X821496Y506498D01*
X818997D01*
D21*
X683000Y573000D02*
G03*
X696341Y573098I6640J4232D01*
G01*
X696500Y576500D02*
G03*
X682943Y576969I-6917J-3763D01*
G01*
X747000Y597000D02*
G03*
X733659Y596902I-6640J-4232D01*
G01*
X733500Y593500D02*
G03*
X747056Y593031I6917J3763D01*
G01*
X733000Y563000D02*
G03*
X746341Y563098I6640J4232D01*
G01*
X746500Y566500D02*
G03*
X732943Y566969I-6917J-3763D01*
G01*
X747000Y582000D02*
G03*
X733659Y581902I-6640J-4232D01*
G01*
X733500Y578500D02*
G03*
X747056Y578031I6917J3763D01*
G01*
X836937Y555000D02*
G03*
X836937Y555000I-11811J0D01*
G01*
Y585000D02*
G03*
X836937Y585000I-11811J0D01*
G01*
X738000Y473000D02*
G03*
X751341Y473098I6640J4232D01*
G01*
X751500Y476500D02*
G03*
X737944Y476969I-6917J-3763D01*
G01*
X777000Y477000D02*
G03*
X763659Y476902I-6640J-4232D01*
G01*
X763500Y473500D02*
G03*
X777057Y473031I6917J3763D01*
G01*
X802000Y547000D02*
G03*
X788659Y546902I-6640J-4232D01*
G01*
X788500Y543500D02*
G03*
X802057Y543031I6917J3763D01*
G01*
X721000Y490000D02*
X725000D01*
X765000D02*
X769000D01*
X765000Y485000D02*
Y495000D01*
X725000D02*
X765000D01*
X725000Y485000D02*
Y495000D01*
Y485000D02*
X765000D01*
D22*
X787067Y490220D02*
G03*
X787067Y490220I-492J0D01*
G01*
D23*
X808000Y554499D02*
X811332D01*
X809666Y556165D02*
Y552833D01*
X808000Y584499D02*
X811332D01*
X809666Y586165D02*
Y582833D01*
M02*
