%FSLAX25Y25*%
%MOIN*%
G70*
G01*
G75*
G04 Layer_Physical_Order=2*
G04 Layer_Color=16711680*
%ADD10C,0.02000*%
%ADD11C,0.01000*%
%ADD12P,0.07577X8X202.5*%
G04:AMPARAMS|DCode=13|XSize=60mil|YSize=100mil|CornerRadius=0mil|HoleSize=0mil|Usage=FLASHONLY|Rotation=270.000|XOffset=0mil|YOffset=0mil|HoleType=Round|Shape=Octagon|*
%AMOCTAGOND13*
4,1,8,0.05000,0.01500,0.05000,-0.01500,0.03500,-0.03000,-0.03500,-0.03000,-0.05000,-0.01500,-0.05000,0.01500,-0.03500,0.03000,0.03500,0.03000,0.05000,0.01500,0.0*
%
%ADD13OCTAGOND13*%

%ADD14P,0.07577X8X292.5*%
G04:AMPARAMS|DCode=15|XSize=100mil|YSize=60mil|CornerRadius=0mil|HoleSize=0mil|Usage=FLASHONLY|Rotation=180.000|XOffset=0mil|YOffset=0mil|HoleType=Round|Shape=Octagon|*
%AMOCTAGOND15*
4,1,8,-0.05000,0.01500,-0.05000,-0.01500,-0.03500,-0.03000,0.03500,-0.03000,0.05000,-0.01500,0.05000,0.01500,0.03500,0.03000,-0.03500,0.03000,-0.05000,0.01500,0.0*
%
%ADD15OCTAGOND15*%

%ADD16C,0.19000*%
G36*
X945000Y383000D02*
X936002D01*
Y283030D01*
X945000D01*
Y255000D01*
X815000D01*
Y535000D01*
X945000D01*
Y383000D01*
D02*
G37*
%LPC*%
G36*
X854000Y275157D02*
X850500D01*
X848000Y272657D01*
Y271158D01*
X854000D01*
Y275157D01*
D02*
G37*
G36*
X862000Y269158D02*
X856000D01*
Y265158D01*
X859500D01*
X862000Y267657D01*
Y269158D01*
D02*
G37*
G36*
X854000D02*
X848000D01*
Y267657D01*
X850500Y265158D01*
X854000D01*
Y269158D01*
D02*
G37*
G36*
X824000Y368843D02*
X818000D01*
Y367342D01*
X820500Y364843D01*
X824000D01*
Y368843D01*
D02*
G37*
G36*
X830000Y281536D02*
X828195Y281394D01*
X826435Y280971D01*
X824763Y280278D01*
X823391Y279437D01*
X830000Y272828D01*
X836609Y279437D01*
X835237Y280278D01*
X833565Y280971D01*
X831805Y281394D01*
X830000Y281536D01*
D02*
G37*
G36*
X859500Y275157D02*
X856000D01*
Y271158D01*
X862000D01*
Y272657D01*
X859500Y275157D01*
D02*
G37*
G36*
X820562Y276609D02*
X819722Y275237D01*
X819029Y273565D01*
X818606Y271805D01*
X818464Y270000D01*
X818606Y268195D01*
X819029Y266435D01*
X819722Y264763D01*
X820562Y263391D01*
X827172Y270000D01*
X820562Y276609D01*
D02*
G37*
G36*
X930000Y267172D02*
X923391Y260562D01*
X924763Y259722D01*
X926435Y259029D01*
X928195Y258607D01*
X930000Y258464D01*
X931805Y258607D01*
X933565Y259029D01*
X935237Y259722D01*
X936609Y260562D01*
X930000Y267172D01*
D02*
G37*
G36*
X830000D02*
X823391Y260562D01*
X824763Y259722D01*
X826435Y259029D01*
X828195Y258607D01*
X830000Y258464D01*
X831805Y258607D01*
X833565Y259029D01*
X835237Y259722D01*
X836609Y260562D01*
X830000Y267172D01*
D02*
G37*
G36*
X879000Y269000D02*
X874500D01*
Y267250D01*
X877250Y264500D01*
X879000D01*
Y269000D01*
D02*
G37*
G36*
X939437Y276609D02*
X932828Y270000D01*
X939437Y263391D01*
X940278Y264763D01*
X940971Y266435D01*
X941393Y268195D01*
X941536Y270000D01*
X941393Y271805D01*
X940971Y273565D01*
X940278Y275237D01*
X939437Y276609D01*
D02*
G37*
G36*
X839437D02*
X832828Y270000D01*
X839437Y263391D01*
X840278Y264763D01*
X840971Y266435D01*
X841393Y268195D01*
X841536Y270000D01*
X841393Y271805D01*
X840971Y273565D01*
X840278Y275237D01*
X839437Y276609D01*
D02*
G37*
G36*
X824000Y374843D02*
X820500D01*
X818000Y372342D01*
Y370843D01*
X824000D01*
Y374843D01*
D02*
G37*
G36*
X920562Y526609D02*
X919722Y525237D01*
X919029Y523565D01*
X918606Y521805D01*
X918464Y520000D01*
X918606Y518195D01*
X919029Y516435D01*
X919722Y514763D01*
X920562Y513391D01*
X927172Y520000D01*
X920562Y526609D01*
D02*
G37*
G36*
X839437D02*
X832828Y520000D01*
X839437Y513391D01*
X840278Y514763D01*
X840971Y516435D01*
X841393Y518195D01*
X841536Y520000D01*
X841393Y521805D01*
X840971Y523565D01*
X840278Y525237D01*
X839437Y526609D01*
D02*
G37*
G36*
X820562D02*
X819722Y525237D01*
X819029Y523565D01*
X818606Y521805D01*
X818464Y520000D01*
X818606Y518195D01*
X819029Y516435D01*
X819722Y514763D01*
X820562Y513391D01*
X827172Y520000D01*
X820562Y526609D01*
D02*
G37*
G36*
X939437D02*
X932828Y520000D01*
X939437Y513391D01*
X940278Y514763D01*
X940971Y516435D01*
X941393Y518195D01*
X941536Y520000D01*
X941393Y521805D01*
X940971Y523565D01*
X940278Y525237D01*
X939437Y526609D01*
D02*
G37*
G36*
X897750Y530500D02*
X892250D01*
X890000Y528250D01*
X887750Y530500D01*
X882250D01*
X880000Y528250D01*
X877750Y530500D01*
X876000D01*
Y524999D01*
Y519500D01*
X877750D01*
X879080Y520830D01*
X880530Y520444D01*
X881974Y515098D01*
Y465000D01*
X882077Y464217D01*
X882291Y463701D01*
X882380Y463487D01*
X882860Y462860D01*
X902860Y442860D01*
X903000Y442753D01*
Y442500D01*
X905500Y440000D01*
X903000Y437500D01*
Y432500D01*
X905500Y430000D01*
X903000Y427500D01*
Y422500D01*
X905500Y420000D01*
X903000Y417500D01*
Y416000D01*
X910001D01*
Y414000D01*
X903000D01*
Y412500D01*
X904749Y410751D01*
X904333Y409310D01*
X898662Y408026D01*
X871253D01*
X868026Y411253D01*
Y415000D01*
X868026Y415000D01*
X868026Y415000D01*
Y415000D01*
Y515098D01*
X869470Y520444D01*
X870920Y520830D01*
X872250Y519500D01*
X874000D01*
Y524999D01*
Y530500D01*
X872250D01*
X870000Y528250D01*
X867750Y530500D01*
X862250D01*
X859500Y527750D01*
Y524697D01*
X859496Y524665D01*
X859500Y524634D01*
Y522250D01*
X860242Y521508D01*
X861974Y515098D01*
Y419083D01*
X860802Y418147D01*
X855050Y419450D01*
X854500Y420000D01*
X857000Y422500D01*
Y427500D01*
X854500Y430000D01*
X857000Y432500D01*
Y437500D01*
X854500Y440000D01*
X857000Y442500D01*
Y447500D01*
X854500Y450000D01*
X857000Y452500D01*
Y457500D01*
X854500Y460000D01*
X857000Y462500D01*
Y467500D01*
X854500Y470000D01*
X857000Y472500D01*
Y477500D01*
X854500Y480000D01*
X857000Y482500D01*
Y487500D01*
X854500Y490000D01*
X857000Y492500D01*
Y497500D01*
X854500Y500000D01*
X857000Y502500D01*
Y507500D01*
X854500Y510000D01*
X845500D01*
X845000Y509500D01*
X844500Y510000D01*
X838166D01*
X837647Y511407D01*
X836781Y510667D01*
X836609Y510562D01*
X830000Y517172D01*
X823391Y510563D01*
X824763Y509722D01*
X826435Y509029D01*
X828195Y508606D01*
X830000Y508464D01*
X831805Y508606D01*
X831876Y508624D01*
X833000Y507500D01*
X833000D01*
X833000Y507500D01*
Y502500D01*
X835500Y500000D01*
X833000Y497500D01*
Y492500D01*
X835500Y490000D01*
X833000Y487500D01*
Y482500D01*
X835500Y480000D01*
X833000Y477500D01*
Y472500D01*
X834750Y470750D01*
Y469250D01*
X833000Y467500D01*
X833000D01*
D01*
X832000D01*
X829500Y470000D01*
X826000D01*
Y464999D01*
X825001D01*
Y464000D01*
X818000D01*
Y462500D01*
X820500Y460000D01*
X818000Y457500D01*
Y452500D01*
X820500Y450000D01*
X820992D01*
X821974Y445662D01*
Y424902D01*
X820242Y418492D01*
X819500Y417750D01*
Y415366D01*
X819496Y415335D01*
X819500Y415303D01*
Y412250D01*
X821750Y410000D01*
X819500Y407750D01*
Y406000D01*
X830500D01*
Y407750D01*
X829243Y409007D01*
X829851Y410379D01*
X833748Y410188D01*
X834288Y408788D01*
X833000Y407500D01*
Y406000D01*
X840001D01*
Y404000D01*
X833000D01*
Y402500D01*
X835500Y400000D01*
X833000Y397500D01*
Y392500D01*
X835500Y390000D01*
X833000Y387500D01*
Y382500D01*
X835500Y380000D01*
X833000Y377500D01*
Y373302D01*
X832909Y373265D01*
X832909Y373265D01*
X831614Y372728D01*
X829500Y374843D01*
X826000D01*
Y369842D01*
Y364843D01*
X829500D01*
X831614Y366957D01*
X833000Y366383D01*
Y362500D01*
X835500Y360000D01*
X833000Y357500D01*
Y353617D01*
X831614Y353043D01*
X829500Y355157D01*
X820500D01*
X818000Y352658D01*
Y347657D01*
X820500Y345158D01*
X820992D01*
X821974Y340819D01*
Y339338D01*
X820992Y335000D01*
X820500D01*
X818000Y332500D01*
Y327500D01*
X820500Y325000D01*
X820992D01*
X821974Y320662D01*
Y310000D01*
X822077Y309217D01*
X822291Y308701D01*
X822379Y308487D01*
X822860Y307860D01*
X832860Y297860D01*
X832860Y297860D01*
X833215Y297588D01*
X833487Y297379D01*
X833789Y297254D01*
X834217Y297077D01*
X835000Y296974D01*
X860098D01*
X866508Y295242D01*
X867250Y294500D01*
Y294500D01*
D01*
Y294019D01*
X866086Y293073D01*
X860004Y294338D01*
X859500Y294843D01*
X857181D01*
X857016Y294855D01*
X856952Y294843D01*
X853058D01*
X852996Y294854D01*
X852828Y294843D01*
X850500D01*
X850004Y294346D01*
X843562Y293026D01*
X836338D01*
X830050Y294450D01*
X829500Y295000D01*
X827226D01*
X827104Y295011D01*
X827039Y295000D01*
X820500D01*
X818000Y292500D01*
Y287500D01*
X820500Y285000D01*
X827039D01*
X827104Y284989D01*
X827226Y285000D01*
X829500D01*
X830050Y285550D01*
X836338Y286974D01*
X843509D01*
X849913Y285429D01*
X850500Y284842D01*
X852740D01*
X852823Y284834D01*
X852879Y284842D01*
X857135D01*
X857191Y284834D01*
X857270Y284842D01*
X859500D01*
X860097Y285439D01*
X866366Y286974D01*
X874949D01*
X875861Y285783D01*
X875242Y283492D01*
X874500Y282750D01*
Y280366D01*
X874496Y280335D01*
X874500Y280303D01*
Y277250D01*
X876750Y275000D01*
X874500Y272750D01*
Y271000D01*
X880001D01*
Y270001D01*
X881000D01*
Y264500D01*
X882750D01*
X885000Y266750D01*
X886284Y265466D01*
X887352Y263535D01*
X887369Y263513D01*
X887379Y263487D01*
X887396Y263465D01*
X887407Y263439D01*
X887620Y263173D01*
X887822Y262900D01*
X887843Y262882D01*
X887860Y262860D01*
X892860Y257860D01*
X893487Y257380D01*
X893852Y257228D01*
X894217Y257077D01*
X894308Y257065D01*
X895000Y256974D01*
X895000Y256974D01*
X902000D01*
X902783Y257077D01*
X903299Y257291D01*
X903513Y257380D01*
X904140Y257860D01*
X917119Y270840D01*
X918481Y270212D01*
X918464Y270000D01*
X918606Y268195D01*
X919029Y266435D01*
X919722Y264763D01*
X920562Y263391D01*
X928585Y271413D01*
D01*
X928586Y271414D01*
X928586Y271415D01*
D01*
X936609Y279437D01*
X935237Y280278D01*
X933565Y280971D01*
X931805Y281394D01*
X930000Y281536D01*
X928195Y281394D01*
X926435Y280971D01*
X924763Y280278D01*
X924335Y280016D01*
X923026Y280749D01*
Y298747D01*
X932140Y307860D01*
X932140Y307860D01*
X932348Y308133D01*
X932621Y308487D01*
X932923Y309217D01*
X933026Y310000D01*
X933026Y310000D01*
Y360000D01*
X933026Y360000D01*
X933023Y360022D01*
X933026Y360044D01*
X932990Y360288D01*
X932978Y360534D01*
X932956Y360606D01*
X932948Y360680D01*
X932930Y360730D01*
X932923Y360783D01*
X932914Y360804D01*
X932911Y360825D01*
X932814Y361052D01*
X932739Y361287D01*
X932698Y361350D01*
X932672Y361420D01*
X932641Y361464D01*
X932621Y361513D01*
X932607Y361530D01*
X932598Y361550D01*
X932446Y361744D01*
X932312Y361952D01*
X932257Y362002D01*
X932213Y362064D01*
X932172Y362097D01*
X932140Y362140D01*
X927140Y367140D01*
X927000Y367247D01*
Y367500D01*
X924500Y370000D01*
X927000Y372500D01*
Y377500D01*
X924500Y380000D01*
X927000Y382500D01*
Y386540D01*
X927147Y386601D01*
Y386601D01*
X928386Y387114D01*
X930500Y385000D01*
X934000D01*
Y390001D01*
X934999D01*
Y391000D01*
X942000D01*
Y392500D01*
X939500Y395000D01*
X942000Y397500D01*
Y402500D01*
X939500Y405000D01*
X939008D01*
X938026Y409338D01*
Y410662D01*
X939008Y415000D01*
X939500D01*
X942000Y417500D01*
Y422500D01*
X939500Y425000D01*
X934779D01*
X931916Y427342D01*
X931792Y427419D01*
X931683Y427515D01*
X931608Y427552D01*
X931542Y427603D01*
X931526Y427610D01*
X931513Y427621D01*
X931497Y427627D01*
X931484Y427637D01*
X931476Y427640D01*
X931469Y427646D01*
X931352Y427692D01*
X931244Y427758D01*
X931105Y427800D01*
X930974Y427865D01*
X930892Y427881D01*
X930816Y427914D01*
X930799Y427916D01*
X930783Y427923D01*
X930766Y427925D01*
X930750Y427931D01*
X925129Y429371D01*
X924500Y430000D01*
X925129Y430629D01*
X930750Y432069D01*
X930766Y432075D01*
X930783Y432077D01*
X930799Y432084D01*
X930816Y432086D01*
X930892Y432119D01*
X930974Y432135D01*
X931105Y432200D01*
X931244Y432242D01*
X931352Y432308D01*
X931469Y432354D01*
X931476Y432360D01*
X931484Y432363D01*
X931497Y432373D01*
X931513Y432379D01*
X931526Y432390D01*
X931542Y432397D01*
X931608Y432448D01*
X931683Y432485D01*
X931792Y432581D01*
X931916Y432658D01*
X934779Y435000D01*
X939500D01*
X942000Y437500D01*
Y442500D01*
X939500Y445000D01*
X939008D01*
X938026Y449338D01*
Y450662D01*
X939008Y455000D01*
X939500D01*
X942000Y457500D01*
Y462500D01*
X939500Y465000D01*
X942000Y467500D01*
Y469000D01*
X934999D01*
Y469999D01*
X934000D01*
Y475000D01*
X930500D01*
X928386Y472886D01*
X927147Y473399D01*
Y473399D01*
X927000Y473460D01*
Y477500D01*
X924500Y480000D01*
X927000Y482500D01*
Y487500D01*
X924500Y490000D01*
X927000Y492500D01*
Y497500D01*
X924500Y500000D01*
X927000Y502500D01*
Y507500D01*
X927000Y507500D01*
X927000D01*
X928124Y508624D01*
X928195Y508606D01*
X930000Y508464D01*
X931805Y508606D01*
X933565Y509029D01*
X935237Y509722D01*
X936609Y510563D01*
X930000Y517172D01*
X923391Y510562D01*
X923219Y510667D01*
X922353Y511407D01*
X921834Y510000D01*
X915500D01*
X915000Y509500D01*
X914500Y510000D01*
X905500D01*
X903000Y507500D01*
Y502500D01*
X905500Y500000D01*
X903000Y497500D01*
Y492500D01*
X905500Y490000D01*
X903000Y487500D01*
Y482500D01*
X905500Y480000D01*
X903000Y477500D01*
Y472500D01*
X905500Y470000D01*
X903000Y467500D01*
Y464120D01*
X901741Y463304D01*
X900353Y463927D01*
X898026Y466253D01*
Y515098D01*
X899758Y521508D01*
X900500Y522250D01*
Y524634D01*
X900504Y524665D01*
X900500Y524697D01*
Y527750D01*
X897750Y530500D01*
D02*
G37*
G36*
X930000Y531536D02*
X928195Y531393D01*
X926435Y530971D01*
X924763Y530278D01*
X923391Y529437D01*
X930000Y522828D01*
X936609Y529437D01*
X935237Y530278D01*
X933565Y530971D01*
X931805Y531393D01*
X930000Y531536D01*
D02*
G37*
G36*
X830000D02*
X828195Y531393D01*
X826435Y530971D01*
X824763Y530278D01*
X823391Y529437D01*
X830000Y522828D01*
X836609Y529437D01*
X835237Y530278D01*
X833565Y530971D01*
X831805Y531393D01*
X830000Y531536D01*
D02*
G37*
G36*
X830500Y404000D02*
X826000D01*
Y399500D01*
X827750D01*
X830500Y402250D01*
Y404000D01*
D02*
G37*
G36*
X824000D02*
X819500D01*
Y402250D01*
X822250Y399500D01*
X824000D01*
Y404000D01*
D02*
G37*
G36*
X942000Y389000D02*
X936000D01*
Y385000D01*
X939500D01*
X942000Y387500D01*
Y389000D01*
D02*
G37*
G36*
X939500Y475000D02*
X936000D01*
Y471000D01*
X942000D01*
Y472500D01*
X939500Y475000D01*
D02*
G37*
G36*
X824000Y470000D02*
X820500D01*
X818000Y467500D01*
Y466000D01*
X824000D01*
Y470000D01*
D02*
G37*
%LPD*%
G36*
X930500Y415000D02*
X930992D01*
X931974Y410662D01*
Y409338D01*
X930992Y405000D01*
X930500D01*
X928386Y402886D01*
X927000Y403460D01*
Y407500D01*
X924500Y410000D01*
X927000Y412500D01*
Y414000D01*
X919999D01*
Y416000D01*
X927000D01*
Y416540D01*
X928386Y417114D01*
X930500Y415000D01*
D02*
G37*
G36*
X861974Y410917D02*
Y410000D01*
X862077Y409217D01*
X862291Y408701D01*
X862379Y408487D01*
X862860Y407860D01*
X866974Y403747D01*
Y309902D01*
X865511Y304489D01*
X860098Y303026D01*
X836253D01*
X828026Y311253D01*
Y320662D01*
X829008Y325000D01*
X829500D01*
X831614Y327114D01*
X833000Y326540D01*
Y322500D01*
X835500Y320000D01*
X833000Y317500D01*
Y312500D01*
X835500Y310000D01*
X844500D01*
X845000Y310500D01*
X845500Y310000D01*
X854500D01*
X857000Y312500D01*
Y317500D01*
X854500Y320000D01*
X857000Y322500D01*
Y327500D01*
X854500Y330000D01*
X857000Y332500D01*
Y337500D01*
X854500Y340000D01*
X857000Y342500D01*
Y347500D01*
X854500Y350000D01*
X857000Y352500D01*
Y357500D01*
X854500Y360000D01*
X857000Y362500D01*
Y367500D01*
X854500Y370000D01*
X857000Y372500D01*
Y377500D01*
X854500Y380000D01*
X857000Y382500D01*
Y387500D01*
X854500Y390000D01*
X857000Y392500D01*
Y397500D01*
X854500Y400000D01*
X857000Y402500D01*
Y404000D01*
X849999D01*
Y406000D01*
X857000D01*
Y407500D01*
X854500Y410000D01*
X855050Y410550D01*
X860802Y411853D01*
X861974Y410917D01*
D02*
G37*
D10*
X825000Y341158D02*
Y350157D01*
X823012Y349935D02*
X825000Y341158D01*
X826988Y349935D01*
X912000Y365000D02*
X918000D01*
X912333Y363028D02*
X918000Y365000D01*
X912333Y366972D02*
X918000Y365000D01*
X912000D02*
X917750Y366984D01*
X912954Y363242D02*
X917750Y366984D01*
X911667Y366972D02*
X917750Y366984D01*
X912000Y365000D02*
X917750Y363016D01*
X911667Y363028D02*
X917750Y363016D01*
X912954Y366758D02*
X917750Y363016D01*
X912000Y365000D02*
X920000D01*
X912250Y363016D02*
X920000Y365000D01*
X912250Y366984D02*
X920000Y365000D01*
X900000Y370000D02*
X908000Y375000D01*
X900000Y370000D02*
X906766Y376574D01*
X900000Y370000D02*
X908874Y373201D01*
X898521Y378521D02*
X908000Y385000D01*
X898521Y378521D02*
X906732Y386547D01*
X898521Y378521D02*
X908980Y383257D01*
X898416Y388416D02*
X908000Y395000D01*
X898416Y388416D02*
X906730Y396545D01*
X898416Y388416D02*
X908986Y393260D01*
X899000Y405000D02*
X908000D01*
X899000D02*
X907778Y406988D01*
X899000Y405000D02*
X907778Y403012D01*
X912000Y425000D02*
X917750Y423016D01*
X911667Y423028D02*
X917750Y423016D01*
X912954Y426758D02*
X917750Y423016D01*
X912000Y425000D02*
X918000D01*
X912333Y423028D02*
X918000Y425000D01*
X912333Y426972D02*
X918000Y425000D01*
X912000D02*
X917750Y426984D01*
X912954Y423242D02*
X917750Y426984D01*
X911667Y426972D02*
X917750Y426984D01*
X912000Y425000D02*
X920000D01*
X912250Y423016D02*
X920000Y425000D01*
X912250Y426984D02*
X920000Y425000D01*
X912000Y435000D02*
X918000D01*
X912333Y433028D02*
X918000Y435000D01*
X912333Y436972D02*
X918000Y435000D01*
X912000D02*
X917750Y436984D01*
X912954Y433242D02*
X917750Y436984D01*
X911667Y436972D02*
X917750Y436984D01*
X912000Y435000D02*
X917750Y433016D01*
X911667Y433028D02*
X917750Y433016D01*
X912954Y436758D02*
X917750Y433016D01*
X912000Y435000D02*
X920000D01*
X912250Y433016D02*
X920000Y435000D01*
X912250Y436984D02*
X920000Y435000D01*
X898459Y451541D02*
X908000Y445000D01*
X898459Y451541D02*
X908984Y446741D01*
X898459Y451541D02*
X906731Y443454D01*
X898607Y461393D02*
X908000Y455000D01*
X898607Y461393D02*
X908975Y456746D01*
X898607Y461393D02*
X906734Y453452D01*
X842000Y415000D02*
X848000D01*
X842000D02*
X847667Y416972D01*
X842000Y415000D02*
X847667Y413028D01*
X842250Y413016D02*
X848000Y415000D01*
X842250Y413016D02*
X847046Y416758D01*
X842250Y413016D02*
X848333Y413028D01*
X842250Y416984D02*
X848000Y415000D01*
X842250Y416984D02*
X848333Y416972D01*
X842250Y416984D02*
X847046Y413242D01*
X840000Y415000D02*
X848000D01*
X840000D02*
X847750Y416984D01*
X840000Y415000D02*
X847750Y413016D01*
X852000Y415000D02*
X861000D01*
X852222Y413012D02*
X861000Y415000D01*
X852222Y416988D02*
X861000Y415000D01*
X825000Y446000D02*
Y455000D01*
X823012Y454778D02*
X825000Y446000D01*
X826988Y454778D01*
X930000Y425000D02*
X933000Y420000D01*
X930000Y425000D02*
X934513Y421308D01*
X930000Y425000D02*
X931134Y419280D01*
X935000Y411000D02*
Y420000D01*
X933012Y419778D02*
X935000Y411000D01*
X936988Y419778D01*
X930000Y435000D02*
X933000Y440000D01*
X930000Y435000D02*
X931134Y440720D01*
X930000Y435000D02*
X934513Y438692D01*
X935000Y449000D02*
X936988Y440222D01*
X933012D02*
X935000Y449000D01*
X825000Y321000D02*
X825000Y330000D01*
X823012Y329778D02*
X825000Y321000D01*
X826988Y329778D01*
X825000Y339000D02*
X825000Y330000D01*
X825000Y339000D02*
X826988Y330222D01*
X823012D02*
X825000Y339000D01*
X827000Y290000D02*
X836000D01*
X827222Y288012D02*
X836000Y290000D01*
X827222Y291988D02*
X836000Y290000D01*
X843869D02*
X853000Y289843D01*
X843869Y290000D02*
X852815Y291834D01*
X843869Y290000D02*
X852747Y287859D01*
X857000Y289843D02*
X866001Y290000D01*
X857257Y287859D02*
X866001Y290000D01*
X857187Y291834D02*
X866001Y290000D01*
X922000Y435000D02*
X930000D01*
X922250Y433016D02*
X930000Y435000D01*
X922250Y436984D02*
X930000Y435000D01*
X910000D02*
X918000D01*
X910000D02*
X917750Y436984D01*
X910000Y435000D02*
X917750Y433016D01*
X922000Y425000D02*
X930000D01*
X922250Y423016D02*
X930000Y425000D01*
X922250Y426984D02*
X930000Y425000D01*
X910000D02*
X918000D01*
X910000D02*
X917750Y426984D01*
X910000Y425000D02*
X917750Y423016D01*
X922000Y365000D02*
X930000Y360000D01*
X921126Y363201D02*
X930000Y360000D01*
X923234Y366574D02*
X930000Y360000D01*
X910000Y365000D02*
X918000D01*
X910000D02*
X917750Y366984D01*
X910000Y365000D02*
X917750Y363016D01*
X829000Y415000D02*
X838000D01*
X829000D02*
X837778Y416988D01*
X829000Y415000D02*
X837778Y413012D01*
X842000Y415000D02*
X850000D01*
X842250Y413016D02*
X850000Y415000D01*
X842250Y416984D02*
X850000Y415000D01*
X828799Y413459D02*
X838000Y415000D01*
X828799Y413459D02*
X837460Y416926D01*
X828799Y413459D02*
X838117Y413003D01*
X834500Y415000D02*
X838000D01*
X834500D02*
X837429Y416917D01*
X834500Y415000D02*
X837429Y413083D01*
X828799Y416540D02*
X838000Y415000D01*
X828799Y416540D02*
X838117Y416997D01*
X828799Y416540D02*
X837460Y413074D01*
X834500Y415000D02*
X838000D01*
X834500D02*
X837429Y416917D01*
X834500Y415000D02*
X837429Y413083D01*
X825329Y412522D02*
X834500Y415000D01*
X825329Y417478D02*
X834500Y415000D01*
X825000Y424500D02*
X827478Y415329D01*
X822522D02*
X825000Y424500D01*
X860500Y300000D02*
X870000D01*
X860500D02*
X869671Y302478D01*
X860500Y300000D02*
X869671Y297522D01*
X870000Y309500D02*
X872478Y300329D01*
X867522D02*
X870000Y309500D01*
X910000Y290500D02*
Y300000D01*
X907522Y299671D02*
X910000Y290500D01*
X912478Y299671D01*
X935000Y409000D02*
X936988Y400222D01*
X933012D02*
X935000Y409000D01*
Y451000D02*
Y460000D01*
X933012Y459778D02*
X935000Y451000D01*
X936988Y459778D01*
X895000Y515500D02*
Y525000D01*
X892522Y524671D02*
X895000Y515500D01*
X897478Y524671D01*
X885000Y515500D02*
Y525000D01*
X882522Y524671D02*
X885000Y515500D01*
X887478Y524671D01*
X865000Y515500D02*
Y525000D01*
X862522Y524671D02*
X865000Y515500D01*
X867478Y524671D01*
X880000Y289500D02*
X882478Y280329D01*
X877522D02*
X880000Y289500D01*
X890000Y265000D02*
Y270000D01*
X887579Y269375D02*
X890000Y265000D01*
X892421Y269375D01*
X890000Y289500D02*
X892478Y280329D01*
X887522D02*
X890000Y289500D01*
X900625Y267579D02*
X905000Y270000D01*
X900625Y272421D02*
X905000Y270000D01*
X900000Y289500D02*
X902478Y280329D01*
X897522D02*
X900000Y289500D01*
X825000Y310000D02*
Y350157D01*
X865000Y410000D02*
Y415000D01*
Y410000D02*
X870000Y405000D01*
X910000D01*
X870000Y300000D02*
Y405000D01*
X920000Y365000D02*
X925000D01*
X930000Y360000D01*
Y310000D02*
Y360000D01*
X920000Y300000D02*
X930000Y310000D01*
X935000Y440000D02*
Y460000D01*
X930000Y435000D02*
X935000Y440000D01*
X920000Y435000D02*
X930000D01*
X910000D02*
X920000D01*
X935000Y400000D02*
Y420000D01*
X930000Y425000D02*
X935000Y420000D01*
X920000Y425000D02*
X930000D01*
X910000D02*
X920000D01*
Y278000D02*
Y300000D01*
X902000Y260000D02*
X920000Y278000D01*
X910000Y365000D02*
X920000D01*
X835000Y300000D02*
X870000D01*
X825000Y310000D02*
X835000Y300000D01*
X840000Y415000D02*
X850000D01*
X825000D02*
X840000D01*
X825000D02*
Y455000D01*
X895000Y260000D02*
X902000D01*
X910000Y275000D02*
Y300000D01*
X905000Y270000D02*
X910000Y275000D01*
X900000Y270000D02*
X905000D01*
X890000Y265000D02*
X895000Y260000D01*
X890000Y265000D02*
Y270000D01*
X850000Y415000D02*
X865000D01*
Y525000D01*
X850000Y290000D02*
X880000D01*
Y370000D01*
Y280000D02*
Y290000D01*
X825000D02*
X850000D01*
X890000Y280000D02*
Y370000D01*
X900000Y280000D02*
Y370000D01*
X905000Y445000D02*
X910000D01*
X885000Y465000D02*
X905000Y445000D01*
X885000Y465000D02*
Y525000D01*
X895000Y465000D02*
Y525000D01*
Y465000D02*
X905000Y455000D01*
X910000D01*
X905000Y395000D02*
X910000D01*
X880000Y370000D02*
X905000Y395000D01*
Y385000D02*
X910000D01*
X890000Y370000D02*
X905000Y385000D01*
Y375000D02*
X910000D01*
X900000Y370000D02*
X905000Y375000D01*
D11*
X945000Y380000D02*
X941001D01*
X939002Y378001D01*
X941001Y376001D01*
X945000D01*
X942001D01*
Y380000D01*
X939002Y374002D02*
Y370003D01*
Y372003D01*
X945000D01*
Y368004D02*
X941001D01*
Y367004D01*
X942001Y366004D01*
X945000D01*
X942001D01*
X941001Y365005D01*
X942001Y364005D01*
X945000D01*
Y359007D02*
Y361006D01*
X944000Y362006D01*
X942001D01*
X941001Y361006D01*
Y359007D01*
X942001Y358007D01*
X943001D01*
Y362006D01*
X946999Y354008D02*
Y353009D01*
X946000Y352009D01*
X941001D01*
Y355008D01*
X942001Y356008D01*
X944000D01*
X945000Y355008D01*
Y352009D01*
X941001Y349010D02*
Y347011D01*
X942001Y346011D01*
X945000D01*
Y349010D01*
X944000Y350010D01*
X943001Y349010D01*
Y346011D01*
X940002Y344012D02*
X939002Y343012D01*
Y341013D01*
X940002Y340013D01*
X941001D01*
X942001Y341013D01*
Y342012D01*
Y341013D01*
X943001Y340013D01*
X944000D01*
X945000Y341013D01*
Y343012D01*
X944000Y344012D01*
X945000Y334015D02*
Y338014D01*
X941001Y334015D01*
X940002D01*
X939002Y335015D01*
Y337014D01*
X940002Y338014D01*
X939002Y326017D02*
X945000D01*
X942001D01*
X941001Y325018D01*
Y323018D01*
X942001Y322019D01*
X945000D01*
Y317020D02*
Y319020D01*
X944000Y320019D01*
X942001D01*
X941001Y319020D01*
Y317020D01*
X942001Y316021D01*
X943001D01*
Y320019D01*
X941001Y313022D02*
Y311022D01*
X942001Y310023D01*
X945000D01*
Y313022D01*
X944000Y314021D01*
X943001Y313022D01*
Y310023D01*
X939002Y304025D02*
X945000D01*
Y307024D01*
X944000Y308023D01*
X942001D01*
X941001Y307024D01*
Y304025D01*
X945000Y299026D02*
Y301026D01*
X944000Y302025D01*
X942001D01*
X941001Y301026D01*
Y299026D01*
X942001Y298026D01*
X943001D01*
Y302025D01*
X941001Y296027D02*
X945000D01*
X943001D01*
X942001Y295027D01*
X941001Y294028D01*
Y293028D01*
X945000Y290029D02*
Y287030D01*
X944000Y286030D01*
X943001Y287030D01*
Y289029D01*
X942001Y290029D01*
X941001Y289029D01*
Y286030D01*
D12*
X900000Y280000D02*
D03*
Y270000D02*
D03*
X890000Y280000D02*
D03*
Y270000D02*
D03*
X880000Y280000D02*
D03*
Y270000D02*
D03*
X865000Y525000D02*
D03*
X875000D02*
D03*
X885000D02*
D03*
X895000D02*
D03*
X910000Y300000D02*
D03*
X870000D02*
D03*
D13*
X935000Y460000D02*
D03*
Y470000D02*
D03*
Y400000D02*
D03*
Y390000D02*
D03*
X855000Y270158D02*
D03*
X855000Y289843D02*
D03*
X825000Y290000D02*
D03*
Y330000D02*
D03*
X935000Y440000D02*
D03*
Y420000D02*
D03*
X825000Y465000D02*
D03*
Y455000D02*
D03*
X825000Y369843D02*
D03*
X825000Y350157D02*
D03*
D14*
X825000Y415000D02*
D03*
Y405000D02*
D03*
D15*
X840000Y315000D02*
D03*
Y325000D02*
D03*
Y335000D02*
D03*
Y345000D02*
D03*
Y355000D02*
D03*
Y365000D02*
D03*
Y375000D02*
D03*
Y385000D02*
D03*
Y395000D02*
D03*
Y405000D02*
D03*
Y415000D02*
D03*
Y425000D02*
D03*
Y435000D02*
D03*
Y445000D02*
D03*
Y455000D02*
D03*
Y465000D02*
D03*
Y475000D02*
D03*
Y485000D02*
D03*
Y495000D02*
D03*
Y505000D02*
D03*
X920000Y315000D02*
D03*
Y325000D02*
D03*
Y335000D02*
D03*
Y345000D02*
D03*
Y355000D02*
D03*
Y365000D02*
D03*
Y375000D02*
D03*
Y385000D02*
D03*
Y395000D02*
D03*
Y405000D02*
D03*
Y415000D02*
D03*
Y425000D02*
D03*
Y435000D02*
D03*
Y445000D02*
D03*
Y455000D02*
D03*
Y465000D02*
D03*
Y475000D02*
D03*
Y485000D02*
D03*
Y495000D02*
D03*
Y505000D02*
D03*
X850000D02*
D03*
Y495000D02*
D03*
Y485000D02*
D03*
Y475000D02*
D03*
Y465000D02*
D03*
Y455000D02*
D03*
Y445000D02*
D03*
Y435000D02*
D03*
Y425000D02*
D03*
Y415000D02*
D03*
Y405000D02*
D03*
Y395000D02*
D03*
Y385000D02*
D03*
Y375000D02*
D03*
Y365000D02*
D03*
Y355000D02*
D03*
Y345000D02*
D03*
Y335000D02*
D03*
Y325000D02*
D03*
Y315000D02*
D03*
X910000Y505000D02*
D03*
Y495000D02*
D03*
Y485000D02*
D03*
Y475000D02*
D03*
Y465000D02*
D03*
Y455000D02*
D03*
Y445000D02*
D03*
Y435000D02*
D03*
Y425000D02*
D03*
Y415000D02*
D03*
Y405000D02*
D03*
Y395000D02*
D03*
Y385000D02*
D03*
Y375000D02*
D03*
Y365000D02*
D03*
Y355000D02*
D03*
Y345000D02*
D03*
Y335000D02*
D03*
Y325000D02*
D03*
Y315000D02*
D03*
D16*
X830000Y520000D02*
D03*
Y270000D02*
D03*
X930000D02*
D03*
Y520000D02*
D03*
M02*
