%FSLAX25Y25*%
%MOIN*%
G70*
G01*
G75*
G04 Layer_Color=65535*
%ADD10C,0.02000*%
%ADD11C,0.01000*%
%ADD12P,0.07577X8X202.5*%
G04:AMPARAMS|DCode=13|XSize=60mil|YSize=100mil|CornerRadius=0mil|HoleSize=0mil|Usage=FLASHONLY|Rotation=270.000|XOffset=0mil|YOffset=0mil|HoleType=Round|Shape=Octagon|*
%AMOCTAGOND13*
4,1,8,0.05000,0.01500,0.05000,-0.01500,0.03500,-0.03000,-0.03500,-0.03000,-0.05000,-0.01500,-0.05000,0.01500,-0.03500,0.03000,0.03500,0.03000,0.05000,0.01500,0.0*
%
%ADD13OCTAGOND13*%

%ADD14P,0.07577X8X292.5*%
G04:AMPARAMS|DCode=15|XSize=100mil|YSize=60mil|CornerRadius=0mil|HoleSize=0mil|Usage=FLASHONLY|Rotation=180.000|XOffset=0mil|YOffset=0mil|HoleType=Round|Shape=Octagon|*
%AMOCTAGOND15*
4,1,8,-0.05000,0.01500,-0.05000,-0.01500,-0.03500,-0.03000,0.03500,-0.03000,0.05000,-0.01500,0.05000,0.01500,0.03500,0.03000,-0.03500,0.03000,-0.05000,0.01500,0.0*
%
%ADD15OCTAGOND15*%

%ADD16C,0.19000*%
%ADD17C,0.00787*%
%ADD18C,0.00800*%
%ADD19C,0.00591*%
D10*
X870000Y300000D02*
X910000D01*
D11*
X942616Y445000D02*
G03*
X927384Y445000I-7616J0D01*
G01*
Y416000D02*
G03*
X942616Y416000I7616J0D01*
G01*
X941166Y445000D02*
G03*
X929000Y445000I-6083J0D01*
G01*
Y416000D02*
G03*
X941166Y416000I6083J0D01*
G01*
X835000Y310000D02*
Y510000D01*
X845000D01*
Y310000D02*
Y510000D01*
X835000Y310000D02*
X845000D01*
X915000D02*
Y510000D01*
Y310000D02*
X925000D01*
Y510000D01*
X915000D02*
X925000D01*
X935000Y433000D02*
Y440000D01*
Y420000D02*
Y427000D01*
X932000Y433000D02*
X937000D01*
X932000Y427000D02*
X937000D01*
X931000Y429000D02*
Y431000D01*
X939000D01*
Y429000D02*
Y431000D01*
X931000Y429000D02*
X939000D01*
X942616Y416000D02*
Y445000D01*
X927384Y416000D02*
Y445000D01*
X941166Y416000D02*
Y445000D01*
X929000Y416000D02*
Y444662D01*
X815000Y255000D02*
X945000D01*
Y535000D01*
X815000D02*
X945000D01*
X815000Y255000D02*
Y535000D01*
X822002Y380600D02*
X826001D01*
X828000Y382599D01*
X826001Y384599D01*
X822002D01*
X824001Y390597D02*
Y387598D01*
X825001Y386598D01*
X827000D01*
X828000Y387598D01*
Y390597D01*
X824001Y396595D02*
Y393596D01*
X825001Y392596D01*
X827000D01*
X828000Y393596D01*
Y396595D01*
Y305000D02*
X822002D01*
Y307999D01*
X823002Y308999D01*
X825001D01*
X826001Y307999D01*
Y305000D01*
Y306999D02*
X828000Y308999D01*
X822002Y314997D02*
Y310998D01*
X825001D01*
X824001Y312997D01*
Y313997D01*
X825001Y314997D01*
X827000D01*
X828000Y313997D01*
Y311998D01*
X827000Y310998D01*
X913802Y267500D02*
Y269499D01*
Y268500D01*
X919800D01*
Y267500D01*
Y269499D01*
X914802Y276497D02*
X913802Y275497D01*
Y273498D01*
X914802Y272498D01*
X915801D01*
X916801Y273498D01*
Y275497D01*
X917801Y276497D01*
X918800D01*
X919800Y275497D01*
Y273498D01*
X918800Y272498D01*
X919800Y278496D02*
X913802D01*
Y281495D01*
X914802Y282495D01*
X916801D01*
X917801Y281495D01*
Y278496D01*
X873500Y412998D02*
X875499D01*
X874500D01*
Y407000D01*
X873500D01*
X875499D01*
X882497Y411998D02*
X881497Y412998D01*
X879498D01*
X878498Y411998D01*
Y408000D01*
X879498Y407000D01*
X881497D01*
X882497Y408000D01*
X884496Y407000D02*
X886496D01*
X885496D01*
Y412998D01*
X884496Y411998D01*
X823002Y479299D02*
X822002Y478299D01*
Y476300D01*
X823002Y475300D01*
X827000D01*
X828000Y476300D01*
Y478299D01*
X827000Y479299D01*
X822002Y481298D02*
Y485297D01*
X823002D01*
X827000Y481298D01*
X828000D01*
X933002Y480399D02*
X932002Y479399D01*
Y477400D01*
X933002Y476400D01*
X937000D01*
X938000Y477400D01*
Y479399D01*
X937000Y480399D01*
X932002Y486397D02*
X933002Y484397D01*
X935001Y482398D01*
X937000D01*
X938000Y483398D01*
Y485397D01*
X937000Y486397D01*
X936001D01*
X935001Y485397D01*
Y482398D01*
X853002Y278999D02*
X852002Y277999D01*
Y276000D01*
X853002Y275000D01*
X857000D01*
X858000Y276000D01*
Y277999D01*
X857000Y278999D01*
X852002Y284997D02*
Y280998D01*
X855001D01*
X854001Y282997D01*
Y283997D01*
X855001Y284997D01*
X857000D01*
X858000Y283997D01*
Y281998D01*
X857000Y280998D01*
X823002Y358999D02*
X822002Y357999D01*
Y356000D01*
X823002Y355000D01*
X827000D01*
X828000Y356000D01*
Y357999D01*
X827000Y358999D01*
X828000Y363997D02*
X822002D01*
X825001Y360998D01*
Y364997D01*
X933002Y377599D02*
X932002Y376599D01*
Y374600D01*
X933002Y373600D01*
X937000D01*
X938000Y374600D01*
Y376599D01*
X937000Y377599D01*
X933002Y379598D02*
X932002Y380598D01*
Y382597D01*
X933002Y383597D01*
X934001D01*
X935001Y382597D01*
Y381597D01*
Y382597D01*
X936001Y383597D01*
X937000D01*
X938000Y382597D01*
Y380598D01*
X937000Y379598D01*
D17*
X936500Y458500D02*
G03*
X936969Y472056I-3763J6917D01*
G01*
X933000Y472000D02*
G03*
X933098Y458659I4232J-6640D01*
G01*
X933500Y401500D02*
G03*
X933031Y387944I3763J-6917D01*
G01*
X937000Y388000D02*
G03*
X936902Y401341I-4232J6640D01*
G01*
X859232Y273360D02*
G03*
X858274Y287161I-4232J6640D01*
G01*
X851726D02*
G03*
X850768Y273360I3274J-7161D01*
G01*
X836811Y460126D02*
G03*
X836811Y460126I-11811J0D01*
G01*
X882500Y305669D02*
G03*
X877500Y305669I-2500J0D01*
G01*
X820768Y366640D02*
G03*
X821726Y352839I4232J-6640D01*
G01*
X828274D02*
G03*
X829232Y366640I-3274J7161D01*
G01*
X875000Y265000D02*
Y285000D01*
X905000Y265000D02*
Y285000D01*
X875000Y265000D02*
X905000D01*
X875000Y285000D02*
X905000D01*
X875000D02*
X894167D01*
X900000Y520000D02*
Y530000D01*
X860000Y520000D02*
X900000D01*
X860000Y530000D02*
X900000D01*
X860000Y520000D02*
Y530000D01*
X820000Y400000D02*
X830000D01*
X820000D02*
Y420000D01*
X830000D01*
Y400000D02*
Y420000D01*
X821000Y298000D02*
X829000D01*
X821000D02*
Y322000D01*
X829000D01*
Y298000D02*
Y322000D01*
X825000Y294000D02*
Y298000D01*
Y322000D02*
Y326000D01*
X854606Y305669D02*
Y514331D01*
X905394Y305669D02*
Y514331D01*
X854606D02*
X905394D01*
X854606Y305669D02*
X877500D01*
X882500D02*
X905394D01*
D18*
X870668Y267002D02*
X872334Y267835D01*
X874000Y269501D01*
Y271167D01*
X873167Y272000D01*
X871501D01*
X870668Y271167D01*
Y270334D01*
X871501Y269501D01*
X874000D01*
X870668Y277002D02*
X874000D01*
Y279501D01*
X872334Y278668D01*
X871501D01*
X870668Y279501D01*
Y281167D01*
X871501Y282000D01*
X873167D01*
X874000Y281167D01*
X906668Y272000D02*
X910000D01*
X906668Y268668D01*
Y267835D01*
X907501Y267002D01*
X909167D01*
X910000Y267835D01*
X908000Y282000D02*
X906334D01*
X907167D01*
Y277002D01*
X908000Y277835D01*
D19*
X825048Y443000D02*
Y446936D01*
X823080Y444968D02*
X827016D01*
M02*
