%FSLAX25Y25*%
%MOIN*%
G70*
G01*
G75*
G04 Layer_Color=2752767*
%ADD10C,0.02000*%
%ADD11P,0.07577X8X202.5*%
G04:AMPARAMS|DCode=12|XSize=60mil|YSize=100mil|CornerRadius=0mil|HoleSize=0mil|Usage=FLASHONLY|Rotation=270.000|XOffset=0mil|YOffset=0mil|HoleType=Round|Shape=Octagon|*
%AMOCTAGOND12*
4,1,8,0.05000,0.01500,0.05000,-0.01500,0.03500,-0.03000,-0.03500,-0.03000,-0.05000,-0.01500,-0.05000,0.01500,-0.03500,0.03000,0.03500,0.03000,0.05000,0.01500,0.0*
%
%ADD12OCTAGOND12*%

%ADD13P,0.07577X8X112.5*%
G04:AMPARAMS|DCode=14|XSize=100mil|YSize=60mil|CornerRadius=0mil|HoleSize=0mil|Usage=FLASHONLY|Rotation=180.000|XOffset=0mil|YOffset=0mil|HoleType=Round|Shape=Octagon|*
%AMOCTAGOND14*
4,1,8,-0.05000,0.01500,-0.05000,-0.01500,-0.03500,-0.03000,0.03500,-0.03000,0.05000,-0.01500,0.05000,0.01500,0.03500,0.03000,-0.03500,0.03000,-0.05000,0.01500,0.0*
%
%ADD14OCTAGOND14*%

%ADD15C,0.19000*%
%ADD16C,0.08000*%
%ADD17C,0.00787*%
%ADD18C,0.01000*%
%ADD19C,0.00591*%
%ADD20C,0.00800*%
%ADD21C,0.00500*%
%ADD22C,0.00667*%
%ADD23C,0.01600*%
D18*
X760388Y126000D02*
X762387D01*
X761387D01*
Y131998D01*
X760388Y130998D01*
X769385Y131998D02*
X767385Y130998D01*
X765386Y128999D01*
Y127000D01*
X766386Y126000D01*
X768385D01*
X769385Y127000D01*
Y127999D01*
X768385Y128999D01*
X765386D01*
X829969Y130998D02*
X830969Y131998D01*
X832968D01*
X833968Y130998D01*
Y129999D01*
X832968Y128999D01*
X831968D01*
X832968D01*
X833968Y127999D01*
Y127000D01*
X832968Y126000D01*
X830969D01*
X829969Y127000D01*
X835967Y126000D02*
X837966D01*
X836967D01*
Y131998D01*
X835967Y130998D01*
X840965Y126000D02*
Y127000D01*
X841965D01*
Y126000D01*
X840965D01*
X848963D02*
Y131998D01*
X845964Y128999D01*
X849963D01*
X851962Y127000D02*
X852962Y126000D01*
X854961D01*
X855960Y127000D01*
Y130998D01*
X854961Y131998D01*
X852962D01*
X851962Y130998D01*
Y129999D01*
X852962Y128999D01*
X855960D01*
X861959Y131998D02*
X859959Y130998D01*
X857960Y128999D01*
Y127000D01*
X858959Y126000D01*
X860959D01*
X861959Y127000D01*
Y127999D01*
X860959Y128999D01*
X857960D01*
X863958Y126000D02*
Y129999D01*
X864958D01*
X865957Y128999D01*
Y126000D01*
Y128999D01*
X866957Y129999D01*
X867957Y128999D01*
Y126000D01*
X869956D02*
X871955D01*
X870956D01*
Y129999D01*
X869956D01*
X874954Y126000D02*
X876954D01*
X875954D01*
Y131998D01*
X874954D01*
X887950Y126000D02*
X885951Y127999D01*
Y129999D01*
X887950Y131998D01*
X890949Y130998D02*
X891949Y131998D01*
X893948D01*
X894948Y130998D01*
Y127000D01*
X893948Y126000D01*
X891949D01*
X890949Y127000D01*
Y130998D01*
X896947Y126000D02*
Y127000D01*
X897947D01*
Y126000D01*
X896947D01*
X901946Y130998D02*
X902945Y131998D01*
X904945D01*
X905944Y130998D01*
Y129999D01*
X904945Y128999D01*
X905944Y127999D01*
Y127000D01*
X904945Y126000D01*
X902945D01*
X901946Y127000D01*
Y127999D01*
X902945Y128999D01*
X901946Y129999D01*
Y130998D01*
X902945Y128999D02*
X904945D01*
X907944Y126000D02*
Y129999D01*
X908943D01*
X909943Y128999D01*
Y126000D01*
Y128999D01*
X910943Y129999D01*
X911942Y128999D01*
Y126000D01*
X913942D02*
Y129999D01*
X914941D01*
X915941Y128999D01*
Y126000D01*
Y128999D01*
X916941Y129999D01*
X917941Y128999D01*
Y126000D01*
X919940D02*
X921939Y127999D01*
Y129999D01*
X919940Y131998D01*
X964329Y126000D02*
Y131998D01*
X967328D01*
X968328Y130998D01*
Y128999D01*
X967328Y127999D01*
X964329D01*
X970327Y131998D02*
X974326D01*
X972327D01*
Y126000D01*
X976325Y131998D02*
Y126000D01*
Y128999D01*
X980324D01*
Y131998D01*
Y126000D01*
X1014717D02*
Y131998D01*
X1017716D01*
X1018716Y130998D01*
Y128999D01*
X1017716Y127999D01*
X1014717D01*
X1016716D02*
X1018716Y126000D01*
X1021715D02*
X1023714D01*
X1024714Y127000D01*
Y128999D01*
X1023714Y129999D01*
X1021715D01*
X1020715Y128999D01*
Y127000D01*
X1021715Y126000D01*
X1026713Y129999D02*
Y127000D01*
X1027713Y126000D01*
X1030712D01*
Y129999D01*
X1032711Y126000D02*
Y129999D01*
X1035710D01*
X1036710Y128999D01*
Y126000D01*
X1042708Y131998D02*
Y126000D01*
X1039709D01*
X1038709Y127000D01*
Y128999D01*
X1039709Y129999D01*
X1042708D01*
X764386Y119998D02*
X760388D01*
Y116999D01*
X762387Y117999D01*
X763387D01*
X764386Y116999D01*
Y115000D01*
X763387Y114000D01*
X761387D01*
X760388Y115000D01*
X770384Y119998D02*
X768385Y118998D01*
X766386Y116999D01*
Y115000D01*
X767385Y114000D01*
X769385D01*
X770384Y115000D01*
Y115999D01*
X769385Y116999D01*
X766386D01*
X829969Y118998D02*
X830969Y119998D01*
X832968D01*
X833968Y118998D01*
Y117999D01*
X832968Y116999D01*
X831968D01*
X832968D01*
X833968Y115999D01*
Y115000D01*
X832968Y114000D01*
X830969D01*
X829969Y115000D01*
X835967D02*
X836967Y114000D01*
X838966D01*
X839966Y115000D01*
Y118998D01*
X838966Y119998D01*
X836967D01*
X835967Y118998D01*
Y117999D01*
X836967Y116999D01*
X839966D01*
X841965Y114000D02*
Y115000D01*
X842965D01*
Y114000D01*
X841965D01*
X846963Y118998D02*
X847963Y119998D01*
X849963D01*
X850962Y118998D01*
Y117999D01*
X849963Y116999D01*
X848963D01*
X849963D01*
X850962Y115999D01*
Y115000D01*
X849963Y114000D01*
X847963D01*
X846963Y115000D01*
X852962Y119998D02*
X856960D01*
Y118998D01*
X852962Y115000D01*
Y114000D01*
X858959D02*
Y117999D01*
X859959D01*
X860959Y116999D01*
Y114000D01*
Y116999D01*
X861959Y117999D01*
X862958Y116999D01*
Y114000D01*
X864958D02*
X866957D01*
X865957D01*
Y117999D01*
X864958D01*
X869956Y114000D02*
X871955D01*
X870956D01*
Y119998D01*
X869956D01*
X882952Y114000D02*
X880952Y115999D01*
Y117999D01*
X882952Y119998D01*
X885951Y114000D02*
X887950D01*
X886950D01*
Y119998D01*
X885951Y118998D01*
X890949Y114000D02*
Y117999D01*
X891949D01*
X892949Y116999D01*
Y114000D01*
Y116999D01*
X893948Y117999D01*
X894948Y116999D01*
Y114000D01*
X896947D02*
Y117999D01*
X897947D01*
X898947Y116999D01*
Y114000D01*
Y116999D01*
X899946Y117999D01*
X900946Y116999D01*
Y114000D01*
X902945D02*
X904945Y115999D01*
Y117999D01*
X902945Y119998D01*
X964329Y114000D02*
Y119998D01*
X967328D01*
X968328Y118998D01*
Y116999D01*
X967328Y115999D01*
X964329D01*
X970327Y119998D02*
X974326D01*
X972327D01*
Y114000D01*
X976325Y119998D02*
Y114000D01*
Y116999D01*
X980324D01*
Y119998D01*
Y114000D01*
X1014717D02*
Y119998D01*
X1017716D01*
X1018716Y118998D01*
Y116999D01*
X1017716Y115999D01*
X1014717D01*
X1016716D02*
X1018716Y114000D01*
X1021715D02*
X1023714D01*
X1024714Y115000D01*
Y116999D01*
X1023714Y117999D01*
X1021715D01*
X1020715Y116999D01*
Y115000D01*
X1021715Y114000D01*
X1026713Y117999D02*
Y115000D01*
X1027713Y114000D01*
X1030712D01*
Y117999D01*
X1032711Y114000D02*
Y117999D01*
X1035710D01*
X1036710Y116999D01*
Y114000D01*
X1042708Y119998D02*
Y114000D01*
X1039709D01*
X1038709Y115000D01*
Y116999D01*
X1039709Y117999D01*
X1042708D01*
X763387Y102000D02*
Y107998D01*
X760388Y104999D01*
X764386D01*
X829969Y102000D02*
X831968D01*
X830969D01*
Y107998D01*
X829969Y106998D01*
X838966Y102000D02*
X834967D01*
X838966Y105999D01*
Y106998D01*
X837966Y107998D01*
X835967D01*
X834967Y106998D01*
X840965Y103000D02*
X841965Y102000D01*
X843964D01*
X844964Y103000D01*
Y106998D01*
X843964Y107998D01*
X841965D01*
X840965Y106998D01*
Y105999D01*
X841965Y104999D01*
X844964D01*
X846963Y102000D02*
Y103000D01*
X847963D01*
Y102000D01*
X846963D01*
X851962Y103000D02*
X852962Y102000D01*
X854961D01*
X855960Y103000D01*
Y106998D01*
X854961Y107998D01*
X852962D01*
X851962Y106998D01*
Y105999D01*
X852962Y104999D01*
X855960D01*
X861959Y102000D02*
X857960D01*
X861959Y105999D01*
Y106998D01*
X860959Y107998D01*
X858959D01*
X857960Y106998D01*
X863958Y102000D02*
X865957D01*
X864958D01*
Y107998D01*
X863958Y106998D01*
X868956Y102000D02*
Y105999D01*
X869956D01*
X870956Y104999D01*
Y102000D01*
Y104999D01*
X871955Y105999D01*
X872955Y104999D01*
Y102000D01*
X874954D02*
X876954D01*
X875954D01*
Y105999D01*
X874954D01*
X879953Y102000D02*
X881952D01*
X880952D01*
Y107998D01*
X879953D01*
X892949Y102000D02*
X890949Y103999D01*
Y105999D01*
X892949Y107998D01*
X895948Y106998D02*
X896947Y107998D01*
X898947D01*
X899946Y106998D01*
Y105999D01*
X898947Y104999D01*
X897947D01*
X898947D01*
X899946Y103999D01*
Y103000D01*
X898947Y102000D01*
X896947D01*
X895948Y103000D01*
X901946Y102000D02*
Y103000D01*
X902945D01*
Y102000D01*
X901946D01*
X906944Y106998D02*
X907944Y107998D01*
X909943D01*
X910943Y106998D01*
Y105999D01*
X909943Y104999D01*
X908943D01*
X909943D01*
X910943Y103999D01*
Y103000D01*
X909943Y102000D01*
X907944D01*
X906944Y103000D01*
X912942Y102000D02*
Y105999D01*
X913942D01*
X914941Y104999D01*
Y102000D01*
Y104999D01*
X915941Y105999D01*
X916941Y104999D01*
Y102000D01*
X918940D02*
Y105999D01*
X919940D01*
X920940Y104999D01*
Y102000D01*
Y104999D01*
X921939Y105999D01*
X922939Y104999D01*
Y102000D01*
X924938D02*
X926937Y103999D01*
Y105999D01*
X924938Y107998D01*
X964329Y102000D02*
Y107998D01*
X967328D01*
X968328Y106998D01*
Y104999D01*
X967328Y103999D01*
X964329D01*
X970327Y107998D02*
X974326D01*
X972327D01*
Y102000D01*
X976325Y107998D02*
Y102000D01*
Y104999D01*
X980324D01*
Y107998D01*
Y102000D01*
X1014717D02*
Y107998D01*
X1017716D01*
X1018716Y106998D01*
Y104999D01*
X1017716Y103999D01*
X1014717D01*
X1016716D02*
X1018716Y102000D01*
X1021715D02*
X1023714D01*
X1024714Y103000D01*
Y104999D01*
X1023714Y105999D01*
X1021715D01*
X1020715Y104999D01*
Y103000D01*
X1021715Y102000D01*
X1026713Y105999D02*
Y103000D01*
X1027713Y102000D01*
X1030712D01*
Y105999D01*
X1032711Y102000D02*
Y105999D01*
X1035710D01*
X1036710Y104999D01*
Y102000D01*
X1042708Y107998D02*
Y102000D01*
X1039709D01*
X1038709Y103000D01*
Y104999D01*
X1039709Y105999D01*
X1042708D01*
X760388Y95998D02*
X764386D01*
Y94998D01*
X760388Y91000D01*
Y90000D01*
X770384Y95998D02*
X768385Y94998D01*
X766386Y92999D01*
Y91000D01*
X767385Y90000D01*
X769385D01*
X770384Y91000D01*
Y91999D01*
X769385Y92999D01*
X766386D01*
X781184Y95998D02*
X785183D01*
X783184D01*
Y90000D01*
X788182D02*
X790181D01*
X791181Y91000D01*
Y92999D01*
X790181Y93999D01*
X788182D01*
X787182Y92999D01*
Y91000D01*
X788182Y90000D01*
X794180Y94998D02*
Y93999D01*
X793181D01*
X795180D01*
X794180D01*
Y91000D01*
X795180Y90000D01*
X799179Y93999D02*
X801178D01*
X802178Y92999D01*
Y90000D01*
X799179D01*
X798179Y91000D01*
X799179Y91999D01*
X802178D01*
X804177Y90000D02*
X806176D01*
X805177D01*
Y95998D01*
X804177D01*
D20*
X714800Y129000D02*
G03*
X714800Y129000I-2400J0D01*
G01*
D21*
X893000Y523000D02*
Y527000D01*
X897000D01*
Y523000D01*
X893000D01*
X883000D02*
Y527000D01*
X887000D01*
Y523000D01*
X883000D01*
X873000D02*
Y527000D01*
X877000D01*
Y523000D01*
X873000D01*
X863000D02*
Y527000D01*
X867000D01*
Y523000D01*
X863000D01*
X928000Y493000D02*
Y497000D01*
X932000D01*
Y493000D01*
X928000D01*
Y483000D02*
Y487000D01*
X932000D01*
Y483000D01*
X928000D01*
X828000Y493000D02*
Y497000D01*
X832000D01*
Y493000D01*
X828000D01*
Y483000D02*
Y487000D01*
X832000D01*
Y483000D01*
X828000D01*
X908000Y313000D02*
Y317000D01*
X912000D01*
Y313000D01*
X908000D01*
Y323000D02*
Y327000D01*
X912000D01*
Y323000D01*
X908000D01*
Y333000D02*
Y337000D01*
X912000D01*
Y333000D01*
X908000D01*
Y343000D02*
Y347000D01*
X912000D01*
Y343000D01*
X908000D01*
Y353000D02*
Y357000D01*
X912000D01*
Y353000D01*
X908000D01*
Y363000D02*
Y367000D01*
X912000D01*
Y363000D01*
X908000D01*
Y373000D02*
Y377000D01*
X912000D01*
Y373000D01*
X908000D01*
Y383000D02*
Y387000D01*
X912000D01*
Y383000D01*
X908000D01*
Y393000D02*
Y397000D01*
X912000D01*
Y393000D01*
X908000D01*
Y403000D02*
Y407000D01*
X912000D01*
Y403000D01*
X908000D01*
Y413000D02*
Y417000D01*
X912000D01*
Y413000D01*
X908000D01*
Y423000D02*
Y427000D01*
X912000D01*
Y423000D01*
X908000D01*
Y433000D02*
Y437000D01*
X912000D01*
Y433000D01*
X908000D01*
Y443000D02*
Y447000D01*
X912000D01*
Y443000D01*
X908000D01*
Y453000D02*
Y457000D01*
X912000D01*
Y453000D01*
X908000D01*
Y463000D02*
Y467000D01*
X912000D01*
Y463000D01*
X908000D01*
Y473000D02*
Y477000D01*
X912000D01*
Y473000D01*
X908000D01*
Y483000D02*
Y487000D01*
X912000D01*
Y483000D01*
X908000D01*
Y493000D02*
Y497000D01*
X912000D01*
Y493000D01*
X908000D01*
Y503000D02*
Y507000D01*
X912000D01*
Y503000D01*
X908000D01*
X848000Y313000D02*
Y317000D01*
X852000D01*
Y313000D01*
X848000D01*
Y323000D02*
Y327000D01*
X852000D01*
Y323000D01*
X848000D01*
Y333000D02*
Y337000D01*
X852000D01*
Y333000D01*
X848000D01*
Y343000D02*
Y347000D01*
X852000D01*
Y343000D01*
X848000D01*
Y353000D02*
Y357000D01*
X852000D01*
Y353000D01*
X848000D01*
Y363000D02*
Y367000D01*
X852000D01*
Y363000D01*
X848000D01*
Y373000D02*
Y377000D01*
X852000D01*
Y373000D01*
X848000D01*
Y383000D02*
Y387000D01*
X852000D01*
Y383000D01*
X848000D01*
Y393000D02*
Y397000D01*
X852000D01*
Y393000D01*
X848000D01*
Y403000D02*
Y407000D01*
X852000D01*
Y403000D01*
X848000D01*
Y413000D02*
Y417000D01*
X852000D01*
Y413000D01*
X848000D01*
Y423000D02*
Y427000D01*
X852000D01*
Y423000D01*
X848000D01*
Y433000D02*
Y437000D01*
X852000D01*
Y433000D01*
X848000D01*
Y443000D02*
Y447000D01*
X852000D01*
Y443000D01*
X848000D01*
Y453000D02*
Y457000D01*
X852000D01*
Y453000D01*
X848000D01*
Y463000D02*
Y467000D01*
X852000D01*
Y463000D01*
X848000D01*
Y473000D02*
Y477000D01*
X852000D01*
Y473000D01*
X848000D01*
Y483000D02*
Y487000D01*
X852000D01*
Y483000D01*
X848000D01*
Y493000D02*
Y497000D01*
X852000D01*
Y493000D01*
X848000D01*
Y503000D02*
Y507000D01*
X852000D01*
Y503000D01*
X848000D01*
X828000Y403000D02*
Y407000D01*
X832000D01*
Y403000D01*
X828000D01*
Y413000D02*
Y417000D01*
X832000D01*
Y413000D01*
X828000D01*
X878000Y268000D02*
Y272000D01*
X882000D01*
Y268000D01*
X878000D01*
Y278000D02*
Y282000D01*
X882000D01*
Y278000D01*
X878000D01*
X888000Y268000D02*
Y272000D01*
X892000D01*
Y268000D01*
X888000D01*
Y278000D02*
Y282000D01*
X892000D01*
Y278000D01*
X888000D01*
X898000Y268000D02*
Y272000D01*
X902000D01*
Y268000D01*
X898000D01*
Y278000D02*
Y282000D01*
X902000D01*
Y278000D01*
X898000D01*
X930000Y518000D02*
X928000Y522000D01*
X932000D01*
X930000Y518000D01*
Y268000D02*
X928000Y272000D01*
X932000D01*
X930000Y268000D01*
X830000D02*
X828000Y272000D01*
X832000D01*
X830000Y268000D01*
Y518000D02*
X828000Y522000D01*
X832000D01*
X830000Y518000D01*
X710000Y114600D02*
Y119400D01*
X714800D01*
Y114600D01*
X710000D01*
X712400Y102600D02*
X710000Y107400D01*
X714800D01*
X712400Y102600D01*
D22*
X832000Y350157D02*
G03*
X832000Y350157I-2000J0D01*
G01*
X832000Y369843D02*
G03*
X832000Y369843I-2000J0D01*
G01*
X832000Y435000D02*
G03*
X832000Y435000I-2000J0D01*
G01*
Y445000D02*
G03*
X832000Y445000I-2000J0D01*
G01*
X932000Y470000D02*
G03*
X932000Y470000I-2000J0D01*
G01*
Y460000D02*
G03*
X932000Y460000I-2000J0D01*
G01*
Y390000D02*
G03*
X932000Y390000I-2000J0D01*
G01*
Y400000D02*
G03*
X932000Y400000I-2000J0D01*
G01*
Y420000D02*
G03*
X932000Y420000I-2000J0D01*
G01*
Y440000D02*
G03*
X932000Y440000I-2000J0D01*
G01*
X832000Y330000D02*
G03*
X832000Y330000I-2000J0D01*
G01*
Y290000D02*
G03*
X832000Y290000I-2000J0D01*
G01*
X852000Y289843D02*
G03*
X852000Y289843I-2000J0D01*
G01*
X852000Y270158D02*
G03*
X852000Y270158I-2000J0D01*
G01*
X872000Y300000D02*
G03*
X872000Y300000I-2000J0D01*
G01*
X912000D02*
G03*
X912000Y300000I-2000J0D01*
G01*
D23*
X714798Y146398D02*
X713599Y147598D01*
X711200D01*
X710000Y146398D01*
Y145199D01*
X711200Y143999D01*
X713599D01*
X714798Y142799D01*
Y141600D01*
X713599Y140400D01*
X711200D01*
X710000Y141600D01*
X717198Y145199D02*
Y141600D01*
X718397Y140400D01*
X721996D01*
Y139200D01*
X720796Y138001D01*
X719597D01*
X721996Y140400D02*
Y145199D01*
X724395Y140400D02*
Y145199D01*
X725595D01*
X726795Y143999D01*
Y140400D01*
Y143999D01*
X727994Y145199D01*
X729194Y143999D01*
Y140400D01*
X731593Y147598D02*
Y140400D01*
X735192D01*
X736391Y141600D01*
Y142799D01*
Y143999D01*
X735192Y145199D01*
X731593D01*
X739990Y140400D02*
X742389D01*
X743589Y141600D01*
Y143999D01*
X742389Y145199D01*
X739990D01*
X738791Y143999D01*
Y141600D01*
X739990Y140400D01*
X745988D02*
X748388D01*
X747188D01*
Y147598D01*
X745988D01*
X760388D02*
Y140400D01*
Y143999D01*
X765186D01*
Y147598D01*
Y140400D01*
X767585D02*
X769984D01*
X768785D01*
Y145199D01*
X767585D01*
X774783Y146398D02*
Y145199D01*
X773583D01*
X775983D01*
X774783D01*
Y141600D01*
X775983Y140400D01*
X791577Y146398D02*
X790378Y147598D01*
X787979D01*
X786779Y146398D01*
Y141600D01*
X787979Y140400D01*
X790378D01*
X791577Y141600D01*
X795176Y140400D02*
X797576D01*
X798775Y141600D01*
Y143999D01*
X797576Y145199D01*
X795176D01*
X793977Y143999D01*
Y141600D01*
X795176Y140400D01*
X801174Y145199D02*
Y141600D01*
X802374Y140400D01*
X805973D01*
Y145199D01*
X808372Y140400D02*
Y145199D01*
X811971D01*
X813171Y143999D01*
Y140400D01*
X816769Y146398D02*
Y145199D01*
X815570D01*
X817969D01*
X816769D01*
Y141600D01*
X817969Y140400D01*
X834767Y147598D02*
X829969D01*
Y143999D01*
X832368D01*
X829969D01*
Y140400D01*
X837167D02*
X839566D01*
X838366D01*
Y145199D01*
X837167D01*
X843165Y140400D02*
Y145199D01*
X846764D01*
X847963Y143999D01*
Y140400D01*
X850362D02*
X852761D01*
X851562D01*
Y145199D01*
X850362D01*
X856360Y140400D02*
X859959D01*
X861159Y141600D01*
X859959Y142799D01*
X857560D01*
X856360Y143999D01*
X857560Y145199D01*
X861159D01*
X863558Y147598D02*
Y140400D01*
Y143999D01*
X864758Y145199D01*
X867157D01*
X868357Y143999D01*
Y140400D01*
X874355D02*
X871955D01*
X870756Y141600D01*
Y143999D01*
X871955Y145199D01*
X874355D01*
X875554Y143999D01*
Y142799D01*
X870756D01*
X882752Y147598D02*
Y140400D01*
X879153D01*
X877953Y141600D01*
Y143999D01*
X879153Y145199D01*
X882752D01*
X892349Y147598D02*
Y140400D01*
Y143999D01*
X897147D01*
Y147598D01*
Y140400D01*
X900746D02*
X903145D01*
X904345Y141600D01*
Y143999D01*
X903145Y145199D01*
X900746D01*
X899546Y143999D01*
Y141600D01*
X900746Y140400D01*
X906744D02*
X909143D01*
X907944D01*
Y147598D01*
X906744D01*
X916341Y140400D02*
X913942D01*
X912742Y141600D01*
Y143999D01*
X913942Y145199D01*
X916341D01*
X917541Y143999D01*
Y142799D01*
X912742D01*
X931936Y146398D02*
X930736Y147598D01*
X928337D01*
X927137Y146398D01*
Y145199D01*
X928337Y143999D01*
X930736D01*
X931936Y142799D01*
Y141600D01*
X930736Y140400D01*
X928337D01*
X927137Y141600D01*
X934335Y140400D02*
X936734D01*
X935535D01*
Y145199D01*
X934335D01*
X940333D02*
X945132D01*
X940333Y140400D01*
X945132D01*
X951130D02*
X948730D01*
X947531Y141600D01*
Y143999D01*
X948730Y145199D01*
X951130D01*
X952329Y143999D01*
Y142799D01*
X947531D01*
X964329Y140400D02*
Y147598D01*
X967928D01*
X969128Y146398D01*
Y143999D01*
X967928Y142799D01*
X964329D01*
X971527Y140400D02*
X973926D01*
X972727D01*
Y147598D01*
X971527D01*
X978725Y145199D02*
X981124D01*
X982323Y143999D01*
Y140400D01*
X978725D01*
X977525Y141600D01*
X978725Y142799D01*
X982323D01*
X985922Y146398D02*
Y145199D01*
X984723D01*
X987122D01*
X985922D01*
Y141600D01*
X987122Y140400D01*
X994320D02*
X991920D01*
X990721Y141600D01*
Y143999D01*
X991920Y145199D01*
X994320D01*
X995519Y143999D01*
Y142799D01*
X990721D01*
X1002717Y147598D02*
Y140400D01*
X999118D01*
X997919Y141600D01*
Y143999D01*
X999118Y145199D01*
X1002717D01*
X1014717Y147598D02*
Y140400D01*
Y143999D01*
X1019515D01*
Y147598D01*
Y140400D01*
X1023114D02*
X1025513D01*
X1026713Y141600D01*
Y143999D01*
X1025513Y145199D01*
X1023114D01*
X1021915Y143999D01*
Y141600D01*
X1023114Y140400D01*
X1029112D02*
X1031511D01*
X1030312D01*
Y147598D01*
X1029112D01*
X1038709Y140400D02*
X1036310D01*
X1035110Y141600D01*
Y143999D01*
X1036310Y145199D01*
X1038709D01*
X1039909Y143999D01*
Y142799D01*
X1035110D01*
X1049506Y147598D02*
X1054304D01*
X1051905D01*
Y140400D01*
X1056703Y145199D02*
Y141600D01*
X1057903Y140400D01*
X1061502D01*
Y139200D01*
X1060302Y138001D01*
X1059103D01*
X1061502Y140400D02*
Y145199D01*
X1063901Y138001D02*
Y145199D01*
X1067500D01*
X1068699Y143999D01*
Y141600D01*
X1067500Y140400D01*
X1063901D01*
X1074697D02*
X1072298D01*
X1071099Y141600D01*
Y143999D01*
X1072298Y145199D01*
X1074697D01*
X1075897Y143999D01*
Y142799D01*
X1071099D01*
X701200Y151200D02*
X1087897D01*
X701200Y135000D02*
X1087897D01*
X701200Y151200D02*
Y87000D01*
X1087897Y151200D02*
Y87000D01*
X755988Y151200D02*
Y87000D01*
X825569Y151200D02*
Y87000D01*
X959929Y151200D02*
Y87000D01*
X1010317Y151200D02*
Y87000D01*
X701200Y99000D02*
X1087897D01*
X701200Y87000D02*
X1087897D01*
M02*
