%FSLAX25Y25*%
%MOIN*%
G70*
G01*
G75*
G04 Layer_Physical_Order=2*
G04 Layer_Color=16711680*
%ADD10C,0.02000*%
%ADD11P,0.07577X8X202.5*%
G04:AMPARAMS|DCode=12|XSize=60mil|YSize=100mil|CornerRadius=0mil|HoleSize=0mil|Usage=FLASHONLY|Rotation=270.000|XOffset=0mil|YOffset=0mil|HoleType=Round|Shape=Octagon|*
%AMOCTAGOND12*
4,1,8,0.05000,0.01500,0.05000,-0.01500,0.03500,-0.03000,-0.03500,-0.03000,-0.05000,-0.01500,-0.05000,0.01500,-0.03500,0.03000,0.03500,0.03000,0.05000,0.01500,0.0*
%
%ADD12OCTAGOND12*%

%ADD13P,0.07577X8X112.5*%
G04:AMPARAMS|DCode=14|XSize=100mil|YSize=60mil|CornerRadius=0mil|HoleSize=0mil|Usage=FLASHONLY|Rotation=180.000|XOffset=0mil|YOffset=0mil|HoleType=Round|Shape=Octagon|*
%AMOCTAGOND14*
4,1,8,-0.05000,0.01500,-0.05000,-0.01500,-0.03500,-0.03000,0.03500,-0.03000,0.05000,-0.01500,0.05000,0.01500,0.03500,0.03000,-0.03500,0.03000,-0.05000,0.01500,0.0*
%
%ADD14OCTAGOND14*%

%ADD15C,0.19000*%
%ADD16C,0.08000*%
G36*
X945000Y255000D02*
X815000D01*
Y422916D01*
X815481Y423115D01*
X816420Y423434D01*
X816860Y422860D01*
X817487Y422379D01*
X818217Y422077D01*
X818977Y421977D01*
X819077Y421217D01*
X819380Y420487D01*
X819860Y419860D01*
X820487Y419380D01*
X821217Y419077D01*
X822000Y418974D01*
X822783Y419077D01*
X823513Y419380D01*
X824140Y419860D01*
X824621Y420487D01*
X824923Y421217D01*
X825023Y421977D01*
X825783Y422077D01*
X825783Y422077D01*
X825783Y422077D01*
X826974Y422152D01*
Y420224D01*
X824500Y417750D01*
Y412250D01*
X826750Y410000D01*
X824500Y407750D01*
Y406000D01*
X835500D01*
Y407750D01*
X833250Y410000D01*
X835224Y411974D01*
X843526D01*
X845500Y410000D01*
X843000Y407500D01*
Y406000D01*
X857000D01*
Y407500D01*
X854500Y410000D01*
X856474Y411974D01*
X866974D01*
Y305186D01*
X866650Y305013D01*
X865737Y304263D01*
X864987Y303349D01*
X864814Y303026D01*
X836253D01*
X833026Y306253D01*
Y325000D01*
X834500D01*
X837000Y327500D01*
Y332500D01*
X834500Y335000D01*
X833026D01*
Y345158D01*
X834500D01*
X837000Y347657D01*
Y352658D01*
X834500Y355157D01*
X825500D01*
X823000Y352658D01*
Y347657D01*
X825500Y345158D01*
X826974D01*
Y335000D01*
X825500D01*
X823000Y332500D01*
Y327500D01*
X825500Y325000D01*
X826974D01*
Y305000D01*
X827077Y304217D01*
X827291Y303701D01*
X827380Y303487D01*
X827860Y302860D01*
X832860Y297860D01*
X833487Y297379D01*
X833852Y297228D01*
X834217Y297077D01*
X834308Y297065D01*
X835000Y296974D01*
X835000Y296974D01*
X864814D01*
X864987Y296651D01*
X865737Y295737D01*
X866650Y294987D01*
X867597Y294481D01*
X867233Y293026D01*
X856317D01*
X854500Y294843D01*
X845500D01*
X843683Y293026D01*
X836474D01*
X834500Y295000D01*
X825500D01*
X823000Y292500D01*
Y287500D01*
X825500Y285000D01*
X834500D01*
X836474Y286974D01*
X843368D01*
X845500Y284842D01*
X854500D01*
X856632Y286974D01*
X876974D01*
Y285224D01*
X874500Y282750D01*
Y277250D01*
X876750Y275000D01*
X874500Y272750D01*
Y271000D01*
X880001D01*
Y270001D01*
X881000D01*
Y264500D01*
X882750D01*
X885000Y266750D01*
X887008Y264742D01*
X887077Y264217D01*
X887291Y263701D01*
X887379Y263487D01*
X887860Y262860D01*
X892860Y257860D01*
X893487Y257380D01*
X893852Y257228D01*
X894217Y257077D01*
X894308Y257065D01*
X895000Y256974D01*
X895000Y256974D01*
X902000D01*
X902783Y257077D01*
X903299Y257291D01*
X903513Y257380D01*
X904140Y257860D01*
X917119Y270840D01*
X918481Y270212D01*
X918464Y270000D01*
X918606Y268195D01*
X919029Y266435D01*
X919722Y264763D01*
X920562Y263391D01*
X928585Y271413D01*
D01*
X928586Y271414D01*
X928586Y271415D01*
D01*
X936609Y279437D01*
X935237Y280278D01*
X933565Y280971D01*
X931805Y281394D01*
X930000Y281536D01*
X928195Y281394D01*
X926435Y280971D01*
X924763Y280278D01*
X924335Y280016D01*
X923026Y280749D01*
Y360000D01*
X923026Y360000D01*
X922935Y360692D01*
X922923Y360783D01*
X922772Y361148D01*
X922620Y361513D01*
X922140Y362140D01*
X917140Y367140D01*
X917000Y367247D01*
Y367500D01*
X914500Y370000D01*
X917000Y372500D01*
Y377500D01*
X914500Y380000D01*
X917000Y382500D01*
Y387500D01*
X914500Y390000D01*
X917000Y392500D01*
Y397500D01*
X914500Y400000D01*
X917000Y402500D01*
Y407500D01*
X914500Y410000D01*
X917000Y412500D01*
Y414000D01*
X903000D01*
Y413239D01*
X901614Y412665D01*
X897140Y417140D01*
X896513Y417621D01*
X896299Y417709D01*
X895783Y417923D01*
X895000Y418026D01*
X868026D01*
Y519776D01*
X870000Y521750D01*
X872250Y519500D01*
X874000D01*
Y524999D01*
Y530500D01*
X872250D01*
X870000Y528250D01*
X867750Y530500D01*
X862250D01*
X859500Y527750D01*
Y522250D01*
X861974Y519776D01*
Y418026D01*
X856474D01*
X854500Y420000D01*
X857000Y422500D01*
Y427500D01*
X854500Y430000D01*
X857000Y432500D01*
Y437500D01*
X854500Y440000D01*
X857000Y442500D01*
Y447500D01*
X854500Y450000D01*
X857000Y452500D01*
Y457500D01*
X854500Y460000D01*
X857000Y462500D01*
Y467500D01*
X854500Y470000D01*
X857000Y472500D01*
Y477500D01*
X854500Y480000D01*
X857000Y482500D01*
Y487500D01*
X854500Y490000D01*
X857000Y492500D01*
Y497500D01*
X854500Y500000D01*
X857000Y502500D01*
Y507500D01*
X854500Y510000D01*
X845500D01*
X843000Y507500D01*
Y502500D01*
X845500Y500000D01*
X843526Y498026D01*
X835224D01*
X832750Y500500D01*
X827250D01*
X824500Y497750D01*
Y492250D01*
X826750Y490000D01*
X824500Y487750D01*
Y482250D01*
X827250Y479500D01*
X832750D01*
X835224Y481974D01*
X843526D01*
X845500Y480000D01*
X843000Y477500D01*
Y472500D01*
X845500Y470000D01*
X843000Y467500D01*
Y462500D01*
X845500Y460000D01*
X843000Y457500D01*
Y452500D01*
X845500Y450000D01*
X843000Y447500D01*
Y442500D01*
X845500Y440000D01*
X843000Y437500D01*
Y432500D01*
X845500Y430000D01*
X843000Y427500D01*
Y422500D01*
X845500Y420000D01*
X843526Y418026D01*
X835224D01*
X833026Y420224D01*
Y430000D01*
X834500D01*
X837000Y432500D01*
Y437500D01*
X834500Y440000D01*
X837000Y442500D01*
Y444000D01*
X823000D01*
Y442500D01*
X825500Y440000D01*
X823000Y437500D01*
Y432500D01*
X823199Y432301D01*
X822536Y430955D01*
X822000Y431026D01*
X821217Y430923D01*
X820487Y430620D01*
X819860Y430140D01*
X819380Y429513D01*
X819077Y428783D01*
X818977Y428023D01*
X818217Y427923D01*
X817487Y427621D01*
X816860Y427140D01*
X816420Y426566D01*
X815481Y426885D01*
X815000Y427084D01*
Y535000D01*
X945000D01*
Y255000D01*
D02*
G37*
%LPC*%
G36*
X857000Y404000D02*
X843000D01*
Y402500D01*
X845500Y400000D01*
X843000Y397500D01*
Y392500D01*
X845500Y390000D01*
X843000Y387500D01*
Y382500D01*
X845500Y380000D01*
X843000Y377500D01*
Y372500D01*
X845500Y370000D01*
X843000Y367500D01*
Y362500D01*
X845500Y360000D01*
X843000Y357500D01*
Y352500D01*
X845500Y350000D01*
X843000Y347500D01*
Y342500D01*
X845500Y340000D01*
X843000Y337500D01*
Y332500D01*
X845500Y330000D01*
X843000Y327500D01*
Y322500D01*
X845500Y320000D01*
X843000Y317500D01*
Y312500D01*
X845500Y310000D01*
X854500D01*
X857000Y312500D01*
Y317500D01*
X854500Y320000D01*
X857000Y322500D01*
Y327500D01*
X854500Y330000D01*
X857000Y332500D01*
Y337500D01*
X854500Y340000D01*
X857000Y342500D01*
Y347500D01*
X854500Y350000D01*
X857000Y352500D01*
Y357500D01*
X854500Y360000D01*
X857000Y362500D01*
Y367500D01*
X854500Y370000D01*
X857000Y372500D01*
Y377500D01*
X854500Y380000D01*
X857000Y382500D01*
Y387500D01*
X854500Y390000D01*
X857000Y392500D01*
Y397500D01*
X854500Y400000D01*
X857000Y402500D01*
Y404000D01*
D02*
G37*
G36*
X939002Y382500D02*
X927290D01*
Y287472D01*
X939002D01*
Y382500D01*
D02*
G37*
G36*
X854500Y275157D02*
X851000D01*
Y271158D01*
X857000D01*
Y272657D01*
X854500Y275157D01*
D02*
G37*
G36*
X830000Y281536D02*
X828195Y281394D01*
X826435Y280971D01*
X824763Y280278D01*
X823391Y279437D01*
X830000Y272828D01*
X836609Y279437D01*
X835237Y280278D01*
X833565Y280971D01*
X831805Y281394D01*
X830000Y281536D01*
D02*
G37*
G36*
X829000Y374843D02*
X825500D01*
X823000Y372342D01*
Y370843D01*
X829000D01*
Y374843D01*
D02*
G37*
G36*
X834500D02*
X831000D01*
Y370843D01*
X837000D01*
Y372342D01*
X834500Y374843D01*
D02*
G37*
G36*
X829000Y368843D02*
X823000D01*
Y367342D01*
X825500Y364843D01*
X829000D01*
Y368843D01*
D02*
G37*
G36*
X837000D02*
X831000D01*
Y364843D01*
X834500D01*
X837000Y367342D01*
Y368843D01*
D02*
G37*
G36*
X849000Y275157D02*
X845500D01*
X843000Y272657D01*
Y271158D01*
X849000D01*
Y275157D01*
D02*
G37*
G36*
X820562Y276609D02*
X819722Y275237D01*
X819029Y273565D01*
X818606Y271805D01*
X818464Y270000D01*
X818606Y268195D01*
X819029Y266435D01*
X819722Y264763D01*
X820562Y263391D01*
X827172Y270000D01*
X820562Y276609D01*
D02*
G37*
G36*
X939437D02*
X932828Y270000D01*
X939437Y263391D01*
X940278Y264763D01*
X940971Y266435D01*
X941393Y268195D01*
X941536Y270000D01*
X941393Y271805D01*
X940971Y273565D01*
X940278Y275237D01*
X939437Y276609D01*
D02*
G37*
G36*
X830000Y267172D02*
X823391Y260562D01*
X824763Y259722D01*
X826435Y259029D01*
X828195Y258607D01*
X830000Y258464D01*
X831805Y258607D01*
X833565Y259029D01*
X835237Y259722D01*
X836609Y260562D01*
X830000Y267172D01*
D02*
G37*
G36*
X930000D02*
X923391Y260562D01*
X924763Y259722D01*
X926435Y259029D01*
X928195Y258607D01*
X930000Y258464D01*
X931805Y258607D01*
X933565Y259029D01*
X935237Y259722D01*
X936609Y260562D01*
X930000Y267172D01*
D02*
G37*
G36*
X857000Y269158D02*
X851000D01*
Y265158D01*
X854500D01*
X857000Y267657D01*
Y269158D01*
D02*
G37*
G36*
X839437Y276609D02*
X832828Y270000D01*
X839437Y263391D01*
X840278Y264763D01*
X840971Y266435D01*
X841393Y268195D01*
X841501Y269563D01*
X841501Y269563D01*
X841501D01*
X843000Y269504D01*
Y270496D01*
X842728Y270486D01*
X841501Y270437D01*
X841393Y271805D01*
X840971Y273565D01*
X840278Y275237D01*
X839437Y276609D01*
D02*
G37*
G36*
X879000Y269000D02*
X874500D01*
Y267250D01*
X877250Y264500D01*
X879000D01*
Y269000D01*
D02*
G37*
G36*
X849000Y269158D02*
X843000D01*
Y267657D01*
X845500Y265158D01*
X849000D01*
Y269158D01*
D02*
G37*
G36*
X839437Y526609D02*
X832828Y520000D01*
X839437Y513391D01*
X840278Y514763D01*
X840971Y516435D01*
X841393Y518195D01*
X841536Y520000D01*
X841393Y521805D01*
X840971Y523565D01*
X840278Y525237D01*
X839437Y526609D01*
D02*
G37*
G36*
X920562D02*
X919722Y525237D01*
X919029Y523565D01*
X918606Y521805D01*
X918464Y520000D01*
X918606Y518195D01*
X919029Y516435D01*
X919722Y514763D01*
X920562Y513391D01*
X927172Y520000D01*
X920562Y526609D01*
D02*
G37*
G36*
X930000Y517172D02*
X923391Y510563D01*
X924763Y509722D01*
X926435Y509029D01*
X928195Y508606D01*
X930000Y508464D01*
X931805Y508606D01*
X933565Y509029D01*
X935237Y509722D01*
X936609Y510563D01*
X930000Y517172D01*
D02*
G37*
G36*
X820562Y526609D02*
X819722Y525237D01*
X819029Y523565D01*
X818606Y521805D01*
X818464Y520000D01*
X818606Y518195D01*
X819029Y516435D01*
X819722Y514763D01*
X820562Y513391D01*
X827172Y520000D01*
X820562Y526609D01*
D02*
G37*
G36*
X930000Y531536D02*
X928195Y531393D01*
X926435Y530971D01*
X924763Y530278D01*
X923391Y529437D01*
X930000Y522828D01*
X936609Y529437D01*
X935237Y530278D01*
X933565Y530971D01*
X931805Y531393D01*
X930000Y531536D01*
D02*
G37*
G36*
X897750Y530500D02*
X892250D01*
X890000Y528250D01*
X887750Y530500D01*
X882250D01*
X880000Y528250D01*
X877750Y530500D01*
X876000D01*
Y524999D01*
Y519500D01*
X877750D01*
X880000Y521750D01*
X881974Y519776D01*
Y465000D01*
X882077Y464217D01*
X882291Y463701D01*
X882380Y463487D01*
X882860Y462860D01*
X902860Y442860D01*
X903000Y442753D01*
Y442500D01*
X905500Y440000D01*
X903000Y437500D01*
Y432500D01*
X905500Y430000D01*
X903000Y427500D01*
Y422500D01*
X905500Y420000D01*
X903000Y417500D01*
Y416000D01*
X917000D01*
Y416825D01*
X918345Y417488D01*
X918487Y417380D01*
X918852Y417228D01*
X919217Y417077D01*
X919308Y417065D01*
X920000Y416974D01*
X920000Y416974D01*
X923526D01*
X925500Y415000D01*
X926974D01*
Y405000D01*
X925500D01*
X923000Y402500D01*
Y397500D01*
X925500Y395000D01*
X923000Y392500D01*
Y391000D01*
X937000D01*
Y392500D01*
X934500Y395000D01*
X937000Y397500D01*
Y402500D01*
X934500Y405000D01*
X933026D01*
Y415000D01*
X934500D01*
X937000Y417500D01*
Y422500D01*
X934500Y425000D01*
X925500D01*
X923526Y423026D01*
X921253D01*
X917140Y427140D01*
X917000Y427247D01*
Y427500D01*
X914500Y430000D01*
X917000Y432500D01*
Y432753D01*
X917140Y432860D01*
X921253Y436974D01*
X923526D01*
X925500Y435000D01*
X934500D01*
X937000Y437500D01*
Y442500D01*
X934500Y445000D01*
X933026D01*
Y455000D01*
X934500D01*
X937000Y457500D01*
Y462500D01*
X934500Y465000D01*
X937000Y467500D01*
Y469000D01*
X923000D01*
Y467500D01*
X925500Y465000D01*
X923000Y462500D01*
Y457500D01*
X925500Y455000D01*
X926974D01*
Y445000D01*
X925500D01*
X923526Y443026D01*
X920000D01*
X920000Y443026D01*
X919308Y442935D01*
X919217Y442923D01*
X918852Y442772D01*
X918487Y442621D01*
X918345Y442512D01*
X917000Y443175D01*
Y447500D01*
X914500Y450000D01*
X917000Y452500D01*
Y457500D01*
X914500Y460000D01*
X917000Y462500D01*
Y467500D01*
X914500Y470000D01*
X917000Y472500D01*
Y477500D01*
X914500Y480000D01*
X916474Y481974D01*
X924776D01*
X927250Y479500D01*
X932750D01*
X935500Y482250D01*
Y487750D01*
X933250Y490000D01*
X935500Y492250D01*
Y497750D01*
X932750Y500500D01*
X927250D01*
X924776Y498026D01*
X916474D01*
X914500Y500000D01*
X917000Y502500D01*
Y507500D01*
X914500Y510000D01*
X905500D01*
X903000Y507500D01*
Y502500D01*
X905500Y500000D01*
X903000Y497500D01*
Y492500D01*
X905500Y490000D01*
X903000Y487500D01*
Y482500D01*
X905500Y480000D01*
X903000Y477500D01*
Y472500D01*
X905500Y470000D01*
X903000Y467500D01*
Y463239D01*
X901614Y462665D01*
X898026Y466253D01*
Y519776D01*
X900500Y522250D01*
Y527750D01*
X897750Y530500D01*
D02*
G37*
G36*
X939437Y526609D02*
X932828Y520000D01*
X939437Y513391D01*
X940278Y514763D01*
X940971Y516435D01*
X941393Y518195D01*
X941536Y520000D01*
X941393Y521805D01*
X940971Y523565D01*
X940278Y525237D01*
X939437Y526609D01*
D02*
G37*
G36*
X830000Y531536D02*
X828195Y531393D01*
X826435Y530971D01*
X824763Y530278D01*
X823391Y529437D01*
X830000Y522828D01*
X836609Y529437D01*
X835237Y530278D01*
X833565Y530971D01*
X831805Y531393D01*
X830000Y531536D01*
D02*
G37*
G36*
Y517172D02*
X823391Y510563D01*
X824763Y509722D01*
X826435Y509029D01*
X828195Y508606D01*
X830000Y508464D01*
X831805Y508606D01*
X833565Y509029D01*
X835237Y509722D01*
X836609Y510563D01*
X830000Y517172D01*
D02*
G37*
G36*
X829000Y404000D02*
X824500D01*
Y402250D01*
X827250Y399500D01*
X829000D01*
Y404000D01*
D02*
G37*
G36*
X835500D02*
X831000D01*
Y399500D01*
X832750D01*
X835500Y402250D01*
Y404000D01*
D02*
G37*
G36*
X929000Y389000D02*
X923000D01*
Y387500D01*
X925500Y385000D01*
X929000D01*
Y389000D01*
D02*
G37*
G36*
X937000D02*
X931000D01*
Y385000D01*
X934500D01*
X937000Y387500D01*
Y389000D01*
D02*
G37*
G36*
X929000Y475000D02*
X925500D01*
X923000Y472500D01*
Y471000D01*
X929000D01*
Y475000D01*
D02*
G37*
G36*
X934500D02*
X931000D01*
Y471000D01*
X937000D01*
Y472500D01*
X934500Y475000D01*
D02*
G37*
G36*
X829000Y450000D02*
X825500D01*
X823000Y447500D01*
Y446000D01*
X829000D01*
Y450000D01*
D02*
G37*
G36*
X834500D02*
X831000D01*
Y446000D01*
X837000D01*
Y447500D01*
X834500Y450000D01*
D02*
G37*
%LPD*%
G36*
X933764Y326949D02*
X933875Y326927D01*
X934082Y326861D01*
X934260Y326779D01*
X934334Y326735D01*
X934408Y326690D01*
X934475Y326646D01*
X934526Y326602D01*
X934578Y326565D01*
X934615Y326528D01*
X934645Y326505D01*
X934667Y326483D01*
X934682Y326468D01*
X934689Y326461D01*
X934756Y326372D01*
X934822Y326283D01*
X934874Y326195D01*
X934919Y326098D01*
X934993Y325913D01*
X935037Y325736D01*
X935052Y325654D01*
X935067Y325580D01*
X935074Y325514D01*
X935081Y325455D01*
X935089Y325410D01*
Y325373D01*
Y325351D01*
Y325344D01*
X935081Y325203D01*
X935067Y325077D01*
X935044Y324951D01*
X935015Y324833D01*
X934978Y324722D01*
X934941Y324626D01*
X934896Y324530D01*
X934852Y324448D01*
X934815Y324367D01*
X934771Y324300D01*
X934734Y324241D01*
X934697Y324197D01*
X934667Y324160D01*
X934645Y324130D01*
X934630Y324115D01*
X934623Y324108D01*
X934534Y324019D01*
X934438Y323945D01*
X934341Y323878D01*
X934245Y323819D01*
X934156Y323775D01*
X934060Y323730D01*
X933883Y323671D01*
X933801Y323656D01*
X933727Y323642D01*
X933661Y323627D01*
X933601Y323619D01*
X933557Y323612D01*
X933490D01*
X933313Y323619D01*
X933150Y323649D01*
X933009Y323693D01*
X932891Y323738D01*
X932795Y323782D01*
X932721Y323827D01*
X932676Y323856D01*
X932662Y323864D01*
X932551Y323967D01*
X932454Y324078D01*
X932380Y324197D01*
X932321Y324315D01*
X932277Y324419D01*
X932247Y324500D01*
X932240Y324530D01*
X932232Y324552D01*
X932225Y324567D01*
Y324574D01*
X932158Y324448D01*
X932092Y324345D01*
X932018Y324256D01*
X931951Y324182D01*
X931892Y324123D01*
X931840Y324078D01*
X931811Y324056D01*
X931796Y324049D01*
X931692Y323989D01*
X931589Y323945D01*
X931485Y323908D01*
X931389Y323886D01*
X931307Y323871D01*
X931248Y323864D01*
X931189D01*
X931063Y323871D01*
X930937Y323893D01*
X930826Y323923D01*
X930730Y323960D01*
X930649Y323997D01*
X930582Y324026D01*
X930545Y324049D01*
X930530Y324056D01*
X930419Y324130D01*
X930323Y324219D01*
X930242Y324308D01*
X930168Y324396D01*
X930116Y324470D01*
X930072Y324537D01*
X930049Y324581D01*
X930042Y324589D01*
Y324596D01*
X929983Y324729D01*
X929938Y324863D01*
X929901Y324996D01*
X929879Y325114D01*
X929864Y325210D01*
X929857Y325292D01*
Y325321D01*
Y325344D01*
Y325358D01*
Y325366D01*
Y325477D01*
X929872Y325580D01*
X929909Y325780D01*
X929968Y325950D01*
X930027Y326098D01*
X930064Y326165D01*
X930094Y326217D01*
X930123Y326269D01*
X930153Y326306D01*
X930175Y326335D01*
X930190Y326357D01*
X930197Y326372D01*
X930205Y326380D01*
X930345Y326520D01*
X930501Y326631D01*
X930664Y326720D01*
X930826Y326794D01*
X930967Y326838D01*
X931026Y326861D01*
X931078Y326875D01*
X931122Y326883D01*
X931152Y326890D01*
X931174Y326898D01*
X931182D01*
X931293Y326269D01*
X931130Y326239D01*
X930989Y326195D01*
X930871Y326143D01*
X930775Y326091D01*
X930701Y326039D01*
X930649Y325995D01*
X930612Y325965D01*
X930604Y325958D01*
X930530Y325862D01*
X930471Y325758D01*
X930434Y325662D01*
X930405Y325566D01*
X930390Y325477D01*
X930375Y325410D01*
Y325366D01*
Y325358D01*
Y325351D01*
X930382Y325218D01*
X930412Y325099D01*
X930449Y324996D01*
X930486Y324907D01*
X930530Y324840D01*
X930567Y324789D01*
X930597Y324752D01*
X930604Y324744D01*
X930693Y324663D01*
X930789Y324604D01*
X930886Y324567D01*
X930974Y324537D01*
X931056Y324522D01*
X931115Y324507D01*
X931256D01*
X931330Y324522D01*
X931455Y324559D01*
X931566Y324611D01*
X931663Y324670D01*
X931729Y324729D01*
X931781Y324781D01*
X931811Y324818D01*
X931818Y324826D01*
Y324833D01*
X931885Y324959D01*
X931936Y325077D01*
X931973Y325203D01*
X931996Y325314D01*
X932010Y325410D01*
X932025Y325492D01*
Y325521D01*
Y325543D01*
Y325551D01*
Y325558D01*
Y325588D01*
X932018Y325617D01*
Y325647D01*
Y325654D01*
X932573Y325728D01*
X932551Y325632D01*
X932536Y325543D01*
X932521Y325469D01*
X932514Y325403D01*
X932506Y325351D01*
Y325314D01*
Y325292D01*
Y325284D01*
X932521Y325129D01*
X932551Y324988D01*
X932595Y324863D01*
X932647Y324759D01*
X932699Y324678D01*
X932743Y324618D01*
X932773Y324581D01*
X932787Y324567D01*
X932898Y324470D01*
X933017Y324396D01*
X933135Y324345D01*
X933254Y324315D01*
X933350Y324293D01*
X933431Y324285D01*
X933461Y324278D01*
X933505D01*
X933668Y324293D01*
X933816Y324330D01*
X933942Y324374D01*
X934053Y324433D01*
X934142Y324493D01*
X934208Y324537D01*
X934253Y324574D01*
X934267Y324589D01*
X934371Y324707D01*
X934445Y324833D01*
X934497Y324959D01*
X934534Y325077D01*
X934556Y325181D01*
X934563Y325262D01*
X934571Y325292D01*
Y325314D01*
Y325329D01*
Y325336D01*
X934563Y325469D01*
X934534Y325595D01*
X934497Y325706D01*
X934452Y325795D01*
X934415Y325869D01*
X934378Y325928D01*
X934349Y325958D01*
X934341Y325973D01*
X934238Y326061D01*
X934119Y326135D01*
X933994Y326202D01*
X933860Y326254D01*
X933749Y326291D01*
X933698Y326306D01*
X933653Y326313D01*
X933616Y326320D01*
X933587Y326328D01*
X933572Y326335D01*
X933564D01*
X933646Y326964D01*
X933764Y326949D01*
D02*
G37*
G36*
X935000Y319683D02*
X934393D01*
Y322206D01*
X934267Y322117D01*
X934216Y322073D01*
X934164Y322036D01*
X934119Y321999D01*
X934090Y321969D01*
X934068Y321947D01*
X934060Y321940D01*
X934023Y321903D01*
X933986Y321858D01*
X933890Y321755D01*
X933779Y321636D01*
X933668Y321510D01*
X933572Y321392D01*
X933527Y321340D01*
X933483Y321296D01*
X933453Y321259D01*
X933431Y321229D01*
X933416Y321214D01*
X933409Y321207D01*
X933305Y321089D01*
X933209Y320970D01*
X933113Y320867D01*
X933032Y320770D01*
X932950Y320682D01*
X932876Y320608D01*
X932810Y320534D01*
X932750Y320474D01*
X932691Y320415D01*
X932647Y320371D01*
X932610Y320334D01*
X932573Y320297D01*
X932528Y320260D01*
X932514Y320245D01*
X932388Y320141D01*
X932277Y320053D01*
X932166Y319979D01*
X932077Y319919D01*
X931996Y319875D01*
X931936Y319845D01*
X931899Y319831D01*
X931885Y319823D01*
X931774Y319779D01*
X931663Y319749D01*
X931559Y319720D01*
X931470Y319705D01*
X931389Y319697D01*
X931330Y319690D01*
X931278D01*
X931167Y319697D01*
X931063Y319712D01*
X930960Y319727D01*
X930871Y319757D01*
X930693Y319831D01*
X930553Y319905D01*
X930486Y319949D01*
X930434Y319986D01*
X930382Y320023D01*
X930345Y320060D01*
X930316Y320090D01*
X930286Y320104D01*
X930279Y320119D01*
X930271Y320127D01*
X930197Y320208D01*
X930131Y320297D01*
X930079Y320393D01*
X930035Y320489D01*
X929961Y320682D01*
X929909Y320874D01*
X929894Y320955D01*
X929879Y321037D01*
X929872Y321111D01*
X929864Y321170D01*
X929857Y321222D01*
Y321266D01*
Y321288D01*
Y321296D01*
X929864Y321429D01*
X929872Y321555D01*
X929894Y321673D01*
X929916Y321784D01*
X929946Y321888D01*
X929975Y321984D01*
X930012Y322073D01*
X930049Y322154D01*
X930086Y322228D01*
X930123Y322287D01*
X930153Y322339D01*
X930183Y322384D01*
X930205Y322421D01*
X930227Y322443D01*
X930234Y322458D01*
X930242Y322465D01*
X930316Y322539D01*
X930397Y322606D01*
X930486Y322672D01*
X930575Y322724D01*
X930752Y322813D01*
X930930Y322872D01*
X931011Y322894D01*
X931093Y322916D01*
X931159Y322931D01*
X931219Y322946D01*
X931270Y322953D01*
X931307D01*
X931330Y322961D01*
X931337D01*
X931404Y322317D01*
X931233Y322302D01*
X931085Y322273D01*
X930952Y322228D01*
X930849Y322176D01*
X930760Y322132D01*
X930701Y322088D01*
X930664Y322058D01*
X930649Y322043D01*
X930560Y321932D01*
X930493Y321814D01*
X930442Y321688D01*
X930412Y321577D01*
X930390Y321473D01*
X930382Y321385D01*
X930375Y321355D01*
Y321333D01*
Y321318D01*
Y321311D01*
X930382Y321155D01*
X930412Y321015D01*
X930456Y320896D01*
X930501Y320793D01*
X930553Y320711D01*
X930590Y320659D01*
X930619Y320622D01*
X930634Y320608D01*
X930738Y320519D01*
X930841Y320452D01*
X930945Y320400D01*
X931048Y320371D01*
X931130Y320349D01*
X931204Y320341D01*
X931248Y320334D01*
X931263D01*
X931396Y320349D01*
X931537Y320378D01*
X931663Y320430D01*
X931781Y320482D01*
X931877Y320541D01*
X931959Y320593D01*
X931988Y320608D01*
X932010Y320622D01*
X932018Y320637D01*
X932025D01*
X932107Y320696D01*
X932188Y320770D01*
X932277Y320852D01*
X932366Y320941D01*
X932543Y321126D01*
X932721Y321311D01*
X932802Y321407D01*
X932876Y321488D01*
X932943Y321570D01*
X933002Y321636D01*
X933046Y321688D01*
X933083Y321732D01*
X933106Y321762D01*
X933113Y321769D01*
X933268Y321954D01*
X933416Y322125D01*
X933550Y322265D01*
X933661Y322376D01*
X933757Y322472D01*
X933823Y322539D01*
X933868Y322576D01*
X933875Y322591D01*
X933883D01*
X934008Y322694D01*
X934127Y322776D01*
X934245Y322850D01*
X934349Y322909D01*
X934438Y322953D01*
X934504Y322983D01*
X934549Y322998D01*
X934556Y323005D01*
X934563D01*
X934645Y323035D01*
X934719Y323050D01*
X934793Y323064D01*
X934859Y323072D01*
X934919Y323079D01*
X935000D01*
Y319683D01*
D02*
G37*
G36*
X933313Y317070D02*
X933476Y317056D01*
X933624Y317033D01*
X933764Y317004D01*
X933890Y316967D01*
X934008Y316930D01*
X934119Y316885D01*
X934216Y316841D01*
X934304Y316797D01*
X934378Y316752D01*
X934438Y316715D01*
X934489Y316678D01*
X934534Y316649D01*
X934563Y316626D01*
X934578Y316612D01*
X934586Y316604D01*
X934674Y316508D01*
X934748Y316412D01*
X934815Y316308D01*
X934874Y316205D01*
X934919Y316101D01*
X934963Y315990D01*
X935022Y315790D01*
X935037Y315701D01*
X935052Y315613D01*
X935067Y315539D01*
X935074Y315472D01*
X935081Y315413D01*
Y315376D01*
Y315346D01*
Y315339D01*
X935074Y315161D01*
X935044Y314998D01*
X935007Y314843D01*
X934970Y314717D01*
X934926Y314606D01*
X934911Y314562D01*
X934896Y314525D01*
X934882Y314488D01*
X934867Y314466D01*
X934859Y314458D01*
Y314451D01*
X934763Y314303D01*
X934660Y314177D01*
X934556Y314066D01*
X934452Y313977D01*
X934364Y313911D01*
X934290Y313859D01*
X934260Y313844D01*
X934238Y313829D01*
X934230Y313822D01*
X934223D01*
X934053Y313748D01*
X933868Y313696D01*
X933683Y313652D01*
X933498Y313629D01*
X933416Y313615D01*
X933342D01*
X933268Y313607D01*
X933209Y313600D01*
X933091D01*
X932928Y313607D01*
X932780Y313622D01*
X932639Y313644D01*
X932506Y313674D01*
X932380Y313711D01*
X932269Y313755D01*
X932158Y313800D01*
X932070Y313844D01*
X931988Y313888D01*
X931914Y313933D01*
X931848Y313977D01*
X931796Y314014D01*
X931759Y314044D01*
X931729Y314066D01*
X931714Y314081D01*
X931707Y314088D01*
X931618Y314184D01*
X931544Y314281D01*
X931470Y314384D01*
X931418Y314488D01*
X931367Y314591D01*
X931330Y314695D01*
X931263Y314895D01*
X931248Y314991D01*
X931233Y315072D01*
X931219Y315146D01*
X931211Y315213D01*
X931204Y315265D01*
Y315302D01*
Y315331D01*
Y315339D01*
X931211Y315465D01*
X931219Y315583D01*
X931270Y315812D01*
X931337Y316012D01*
X931374Y316101D01*
X931411Y316182D01*
X931448Y316256D01*
X931485Y316316D01*
X931522Y316375D01*
X931552Y316419D01*
X931581Y316456D01*
X931603Y316486D01*
X931611Y316501D01*
X931618Y316508D01*
X931714Y316612D01*
X931825Y316693D01*
X931944Y316774D01*
X932062Y316834D01*
X932188Y316893D01*
X932321Y316937D01*
X932447Y316974D01*
X932565Y317004D01*
X932684Y317033D01*
X932787Y317048D01*
X932891Y317063D01*
X932972Y317070D01*
X933046D01*
X933098Y317078D01*
X933143D01*
X933313Y317070D01*
D02*
G37*
G36*
X933342Y338945D02*
X933498Y338930D01*
X933646Y338908D01*
X933779Y338878D01*
X933905Y338841D01*
X934023Y338804D01*
X934127Y338760D01*
X934223Y338715D01*
X934304Y338671D01*
X934378Y338627D01*
X934438Y338590D01*
X934489Y338553D01*
X934534Y338523D01*
X934563Y338501D01*
X934578Y338486D01*
X934586Y338479D01*
X934674Y338382D01*
X934748Y338286D01*
X934815Y338183D01*
X934874Y338072D01*
X934919Y337968D01*
X934963Y337857D01*
X935022Y337650D01*
X935037Y337554D01*
X935052Y337465D01*
X935067Y337383D01*
X935074Y337317D01*
X935081Y337265D01*
Y337221D01*
Y337191D01*
Y337184D01*
X935067Y336954D01*
X935030Y336747D01*
X934985Y336562D01*
X934956Y336488D01*
X934926Y336414D01*
X934896Y336347D01*
X934867Y336288D01*
X934845Y336244D01*
X934822Y336199D01*
X934800Y336170D01*
X934785Y336148D01*
X934771Y336133D01*
Y336125D01*
X934637Y335977D01*
X934497Y335859D01*
X934349Y335755D01*
X934208Y335681D01*
X934082Y335622D01*
X934023Y335600D01*
X933979Y335578D01*
X933934Y335563D01*
X933905Y335556D01*
X933890Y335548D01*
X933883D01*
X933801Y336199D01*
X933942Y336259D01*
X934060Y336325D01*
X934164Y336392D01*
X934245Y336451D01*
X934304Y336503D01*
X934349Y336547D01*
X934378Y336584D01*
X934386Y336592D01*
X934445Y336688D01*
X934489Y336784D01*
X934519Y336888D01*
X934541Y336976D01*
X934556Y337058D01*
X934563Y337124D01*
Y337169D01*
Y337176D01*
Y337184D01*
X934556Y337272D01*
X934549Y337354D01*
X934512Y337502D01*
X934460Y337635D01*
X934401Y337753D01*
X934349Y337842D01*
X934297Y337909D01*
X934260Y337953D01*
X934245Y337961D01*
Y337968D01*
X934112Y338072D01*
X933964Y338153D01*
X933801Y338212D01*
X933653Y338257D01*
X933520Y338279D01*
X933461Y338294D01*
X933409Y338301D01*
X933365D01*
X933335Y338308D01*
X933305D01*
Y335533D01*
X933231Y335526D01*
X933143D01*
X932972Y335533D01*
X932817Y335548D01*
X932669Y335570D01*
X932528Y335600D01*
X932403Y335637D01*
X932284Y335674D01*
X932181Y335718D01*
X932084Y335763D01*
X931996Y335807D01*
X931922Y335852D01*
X931862Y335889D01*
X931811Y335926D01*
X931766Y335955D01*
X931737Y335977D01*
X931722Y335992D01*
X931714Y336000D01*
X931626Y336088D01*
X931544Y336185D01*
X931478Y336288D01*
X931418Y336392D01*
X931367Y336495D01*
X931330Y336592D01*
X931293Y336695D01*
X931270Y336784D01*
X931248Y336880D01*
X931233Y336962D01*
X931219Y337036D01*
X931211Y337095D01*
X931204Y337147D01*
Y337191D01*
Y337213D01*
Y337221D01*
X931211Y337361D01*
X931226Y337494D01*
X931248Y337620D01*
X931285Y337739D01*
X931322Y337850D01*
X931367Y337953D01*
X931411Y338049D01*
X931463Y338131D01*
X931507Y338212D01*
X931559Y338279D01*
X931603Y338338D01*
X931640Y338382D01*
X931677Y338419D01*
X931700Y338449D01*
X931714Y338464D01*
X931722Y338471D01*
X931825Y338553D01*
X931936Y338627D01*
X932047Y338693D01*
X932166Y338752D01*
X932292Y338797D01*
X932410Y338834D01*
X932647Y338893D01*
X932750Y338915D01*
X932854Y338930D01*
X932943Y338937D01*
X933024Y338945D01*
X933091Y338952D01*
X933180D01*
X933342Y338945D01*
D02*
G37*
G36*
X933268Y334993D02*
X933409Y334986D01*
X933661Y334934D01*
X933779Y334904D01*
X933883Y334867D01*
X933986Y334830D01*
X934075Y334793D01*
X934164Y334756D01*
X934238Y334719D01*
X934297Y334682D01*
X934356Y334653D01*
X934393Y334623D01*
X934430Y334601D01*
X934445Y334594D01*
X934452Y334586D01*
X934549Y334505D01*
X934630Y334416D01*
X934704Y334320D01*
X934771Y334224D01*
X934822Y334120D01*
X934867Y334024D01*
X934904Y333928D01*
X934933Y333831D01*
X934956Y333743D01*
X934970Y333661D01*
X934985Y333587D01*
X934993Y333521D01*
Y333469D01*
X935000Y333432D01*
Y333402D01*
Y333395D01*
X934993Y333284D01*
X934978Y333173D01*
X934956Y333069D01*
X934926Y332973D01*
X934845Y332803D01*
X934756Y332647D01*
X934711Y332588D01*
X934667Y332529D01*
X934623Y332477D01*
X934586Y332440D01*
X934556Y332411D01*
X934534Y332388D01*
X934519Y332374D01*
X934512Y332366D01*
X934719D01*
X934815Y332374D01*
X934970D01*
X935037Y332381D01*
X935096D01*
X935148Y332388D01*
X935222Y332396D01*
X935281Y332403D01*
X935311Y332411D01*
X935318D01*
X935429Y332448D01*
X935525Y332499D01*
X935607Y332551D01*
X935681Y332603D01*
X935733Y332655D01*
X935777Y332699D01*
X935799Y332729D01*
X935807Y332736D01*
X935866Y332832D01*
X935910Y332943D01*
X935940Y333054D01*
X935962Y333158D01*
X935977Y333262D01*
X935984Y333336D01*
Y333365D01*
Y333387D01*
Y333402D01*
Y333410D01*
X935977Y333550D01*
X935955Y333683D01*
X935925Y333794D01*
X935888Y333883D01*
X935858Y333957D01*
X935829Y334009D01*
X935807Y334039D01*
X935799Y334053D01*
X935747Y334113D01*
X935681Y334157D01*
X935614Y334194D01*
X935548Y334224D01*
X935481Y334238D01*
X935429Y334253D01*
X935400Y334261D01*
X935385D01*
X935303Y334875D01*
X935414D01*
X935511Y334860D01*
X935607Y334845D01*
X935696Y334823D01*
X935851Y334756D01*
X935977Y334682D01*
X936073Y334608D01*
X936140Y334549D01*
X936184Y334497D01*
X936191Y334490D01*
X936199Y334483D01*
X936302Y334320D01*
X936376Y334142D01*
X936428Y333965D01*
X936465Y333794D01*
X936480Y333713D01*
X936487Y333639D01*
X936495Y333580D01*
Y333521D01*
X936502Y333476D01*
Y333439D01*
Y333417D01*
Y333410D01*
X936495Y333210D01*
X936465Y333025D01*
X936436Y332862D01*
X936391Y332729D01*
X936354Y332618D01*
X936339Y332573D01*
X936317Y332536D01*
X936310Y332507D01*
X936295Y332485D01*
X936288Y332477D01*
Y332470D01*
X936206Y332337D01*
X936110Y332218D01*
X936014Y332122D01*
X935925Y332041D01*
X935844Y331981D01*
X935777Y331944D01*
X935733Y331915D01*
X935725Y331907D01*
X935718D01*
X935644Y331878D01*
X935562Y331848D01*
X935474Y331826D01*
X935377Y331804D01*
X935170Y331774D01*
X934970Y331752D01*
X934874Y331745D01*
X934785Y331737D01*
X934704D01*
X934637Y331730D01*
X931285D01*
Y332307D01*
X931744D01*
X931648Y332388D01*
X931566Y332477D01*
X931492Y332566D01*
X931433Y332655D01*
X931381Y332751D01*
X931337Y332840D01*
X931300Y332929D01*
X931270Y333010D01*
X931248Y333091D01*
X931233Y333165D01*
X931219Y333232D01*
X931211Y333284D01*
X931204Y333328D01*
Y333365D01*
Y333387D01*
Y333395D01*
X931211Y333572D01*
X931241Y333735D01*
X931285Y333883D01*
X931330Y334009D01*
X931374Y334113D01*
X931418Y334187D01*
X931433Y334216D01*
X931448Y334238D01*
X931455Y334246D01*
Y334253D01*
X931552Y334379D01*
X931670Y334490D01*
X931781Y334586D01*
X931892Y334668D01*
X931996Y334727D01*
X932077Y334771D01*
X932107Y334786D01*
X932129Y334801D01*
X932144Y334808D01*
X932151D01*
X932321Y334875D01*
X932491Y334919D01*
X932654Y334956D01*
X932802Y334978D01*
X932935Y334993D01*
X932987D01*
X933039Y335001D01*
X933128D01*
X933268Y334993D01*
D02*
G37*
G36*
X934112Y330982D02*
X934186Y330975D01*
X934341Y330938D01*
X934467Y330886D01*
X934578Y330827D01*
X934667Y330768D01*
X934734Y330716D01*
X934771Y330679D01*
X934785Y330664D01*
X934882Y330531D01*
X934956Y330383D01*
X935007Y330220D01*
X935044Y330072D01*
X935067Y329939D01*
X935074Y329880D01*
Y329828D01*
X935081Y329784D01*
Y329754D01*
Y329732D01*
Y329724D01*
X935074Y329591D01*
X935059Y329458D01*
X935044Y329340D01*
X935022Y329236D01*
X935000Y329155D01*
X934978Y329088D01*
X934970Y329044D01*
X934963Y329029D01*
X934911Y328903D01*
X934845Y328785D01*
X934771Y328674D01*
X934704Y328563D01*
X934637Y328474D01*
X934586Y328407D01*
X934549Y328363D01*
X934534Y328355D01*
Y328348D01*
X934630Y328333D01*
X934719Y328318D01*
X934800Y328304D01*
X934867Y328281D01*
X934926Y328259D01*
X934963Y328244D01*
X934993Y328237D01*
X935000Y328230D01*
Y327571D01*
X934919Y327608D01*
X934837Y327645D01*
X934763Y327675D01*
X934697Y327689D01*
X934637Y327712D01*
X934593Y327719D01*
X934563Y327726D01*
X934556D01*
X934504Y327734D01*
X934438Y327741D01*
X934364D01*
X934282Y327749D01*
X934097Y327756D01*
X933912D01*
X933735Y327763D01*
X932462D01*
X932336Y327771D01*
X932240Y327778D01*
X932158D01*
X932099Y327786D01*
X932055Y327793D01*
X932033Y327800D01*
X932025D01*
X931929Y327823D01*
X931848Y327852D01*
X931781Y327882D01*
X931714Y327919D01*
X931670Y327948D01*
X931633Y327971D01*
X931611Y327985D01*
X931603Y327993D01*
X931544Y328052D01*
X931485Y328119D01*
X931441Y328193D01*
X931396Y328267D01*
X931367Y328333D01*
X931344Y328385D01*
X931330Y328422D01*
X931322Y328437D01*
X931285Y328555D01*
X931256Y328681D01*
X931233Y328807D01*
X931219Y328933D01*
X931211Y329044D01*
X931204Y329125D01*
Y329162D01*
Y329184D01*
Y329199D01*
Y329206D01*
X931211Y329384D01*
X931226Y329539D01*
X931248Y329687D01*
X931270Y329806D01*
X931293Y329909D01*
X931315Y329983D01*
X931322Y330013D01*
X931330Y330035D01*
X931337Y330043D01*
Y330050D01*
X931389Y330176D01*
X931455Y330287D01*
X931515Y330383D01*
X931574Y330464D01*
X931633Y330524D01*
X931677Y330568D01*
X931707Y330598D01*
X931714Y330605D01*
X931811Y330672D01*
X931914Y330731D01*
X932018Y330775D01*
X932114Y330812D01*
X932210Y330842D01*
X932277Y330864D01*
X932306Y330871D01*
X932329D01*
X932336Y330879D01*
X932343D01*
X932425Y330265D01*
X932292Y330220D01*
X932173Y330176D01*
X932077Y330124D01*
X932003Y330080D01*
X931944Y330035D01*
X931907Y329998D01*
X931885Y329969D01*
X931877Y329961D01*
X931825Y329872D01*
X931788Y329769D01*
X931759Y329658D01*
X931744Y329554D01*
X931729Y329451D01*
X931722Y329377D01*
Y329347D01*
Y329325D01*
Y329310D01*
Y329303D01*
X931729Y329132D01*
X931751Y328984D01*
X931788Y328866D01*
X931825Y328762D01*
X931870Y328688D01*
X931899Y328629D01*
X931929Y328592D01*
X931936Y328585D01*
X932003Y328526D01*
X932084Y328481D01*
X932173Y328444D01*
X932262Y328422D01*
X932343Y328407D01*
X932417Y328400D01*
X932573D01*
X932617Y328407D01*
X932639D01*
X932662Y328481D01*
X932684Y328563D01*
X932728Y328733D01*
X932765Y328925D01*
X932802Y329103D01*
X932817Y329192D01*
X932824Y329273D01*
X932839Y329347D01*
X932847Y329406D01*
X932854Y329458D01*
Y329495D01*
X932861Y329525D01*
Y329532D01*
X932876Y329665D01*
X932898Y329776D01*
X932913Y329872D01*
X932928Y329946D01*
X932935Y330006D01*
X932950Y330050D01*
X932958Y330080D01*
Y330087D01*
X932987Y330183D01*
X933017Y330265D01*
X933054Y330346D01*
X933083Y330413D01*
X933113Y330472D01*
X933143Y330509D01*
X933157Y330538D01*
X933165Y330546D01*
X933217Y330620D01*
X933276Y330679D01*
X933335Y330738D01*
X933394Y330783D01*
X933446Y330820D01*
X933490Y330849D01*
X933520Y330864D01*
X933527Y330871D01*
X933609Y330908D01*
X933698Y330938D01*
X933779Y330960D01*
X933860Y330975D01*
X933927Y330982D01*
X933979Y330990D01*
X934023D01*
X934112Y330982D01*
D02*
G37*
G36*
X935000Y312231D02*
X932854D01*
X932728Y312216D01*
X932625Y312201D01*
X932528Y312186D01*
X932440Y312164D01*
X932358Y312142D01*
X932284Y312112D01*
X932225Y312083D01*
X932173Y312061D01*
X932129Y312031D01*
X932092Y312009D01*
X932062Y311987D01*
X932025Y311957D01*
X932010Y311942D01*
X931922Y311831D01*
X931862Y311713D01*
X931818Y311594D01*
X931781Y311491D01*
X931766Y311395D01*
X931759Y311321D01*
X931751Y311291D01*
Y311269D01*
Y311261D01*
Y311254D01*
X931759Y311165D01*
X931766Y311076D01*
X931788Y311002D01*
X931811Y310943D01*
X931833Y310891D01*
X931848Y310847D01*
X931862Y310825D01*
X931870Y310817D01*
X931914Y310751D01*
X931966Y310692D01*
X932018Y310647D01*
X932062Y310610D01*
X932107Y310588D01*
X932144Y310566D01*
X932166Y310551D01*
X932173D01*
X932255Y310529D01*
X932343Y310507D01*
X932440Y310492D01*
X932536Y310484D01*
X932617Y310477D01*
X935000D01*
Y309848D01*
X932565D01*
X932440Y309855D01*
X932336Y309863D01*
X932247D01*
X932188Y309870D01*
X932144Y309878D01*
X932114Y309885D01*
X932107D01*
X932010Y309907D01*
X931922Y309944D01*
X931848Y309974D01*
X931774Y310003D01*
X931722Y310040D01*
X931685Y310063D01*
X931655Y310077D01*
X931648Y310085D01*
X931574Y310144D01*
X931515Y310211D01*
X931455Y310277D01*
X931411Y310351D01*
X931374Y310410D01*
X931352Y310462D01*
X931337Y310492D01*
X931330Y310507D01*
X931285Y310610D01*
X931256Y310721D01*
X931233Y310825D01*
X931219Y310921D01*
X931211Y311002D01*
X931204Y311062D01*
Y311106D01*
Y311113D01*
Y311121D01*
X931211Y311261D01*
X931233Y311395D01*
X931263Y311513D01*
X931300Y311631D01*
X931344Y311735D01*
X931396Y311831D01*
X931455Y311920D01*
X931507Y311994D01*
X931566Y312068D01*
X931626Y312127D01*
X931677Y312179D01*
X931722Y312223D01*
X931759Y312253D01*
X931788Y312275D01*
X931811Y312290D01*
X931818Y312297D01*
X931285D01*
Y312860D01*
X935000D01*
Y312231D01*
D02*
G37*
G36*
X932736Y298304D02*
X932980Y298289D01*
X933202Y298267D01*
X933409Y298230D01*
X933601Y298193D01*
X933772Y298149D01*
X933927Y298104D01*
X934060Y298060D01*
X934179Y298015D01*
X934282Y297964D01*
X934371Y297927D01*
X934438Y297890D01*
X934497Y297853D01*
X934534Y297830D01*
X934556Y297816D01*
X934563Y297808D01*
X934652Y297727D01*
X934734Y297638D01*
X934808Y297542D01*
X934867Y297446D01*
X934919Y297349D01*
X934963Y297253D01*
X934993Y297157D01*
X935022Y297068D01*
X935044Y296979D01*
X935059Y296898D01*
X935074Y296824D01*
X935081Y296765D01*
X935089Y296713D01*
Y296669D01*
Y296646D01*
Y296639D01*
X935074Y296439D01*
X935044Y296254D01*
X934993Y296099D01*
X934941Y295966D01*
X934889Y295855D01*
X934859Y295818D01*
X934837Y295781D01*
X934822Y295751D01*
X934808Y295729D01*
X934793Y295721D01*
Y295714D01*
X934667Y295581D01*
X934534Y295470D01*
X934386Y295374D01*
X934253Y295300D01*
X934127Y295240D01*
X934075Y295211D01*
X934023Y295196D01*
X933986Y295181D01*
X933957Y295166D01*
X933942Y295159D01*
X933934D01*
X933823Y295122D01*
X933712Y295092D01*
X933476Y295048D01*
X933231Y295011D01*
X932995Y294989D01*
X932891Y294981D01*
X932795Y294974D01*
X932706D01*
X932625Y294967D01*
X932336D01*
X932203Y294974D01*
X932084D01*
X931966Y294981D01*
X931862Y294996D01*
X931759Y295004D01*
X931670Y295011D01*
X931589Y295026D01*
X931515Y295033D01*
X931448Y295048D01*
X931396Y295055D01*
X931352Y295063D01*
X931315Y295070D01*
X931293Y295078D01*
X931278Y295085D01*
X931270D01*
X931108Y295129D01*
X930960Y295181D01*
X930834Y295240D01*
X930723Y295285D01*
X930627Y295337D01*
X930560Y295366D01*
X930523Y295396D01*
X930508Y295403D01*
X930397Y295485D01*
X930301Y295566D01*
X930220Y295655D01*
X930146Y295736D01*
X930094Y295810D01*
X930057Y295869D01*
X930035Y295906D01*
X930027Y295914D01*
Y295921D01*
X929968Y296040D01*
X929931Y296165D01*
X929901Y296284D01*
X929879Y296395D01*
X929864Y296491D01*
X929857Y296572D01*
Y296602D01*
Y296624D01*
Y296632D01*
Y296639D01*
X929872Y296839D01*
X929901Y297024D01*
X929953Y297179D01*
X930005Y297312D01*
X930064Y297423D01*
X930086Y297468D01*
X930116Y297505D01*
X930131Y297534D01*
X930146Y297557D01*
X930160Y297564D01*
Y297571D01*
X930279Y297705D01*
X930419Y297816D01*
X930560Y297912D01*
X930693Y297986D01*
X930819Y298045D01*
X930871Y298075D01*
X930923Y298089D01*
X930960Y298104D01*
X930989Y298119D01*
X931004Y298126D01*
X931011D01*
X931122Y298156D01*
X931233Y298186D01*
X931478Y298230D01*
X931722Y298267D01*
X931951Y298289D01*
X932062Y298297D01*
X932158Y298304D01*
X932247D01*
X932329Y298311D01*
X932477D01*
X932736Y298304D01*
D02*
G37*
G36*
X935000Y293257D02*
X934282D01*
Y293975D01*
X935000D01*
Y293257D01*
D02*
G37*
G36*
X931707Y291748D02*
X931655Y291637D01*
X931603Y291526D01*
X931552Y291422D01*
X931507Y291333D01*
X931470Y291259D01*
X931441Y291215D01*
X931433Y291207D01*
Y291200D01*
X931352Y291067D01*
X931270Y290948D01*
X931196Y290845D01*
X931130Y290763D01*
X931078Y290689D01*
X931034Y290645D01*
X931004Y290608D01*
X930997Y290601D01*
X935000D01*
Y289972D01*
X929857D01*
Y290379D01*
X929983Y290453D01*
X930101Y290534D01*
X930220Y290630D01*
X930323Y290719D01*
X930412Y290808D01*
X930486Y290874D01*
X930508Y290904D01*
X930530Y290926D01*
X930538Y290934D01*
X930545Y290941D01*
X930671Y291096D01*
X930789Y291252D01*
X930893Y291400D01*
X930974Y291548D01*
X931048Y291674D01*
X931078Y291725D01*
X931100Y291770D01*
X931122Y291807D01*
X931130Y291836D01*
X931145Y291851D01*
Y291859D01*
X931751D01*
X931707Y291748D01*
D02*
G37*
G36*
X935000Y308264D02*
X929879D01*
Y308893D01*
X935000D01*
Y308264D01*
D02*
G37*
G36*
Y306244D02*
X935067Y306274D01*
X935118Y306289D01*
X935148Y306303D01*
X935155D01*
X935281Y306348D01*
X935385Y306392D01*
X935474Y306422D01*
X935533Y306451D01*
X935577Y306466D01*
X935607Y306481D01*
X935622Y306496D01*
X935629D01*
X935710Y306555D01*
X935770Y306622D01*
X935792Y306651D01*
X935807Y306673D01*
X935821Y306688D01*
Y306696D01*
X935844Y306747D01*
X935866Y306799D01*
X935888Y306910D01*
Y306955D01*
X935895Y306992D01*
Y307021D01*
Y307029D01*
X935888Y307147D01*
X935866Y307265D01*
X935851Y307310D01*
X935844Y307347D01*
X935836Y307376D01*
Y307384D01*
X936421Y307317D01*
X936450Y307236D01*
X936465Y307162D01*
X936480Y307095D01*
X936495Y307036D01*
Y306984D01*
X936502Y306947D01*
Y306925D01*
Y306918D01*
X936495Y306807D01*
X936480Y306710D01*
X936458Y306622D01*
X936428Y306548D01*
X936399Y306481D01*
X936376Y306437D01*
X936362Y306407D01*
X936354Y306400D01*
X936295Y306318D01*
X936221Y306252D01*
X936147Y306185D01*
X936073Y306126D01*
X936006Y306081D01*
X935955Y306044D01*
X935918Y306022D01*
X935903Y306015D01*
X935851Y305993D01*
X935799Y305963D01*
X935673Y305904D01*
X935533Y305845D01*
X935392Y305793D01*
X935266Y305741D01*
X935207Y305719D01*
X935155Y305697D01*
X935118Y305682D01*
X935089Y305667D01*
X935067Y305660D01*
X935059D01*
X931285Y304246D01*
Y304875D01*
X933453Y305674D01*
X933609Y305734D01*
X933757Y305778D01*
X933905Y305830D01*
X934031Y305867D01*
X934142Y305896D01*
X934186Y305911D01*
X934223Y305919D01*
X934253Y305926D01*
X934275Y305933D01*
X934290Y305941D01*
X934297D01*
X934127Y305985D01*
X933971Y306030D01*
X933823Y306074D01*
X933698Y306118D01*
X933594Y306155D01*
X933550Y306170D01*
X933513Y306185D01*
X933476Y306192D01*
X933453Y306200D01*
X933446Y306207D01*
X933439D01*
X931285Y306984D01*
Y307650D01*
X935000Y306244D01*
D02*
G37*
G36*
Y300709D02*
Y300110D01*
X931285Y298696D01*
Y299347D01*
X933557Y300169D01*
X933705Y300221D01*
X933838Y300272D01*
X933964Y300309D01*
X934060Y300346D01*
X934149Y300369D01*
X934208Y300391D01*
X934245Y300398D01*
X934260Y300406D01*
X934119Y300450D01*
X933979Y300487D01*
X933853Y300531D01*
X933742Y300568D01*
X933646Y300598D01*
X933572Y300620D01*
X933550Y300628D01*
X933527Y300635D01*
X933520Y300642D01*
X933513D01*
X931285Y301442D01*
Y302108D01*
X935000Y300709D01*
D02*
G37*
G36*
X933328Y367561D02*
X933483Y367546D01*
X933638Y367524D01*
X933772Y367494D01*
X933905Y367464D01*
X934016Y367420D01*
X934127Y367383D01*
X934223Y367339D01*
X934304Y367294D01*
X934378Y367257D01*
X934445Y367213D01*
X934497Y367183D01*
X934534Y367154D01*
X934563Y367131D01*
X934578Y367117D01*
X934586Y367109D01*
X934674Y367020D01*
X934748Y366924D01*
X934815Y366828D01*
X934874Y366724D01*
X934919Y366621D01*
X934963Y366525D01*
X935022Y366325D01*
X935037Y366236D01*
X935052Y366155D01*
X935067Y366081D01*
X935074Y366014D01*
X935081Y365962D01*
Y365925D01*
Y365896D01*
Y365888D01*
X935074Y365777D01*
X935067Y365666D01*
X935022Y365474D01*
X934970Y365296D01*
X934904Y365148D01*
X934867Y365089D01*
X934837Y365030D01*
X934808Y364978D01*
X934778Y364941D01*
X934756Y364911D01*
X934741Y364889D01*
X934734Y364874D01*
X934726Y364867D01*
X934652Y364793D01*
X934578Y364726D01*
X934415Y364608D01*
X934245Y364512D01*
X934090Y364445D01*
X933942Y364393D01*
X933883Y364379D01*
X933823Y364364D01*
X933779Y364356D01*
X933749Y364349D01*
X933727Y364342D01*
X933720D01*
X933638Y364963D01*
X933801Y364993D01*
X933949Y365037D01*
X934068Y365096D01*
X934164Y365148D01*
X934245Y365200D01*
X934297Y365244D01*
X934334Y365267D01*
X934341Y365281D01*
X934415Y365378D01*
X934467Y365481D01*
X934512Y365585D01*
X934534Y365681D01*
X934549Y365762D01*
X934556Y365836D01*
X934563Y365881D01*
Y365888D01*
Y365896D01*
X934556Y365977D01*
X934549Y366058D01*
X934512Y366206D01*
X934460Y366332D01*
X934393Y366443D01*
X934334Y366525D01*
X934282Y366591D01*
X934245Y366628D01*
X934230Y366643D01*
X934164Y366695D01*
X934082Y366739D01*
X933920Y366806D01*
X933735Y366858D01*
X933557Y366887D01*
X933394Y366909D01*
X933328Y366917D01*
X933261D01*
X933217Y366924D01*
X933009D01*
X932884Y366909D01*
X932765Y366895D01*
X932662Y366880D01*
X932565Y366858D01*
X932477Y366828D01*
X932395Y366806D01*
X932321Y366776D01*
X932262Y366747D01*
X932210Y366724D01*
X932166Y366695D01*
X932129Y366673D01*
X932099Y366658D01*
X932077Y366643D01*
X932070Y366628D01*
X932062D01*
X932003Y366569D01*
X931951Y366510D01*
X931862Y366384D01*
X931803Y366251D01*
X931766Y366132D01*
X931737Y366021D01*
X931729Y365940D01*
X931722Y365903D01*
Y365881D01*
Y365866D01*
Y365859D01*
X931729Y365748D01*
X931751Y365644D01*
X931781Y365555D01*
X931818Y365474D01*
X931855Y365415D01*
X931885Y365363D01*
X931907Y365333D01*
X931914Y365326D01*
X931988Y365252D01*
X932077Y365185D01*
X932173Y365126D01*
X932262Y365089D01*
X932343Y365052D01*
X932410Y365030D01*
X932454Y365022D01*
X932462Y365015D01*
X932469D01*
X932373Y364401D01*
X932173Y364453D01*
X932003Y364527D01*
X931855Y364608D01*
X931737Y364689D01*
X931640Y364771D01*
X931574Y364837D01*
X931529Y364882D01*
X931515Y364889D01*
Y364897D01*
X931411Y365052D01*
X931337Y365215D01*
X931278Y365378D01*
X931241Y365533D01*
X931219Y365674D01*
X931211Y365733D01*
Y365777D01*
X931204Y365822D01*
Y365851D01*
Y365873D01*
Y365881D01*
X931211Y366058D01*
X931241Y366221D01*
X931278Y366377D01*
X931315Y366502D01*
X931359Y366613D01*
X931381Y366658D01*
X931396Y366695D01*
X931411Y366724D01*
X931426Y366747D01*
X931433Y366761D01*
Y366769D01*
X931522Y366909D01*
X931633Y367035D01*
X931744Y367139D01*
X931855Y367228D01*
X931951Y367294D01*
X932033Y367339D01*
X932062Y367353D01*
X932084Y367368D01*
X932099Y367376D01*
X932107D01*
X932284Y367442D01*
X932462Y367487D01*
X932639Y367524D01*
X932802Y367546D01*
X932876Y367553D01*
X932943Y367561D01*
X933002D01*
X933054Y367568D01*
X933157D01*
X933328Y367561D01*
D02*
G37*
G36*
X934097Y371164D02*
X934282Y371098D01*
X934430Y371016D01*
X934556Y370935D01*
X934660Y370861D01*
X934726Y370794D01*
X934771Y370750D01*
X934778Y370743D01*
X934785Y370735D01*
X934837Y370661D01*
X934882Y370580D01*
X934956Y370402D01*
X935007Y370217D01*
X935044Y370040D01*
X935059Y369958D01*
X935067Y369884D01*
X935074Y369810D01*
Y369751D01*
X935081Y369699D01*
Y369662D01*
Y369640D01*
Y369633D01*
X935074Y369470D01*
X935059Y369329D01*
X935037Y369196D01*
X935007Y369078D01*
X934978Y368981D01*
X934956Y368907D01*
X934941Y368863D01*
X934933Y368856D01*
Y368848D01*
X934867Y368722D01*
X934800Y368619D01*
X934726Y368530D01*
X934660Y368449D01*
X934600Y368389D01*
X934549Y368352D01*
X934519Y368323D01*
X934504Y368315D01*
X934401Y368256D01*
X934290Y368212D01*
X934193Y368175D01*
X934105Y368153D01*
X934023Y368138D01*
X933964Y368130D01*
X933912D01*
X933794Y368138D01*
X933690Y368153D01*
X933601Y368182D01*
X933520Y368204D01*
X933453Y368234D01*
X933409Y368264D01*
X933379Y368278D01*
X933372Y368286D01*
X933298Y368345D01*
X933231Y368412D01*
X933172Y368478D01*
X933128Y368545D01*
X933091Y368611D01*
X933069Y368656D01*
X933054Y368685D01*
X933046Y368700D01*
X933024Y368752D01*
X933002Y368811D01*
X932950Y368952D01*
X932898Y369107D01*
X932854Y369263D01*
X932810Y369403D01*
X932795Y369470D01*
X932780Y369522D01*
X932765Y369566D01*
X932758Y369603D01*
X932750Y369625D01*
Y369633D01*
X932728Y369714D01*
X932706Y369788D01*
X932691Y369855D01*
X932669Y369914D01*
X932647Y370010D01*
X932625Y370084D01*
X932602Y370136D01*
X932595Y370165D01*
X932588Y370180D01*
Y370188D01*
X932558Y370247D01*
X932536Y370299D01*
X932506Y370343D01*
X932484Y370373D01*
X932462Y370402D01*
X932440Y370417D01*
X932432Y370424D01*
X932425Y370432D01*
X932351Y370476D01*
X932277Y370498D01*
X932247D01*
X932225Y370506D01*
X932203D01*
X932136Y370498D01*
X932070Y370476D01*
X932010Y370447D01*
X931966Y370410D01*
X931922Y370380D01*
X931892Y370350D01*
X931877Y370328D01*
X931870Y370321D01*
X931818Y370239D01*
X931781Y370143D01*
X931759Y370040D01*
X931737Y369943D01*
X931729Y369847D01*
X931722Y369773D01*
Y369744D01*
Y369721D01*
Y369707D01*
Y369699D01*
X931729Y369573D01*
X931744Y369455D01*
X931774Y369359D01*
X931803Y369285D01*
X931833Y369218D01*
X931862Y369174D01*
X931877Y369144D01*
X931885Y369137D01*
X931951Y369063D01*
X932025Y369011D01*
X932099Y368967D01*
X932166Y368930D01*
X932232Y368907D01*
X932284Y368893D01*
X932314Y368885D01*
X932329D01*
X932247Y368271D01*
X932121Y368301D01*
X932010Y368330D01*
X931914Y368367D01*
X931825Y368404D01*
X931766Y368441D01*
X931714Y368471D01*
X931685Y368486D01*
X931677Y368493D01*
X931603Y368560D01*
X931537Y368634D01*
X931478Y368715D01*
X931426Y368796D01*
X931389Y368870D01*
X931359Y368930D01*
X931344Y368967D01*
X931337Y368974D01*
Y368981D01*
X931293Y369107D01*
X931263Y369240D01*
X931233Y369366D01*
X931219Y369485D01*
X931211Y369596D01*
X931204Y369677D01*
Y369707D01*
Y369729D01*
Y369744D01*
Y369751D01*
Y369855D01*
X931219Y369958D01*
X931226Y370047D01*
X931241Y370128D01*
X931256Y370195D01*
X931270Y370247D01*
X931278Y370276D01*
X931285Y370291D01*
X931315Y370380D01*
X931344Y370461D01*
X931374Y370528D01*
X931404Y370587D01*
X931426Y370632D01*
X931448Y370661D01*
X931455Y370683D01*
X931463Y370691D01*
X931515Y370765D01*
X931574Y370824D01*
X931640Y370876D01*
X931692Y370920D01*
X931744Y370957D01*
X931781Y370979D01*
X931811Y370994D01*
X931818Y371002D01*
X931899Y371039D01*
X931973Y371068D01*
X932055Y371083D01*
X932121Y371098D01*
X932188Y371105D01*
X932232Y371113D01*
X932277D01*
X932380Y371105D01*
X932469Y371090D01*
X932558Y371068D01*
X932632Y371046D01*
X932691Y371024D01*
X932743Y371002D01*
X932773Y370987D01*
X932780Y370979D01*
X932861Y370920D01*
X932928Y370854D01*
X932987Y370787D01*
X933039Y370720D01*
X933076Y370661D01*
X933106Y370617D01*
X933120Y370587D01*
X933128Y370572D01*
X933150Y370521D01*
X933180Y370454D01*
X933231Y370306D01*
X933276Y370151D01*
X933328Y369988D01*
X933365Y369847D01*
X933387Y369781D01*
X933402Y369721D01*
X933416Y369677D01*
X933424Y369640D01*
X933431Y369618D01*
Y369610D01*
X933453Y369514D01*
X933476Y369433D01*
X933498Y369359D01*
X933520Y369292D01*
X933535Y369233D01*
X933557Y369181D01*
X933587Y369092D01*
X933609Y369033D01*
X933631Y368996D01*
X933638Y368974D01*
X933646Y368967D01*
X933690Y368900D01*
X933749Y368856D01*
X933801Y368819D01*
X933853Y368796D01*
X933905Y368782D01*
X933942Y368774D01*
X933979D01*
X934068Y368782D01*
X934142Y368804D01*
X934216Y368841D01*
X934275Y368878D01*
X934327Y368922D01*
X934364Y368952D01*
X934386Y368981D01*
X934393Y368989D01*
X934452Y369078D01*
X934489Y369174D01*
X934519Y369285D01*
X934541Y369388D01*
X934556Y369485D01*
X934563Y369559D01*
Y369588D01*
Y369610D01*
Y369625D01*
Y369633D01*
X934556Y369788D01*
X934534Y369921D01*
X934504Y370032D01*
X934467Y370128D01*
X934430Y370202D01*
X934401Y370262D01*
X934378Y370291D01*
X934371Y370306D01*
X934290Y370387D01*
X934193Y370454D01*
X934097Y370498D01*
X934008Y370535D01*
X933927Y370565D01*
X933853Y370580D01*
X933809Y370595D01*
X933794D01*
X933890Y371216D01*
X934097Y371164D01*
D02*
G37*
G36*
X935089Y357800D02*
X929790Y356313D01*
Y356816D01*
X935089Y358303D01*
Y357800D01*
D02*
G37*
G36*
X935000Y363172D02*
X932972D01*
X932817Y363165D01*
X932684Y363158D01*
X932565Y363143D01*
X932469Y363121D01*
X932395Y363098D01*
X932336Y363084D01*
X932306Y363076D01*
X932292Y363069D01*
X932203Y363024D01*
X932121Y362973D01*
X932055Y362913D01*
X931996Y362854D01*
X931951Y362802D01*
X931922Y362758D01*
X931899Y362728D01*
X931892Y362721D01*
X931840Y362625D01*
X931803Y362536D01*
X931781Y362447D01*
X931759Y362373D01*
X931751Y362299D01*
X931744Y362247D01*
Y362218D01*
Y362203D01*
X931751Y362070D01*
X931781Y361951D01*
X931811Y361855D01*
X931855Y361774D01*
X931892Y361707D01*
X931929Y361663D01*
X931959Y361633D01*
X931966Y361626D01*
X932055Y361559D01*
X932166Y361507D01*
X932277Y361470D01*
X932388Y361441D01*
X932491Y361426D01*
X932573Y361419D01*
X935000D01*
Y360790D01*
X932654D01*
X932462Y360797D01*
X932292Y360812D01*
X932151Y360834D01*
X932033Y360856D01*
X931936Y360878D01*
X931870Y360901D01*
X931833Y360915D01*
X931818Y360923D01*
X931714Y360982D01*
X931626Y361049D01*
X931552Y361123D01*
X931485Y361189D01*
X931433Y361256D01*
X931396Y361308D01*
X931374Y361345D01*
X931367Y361359D01*
X931315Y361478D01*
X931270Y361596D01*
X931241Y361715D01*
X931226Y361826D01*
X931211Y361922D01*
X931204Y362003D01*
Y362033D01*
Y362055D01*
Y362062D01*
Y362070D01*
X931211Y362188D01*
X931226Y362307D01*
X931248Y362418D01*
X931285Y362521D01*
X931367Y362714D01*
X931411Y362795D01*
X931455Y362869D01*
X931507Y362936D01*
X931552Y363002D01*
X931596Y363054D01*
X931633Y363091D01*
X931670Y363128D01*
X931692Y363150D01*
X931707Y363165D01*
X931714Y363172D01*
X929879D01*
Y363801D01*
X935000D01*
Y363172D01*
D02*
G37*
G36*
Y374309D02*
X931285D01*
Y374938D01*
X935000D01*
Y374309D01*
D02*
G37*
G36*
Y379319D02*
X932588D01*
Y376670D01*
X935000D01*
Y375989D01*
X929879D01*
Y376670D01*
X931981D01*
Y379319D01*
X929879D01*
Y380000D01*
X935000D01*
Y379319D01*
D02*
G37*
G36*
Y372726D02*
X933061D01*
X932913Y372718D01*
X932780Y372711D01*
X932654Y372696D01*
X932543Y372674D01*
X932454Y372652D01*
X932388Y372637D01*
X932343Y372630D01*
X932329Y372622D01*
X932247Y372593D01*
X932181Y372556D01*
X932121Y372519D01*
X932070Y372482D01*
X932033Y372445D01*
X932003Y372422D01*
X931988Y372400D01*
X931981Y372393D01*
X931936Y372334D01*
X931907Y372267D01*
X931885Y372200D01*
X931870Y372149D01*
X931862Y372097D01*
X931855Y372060D01*
Y372030D01*
Y372023D01*
X931862Y371941D01*
X931877Y371860D01*
X931899Y371779D01*
X931922Y371712D01*
X931944Y371653D01*
X931966Y371608D01*
X931981Y371579D01*
X931988Y371571D01*
X931411Y371342D01*
X931344Y371468D01*
X931293Y371586D01*
X931256Y371690D01*
X931226Y371786D01*
X931211Y371867D01*
X931204Y371934D01*
Y371971D01*
Y371986D01*
X931211Y372067D01*
X931226Y372141D01*
X931248Y372215D01*
X931270Y372274D01*
X931293Y372319D01*
X931315Y372363D01*
X931330Y372385D01*
X931337Y372393D01*
X931396Y372459D01*
X931470Y372526D01*
X931559Y372593D01*
X931640Y372652D01*
X931722Y372711D01*
X931788Y372748D01*
X931840Y372778D01*
X931848Y372785D01*
X931285D01*
Y373355D01*
X935000D01*
Y372726D01*
D02*
G37*
G36*
X930597Y374309D02*
X929879D01*
Y374938D01*
X930597D01*
Y374309D01*
D02*
G37*
G36*
X930486Y347692D02*
X935000D01*
Y347011D01*
X930486D01*
Y345324D01*
X929879D01*
Y349379D01*
X930486D01*
Y347692D01*
D02*
G37*
G36*
X935000Y344080D02*
X933076D01*
X932898Y344073D01*
X932743Y344066D01*
X932610Y344051D01*
X932499Y344029D01*
X932417Y344006D01*
X932358Y343992D01*
X932321Y343984D01*
X932306Y343977D01*
X932210Y343932D01*
X932129Y343881D01*
X932055Y343829D01*
X931996Y343777D01*
X931951Y343725D01*
X931922Y343688D01*
X931899Y343659D01*
X931892Y343651D01*
X931848Y343562D01*
X931811Y343481D01*
X931788Y343392D01*
X931766Y343318D01*
X931759Y343259D01*
X931751Y343207D01*
Y343178D01*
Y343163D01*
X931759Y343037D01*
X931781Y342933D01*
X931818Y342845D01*
X931855Y342778D01*
X931899Y342726D01*
X931929Y342689D01*
X931959Y342667D01*
X931966Y342660D01*
X932055Y342608D01*
X932151Y342571D01*
X932255Y342541D01*
X932358Y342526D01*
X932447Y342512D01*
X932528Y342504D01*
X935000D01*
Y341875D01*
X932847D01*
X932647Y341860D01*
X932477Y341831D01*
X932336Y341794D01*
X932218Y341742D01*
X932129Y341698D01*
X932070Y341653D01*
X932033Y341624D01*
X932018Y341616D01*
X931929Y341513D01*
X931862Y341402D01*
X931818Y341291D01*
X931781Y341187D01*
X931766Y341098D01*
X931759Y341024D01*
X931751Y340995D01*
Y340972D01*
Y340965D01*
Y340958D01*
X931759Y340876D01*
X931766Y340810D01*
X931781Y340743D01*
X931803Y340691D01*
X931825Y340639D01*
X931840Y340610D01*
X931848Y340588D01*
X931855Y340580D01*
X931899Y340521D01*
X931944Y340477D01*
X931988Y340440D01*
X932033Y340410D01*
X932070Y340388D01*
X932099Y340373D01*
X932121Y340358D01*
X932129D01*
X932195Y340336D01*
X932284Y340321D01*
X932373Y340314D01*
X932462Y340306D01*
X932543Y340299D01*
X935000D01*
Y339670D01*
X932336D01*
X932232Y339685D01*
X932129Y339700D01*
X932040Y339714D01*
X931951Y339737D01*
X931877Y339766D01*
X931811Y339788D01*
X931744Y339818D01*
X931692Y339848D01*
X931640Y339870D01*
X931574Y339922D01*
X931529Y339951D01*
X931515Y339966D01*
X931411Y340084D01*
X931337Y340225D01*
X931278Y340366D01*
X931241Y340499D01*
X931219Y340625D01*
X931211Y340676D01*
Y340728D01*
X931204Y340765D01*
Y340795D01*
Y340810D01*
Y340817D01*
X931211Y340950D01*
X931233Y341069D01*
X931263Y341187D01*
X931307Y341298D01*
X931359Y341402D01*
X931411Y341498D01*
X931470Y341579D01*
X931529Y341661D01*
X931596Y341735D01*
X931655Y341794D01*
X931707Y341846D01*
X931759Y341890D01*
X931803Y341927D01*
X931833Y341949D01*
X931855Y341964D01*
X931862Y341971D01*
X931751Y342016D01*
X931655Y342075D01*
X931574Y342142D01*
X931507Y342201D01*
X931448Y342260D01*
X931411Y342304D01*
X931389Y342334D01*
X931381Y342349D01*
X931322Y342452D01*
X931278Y342563D01*
X931248Y342674D01*
X931226Y342785D01*
X931211Y342874D01*
X931204Y342956D01*
Y342985D01*
Y343000D01*
Y343015D01*
Y343022D01*
X931211Y343155D01*
X931233Y343281D01*
X931256Y343392D01*
X931285Y343488D01*
X931322Y343570D01*
X931344Y343629D01*
X931367Y343666D01*
X931374Y343681D01*
X931441Y343784D01*
X931515Y343873D01*
X931589Y343955D01*
X931663Y344021D01*
X931722Y344073D01*
X931774Y344117D01*
X931803Y344140D01*
X931818Y344147D01*
X931285D01*
Y344709D01*
X935000D01*
Y344080D01*
D02*
G37*
G36*
Y353612D02*
X933446Y353057D01*
Y350911D01*
X935000Y350311D01*
Y349542D01*
X929879Y351636D01*
Y352376D01*
X935000Y354329D01*
Y353612D01*
D02*
G37*
%LPC*%
G36*
X932787Y338271D02*
X932617Y338249D01*
X932462Y338205D01*
X932329Y338153D01*
X932225Y338094D01*
X932136Y338042D01*
X932070Y337990D01*
X932033Y337961D01*
X932018Y337946D01*
X931922Y337827D01*
X931848Y337709D01*
X931796Y337583D01*
X931759Y337465D01*
X931737Y337369D01*
X931729Y337287D01*
X931722Y337258D01*
Y337235D01*
Y337221D01*
Y337213D01*
X931729Y337124D01*
X931737Y337043D01*
X931781Y336888D01*
X931840Y336754D01*
X931907Y336643D01*
X931973Y336555D01*
X932033Y336488D01*
X932077Y336451D01*
X932084Y336436D01*
X932092D01*
X932188Y336370D01*
X932299Y336310D01*
X932410Y336273D01*
X932528Y336236D01*
X932625Y336214D01*
X932713Y336199D01*
X932743D01*
X932765Y336192D01*
X932787D01*
Y338271D01*
D02*
G37*
G36*
X933150Y334357D02*
X932958D01*
X932847Y334342D01*
X932743Y334327D01*
X932639Y334312D01*
X932551Y334290D01*
X932469Y334268D01*
X932388Y334238D01*
X932321Y334209D01*
X932262Y334187D01*
X932210Y334157D01*
X932166Y334135D01*
X932136Y334113D01*
X932107Y334098D01*
X932084Y334083D01*
X932077Y334068D01*
X932070D01*
X932010Y334009D01*
X931951Y333950D01*
X931870Y333831D01*
X931803Y333713D01*
X931766Y333595D01*
X931737Y333498D01*
X931729Y333417D01*
X931722Y333387D01*
Y333365D01*
Y333358D01*
Y333350D01*
Y333269D01*
X931737Y333195D01*
X931774Y333054D01*
X931833Y332929D01*
X931892Y332825D01*
X931959Y332736D01*
X932018Y332670D01*
X932055Y332633D01*
X932062Y332618D01*
X932070D01*
X932136Y332566D01*
X932210Y332514D01*
X932380Y332440D01*
X932551Y332388D01*
X932721Y332351D01*
X932869Y332329D01*
X932935Y332322D01*
X932995D01*
X933039Y332314D01*
X933231D01*
X933357Y332329D01*
X933468Y332344D01*
X933564Y332359D01*
X933661Y332381D01*
X933749Y332411D01*
X933823Y332433D01*
X933890Y332462D01*
X933957Y332492D01*
X934008Y332514D01*
X934053Y332544D01*
X934082Y332566D01*
X934112Y332581D01*
X934134Y332596D01*
X934142Y332610D01*
X934149D01*
X934208Y332670D01*
X934260Y332729D01*
X934341Y332847D01*
X934401Y332973D01*
X934438Y333084D01*
X934467Y333188D01*
X934475Y333269D01*
X934482Y333299D01*
Y333321D01*
Y333336D01*
Y333343D01*
X934475Y333424D01*
X934467Y333498D01*
X934430Y333639D01*
X934378Y333765D01*
X934312Y333868D01*
X934253Y333957D01*
X934201Y334016D01*
X934164Y334053D01*
X934149Y334068D01*
X934082Y334120D01*
X934008Y334164D01*
X933838Y334238D01*
X933668Y334283D01*
X933490Y334320D01*
X933335Y334342D01*
X933261Y334349D01*
X933202D01*
X933150Y334357D01*
D02*
G37*
G36*
X932595Y297668D02*
X932477D01*
X932247Y297660D01*
X932040Y297653D01*
X931848Y297638D01*
X931670Y297616D01*
X931515Y297594D01*
X931374Y297564D01*
X931248Y297534D01*
X931137Y297505D01*
X931041Y297475D01*
X930960Y297453D01*
X930893Y297423D01*
X930834Y297401D01*
X930797Y297379D01*
X930767Y297364D01*
X930752Y297349D01*
X930745D01*
X930678Y297298D01*
X930619Y297246D01*
X930575Y297187D01*
X930530Y297127D01*
X930464Y297009D01*
X930419Y296898D01*
X930397Y296802D01*
X930382Y296720D01*
X930375Y296691D01*
Y296669D01*
Y296654D01*
Y296646D01*
X930382Y296565D01*
X930390Y296484D01*
X930412Y296410D01*
X930442Y296343D01*
X930508Y296217D01*
X930582Y296106D01*
X930664Y296025D01*
X930730Y295958D01*
X930760Y295936D01*
X930782Y295921D01*
X930789Y295906D01*
X930797D01*
X930886Y295855D01*
X930989Y295810D01*
X931108Y295766D01*
X931233Y295736D01*
X931367Y295707D01*
X931507Y295684D01*
X931788Y295647D01*
X931929Y295633D01*
X932055Y295625D01*
X932173Y295618D01*
X932269D01*
X932358Y295610D01*
X932706D01*
X932913Y295625D01*
X933098Y295640D01*
X933276Y295655D01*
X933424Y295677D01*
X933564Y295707D01*
X933683Y295736D01*
X933794Y295758D01*
X933883Y295788D01*
X933957Y295818D01*
X934023Y295840D01*
X934075Y295869D01*
X934112Y295884D01*
X934134Y295899D01*
X934149Y295914D01*
X934156D01*
X934230Y295973D01*
X934290Y296032D01*
X934349Y296091D01*
X934393Y296151D01*
X934467Y296276D01*
X934519Y296387D01*
X934549Y296491D01*
X934563Y296565D01*
X934571Y296595D01*
Y296617D01*
Y296632D01*
Y296639D01*
X934563Y296720D01*
X934556Y296794D01*
X934504Y296935D01*
X934438Y297061D01*
X934364Y297172D01*
X934290Y297253D01*
X934223Y297320D01*
X934171Y297357D01*
X934164Y297372D01*
X934156D01*
X934068Y297423D01*
X933964Y297468D01*
X933846Y297512D01*
X933720Y297542D01*
X933587Y297571D01*
X933446Y297594D01*
X933157Y297631D01*
X933024Y297645D01*
X932898Y297653D01*
X932780Y297660D01*
X932684D01*
X932595Y297668D01*
D02*
G37*
G36*
X933209Y316434D02*
X933143D01*
X933017Y316427D01*
X932891Y316419D01*
X932780Y316404D01*
X932676Y316382D01*
X932580Y316360D01*
X932491Y316338D01*
X932417Y316308D01*
X932343Y316279D01*
X932284Y316249D01*
X932225Y316219D01*
X932181Y316197D01*
X932144Y316175D01*
X932114Y316153D01*
X932092Y316138D01*
X932084Y316123D01*
X932077D01*
X932018Y316064D01*
X931959Y315997D01*
X931870Y315872D01*
X931811Y315738D01*
X931766Y315613D01*
X931737Y315502D01*
X931729Y315420D01*
X931722Y315383D01*
Y315361D01*
Y315346D01*
Y315339D01*
X931729Y315250D01*
X931737Y315169D01*
X931774Y315021D01*
X931833Y314887D01*
X931899Y314776D01*
X931966Y314688D01*
X932018Y314621D01*
X932062Y314577D01*
X932070Y314562D01*
X932077D01*
X932144Y314503D01*
X932225Y314458D01*
X932388Y314377D01*
X932565Y314318D01*
X932728Y314281D01*
X932884Y314258D01*
X932950Y314251D01*
X933009D01*
X933054Y314244D01*
X933254D01*
X933379Y314258D01*
X933490Y314273D01*
X933601Y314295D01*
X933698Y314318D01*
X933786Y314347D01*
X933868Y314369D01*
X933942Y314399D01*
X934001Y314429D01*
X934060Y314458D01*
X934105Y314488D01*
X934142Y314510D01*
X934171Y314532D01*
X934193Y314547D01*
X934201Y314554D01*
X934208Y314562D01*
X934267Y314621D01*
X934327Y314688D01*
X934415Y314813D01*
X934475Y314947D01*
X934519Y315065D01*
X934541Y315176D01*
X934556Y315257D01*
X934563Y315294D01*
Y315317D01*
Y315331D01*
Y315339D01*
X934556Y315428D01*
X934549Y315509D01*
X934512Y315664D01*
X934452Y315798D01*
X934386Y315909D01*
X934327Y315997D01*
X934267Y316064D01*
X934230Y316108D01*
X934216Y316116D01*
Y316123D01*
X934142Y316175D01*
X934068Y316227D01*
X933897Y316301D01*
X933720Y316360D01*
X933542Y316397D01*
X933387Y316419D01*
X933320Y316427D01*
X933261D01*
X933209Y316434D01*
D02*
G37*
G36*
X932891Y352857D02*
X931396Y352302D01*
X931211Y352235D01*
X931034Y352183D01*
X930871Y352132D01*
X930723Y352095D01*
X930597Y352065D01*
X930545Y352050D01*
X930493Y352043D01*
X930464Y352028D01*
X930434D01*
X930419Y352021D01*
X930412D01*
X930582Y351969D01*
X930760Y351910D01*
X930937Y351850D01*
X931108Y351791D01*
X931182Y351762D01*
X931256Y351739D01*
X931322Y351717D01*
X931374Y351695D01*
X931418Y351680D01*
X931455Y351665D01*
X931478Y351658D01*
X931485D01*
X932891Y351125D01*
Y352857D01*
D02*
G37*
G36*
X934045Y330316D02*
X934001D01*
X933942Y330309D01*
X933883Y330302D01*
X933838Y330287D01*
X933794Y330272D01*
X933757Y330257D01*
X933727Y330250D01*
X933712Y330235D01*
X933705D01*
X933616Y330161D01*
X933557Y330072D01*
X933535Y330043D01*
X933520Y330013D01*
X933505Y329991D01*
Y329983D01*
X933476Y329909D01*
X933453Y329828D01*
X933431Y329739D01*
X933416Y329650D01*
X933402Y329569D01*
X933387Y329495D01*
X933379Y329451D01*
Y329443D01*
Y329436D01*
X933357Y329310D01*
X933342Y329192D01*
X933320Y329088D01*
X933298Y328984D01*
X933276Y328888D01*
X933254Y328807D01*
X933239Y328725D01*
X933217Y328659D01*
X933202Y328600D01*
X933187Y328548D01*
X933172Y328503D01*
X933157Y328466D01*
X933150Y328437D01*
X933143Y328415D01*
X933135Y328407D01*
Y328400D01*
X933372Y328407D01*
X933520Y328415D01*
X933646Y328422D01*
X933749Y328437D01*
X933838Y328459D01*
X933905Y328481D01*
X933957Y328496D01*
X933986Y328503D01*
X933994Y328511D01*
X934090Y328570D01*
X934179Y328629D01*
X934253Y328703D01*
X934312Y328770D01*
X934364Y328829D01*
X934401Y328881D01*
X934423Y328910D01*
X934430Y328925D01*
X934482Y329036D01*
X934519Y329147D01*
X934549Y329251D01*
X934563Y329354D01*
X934578Y329436D01*
X934586Y329510D01*
Y329554D01*
Y329562D01*
Y329569D01*
X934578Y329702D01*
X934563Y329813D01*
X934534Y329909D01*
X934504Y329991D01*
X934475Y330050D01*
X934445Y330094D01*
X934430Y330124D01*
X934423Y330131D01*
X934356Y330191D01*
X934282Y330235D01*
X934216Y330272D01*
X934149Y330294D01*
X934090Y330309D01*
X934045Y330316D01*
D02*
G37*
%LPD*%
D10*
X900000Y370000D02*
X905000Y375000D01*
X910000D01*
X890000Y370000D02*
X905000Y385000D01*
X910000D01*
X880000Y370000D02*
X905000Y395000D01*
X910000D01*
Y365000D02*
X915000D01*
X920000Y360000D01*
X830000Y495000D02*
X850000D01*
X830000Y485000D02*
X850000D01*
X910000Y495000D02*
X930000D01*
X910000Y485000D02*
X930000D01*
X905000Y455000D02*
X910000D01*
X895000Y465000D02*
X905000Y455000D01*
X895000Y465000D02*
Y525000D01*
X885000Y465000D02*
Y525000D01*
Y465000D02*
X905000Y445000D01*
X910000D01*
Y435000D02*
X915000D01*
X920000Y440000D01*
X930000D01*
X910000Y425000D02*
X915000D01*
X920000Y420000D01*
X930000D01*
Y400000D02*
Y420000D01*
Y440000D02*
Y460000D01*
X900000Y280000D02*
Y370000D01*
X890000Y280000D02*
Y370000D01*
X830000Y290000D02*
X850000D01*
X880000Y280000D02*
Y290000D01*
Y370000D01*
X850000Y290000D02*
X880000D01*
X830000Y415000D02*
X850000D01*
X830000D02*
Y435000D01*
X905000Y405000D02*
X910000D01*
X895000Y415000D02*
X905000Y405000D01*
X865000Y415000D02*
Y525000D01*
X850000Y415000D02*
X865000D01*
X890000Y265000D02*
Y270000D01*
Y265000D02*
X895000Y260000D01*
X830000Y305000D02*
Y330000D01*
Y305000D02*
X835000Y300000D01*
X870000D01*
X900000Y270000D02*
X905000D01*
X910000Y275000D01*
Y300000D01*
X870000D02*
Y415000D01*
X865000D02*
X870000D01*
X895000D01*
X819000Y425000D02*
X825000D01*
X822000Y422000D02*
Y428000D01*
X830000Y330000D02*
Y350000D01*
X895000Y260000D02*
X902000D01*
X920000Y278000D01*
Y360000D01*
D11*
X895000Y525000D02*
D03*
X885000D02*
D03*
X875000D02*
D03*
X865000D02*
D03*
X880000Y270000D02*
D03*
Y280000D02*
D03*
X890000Y270000D02*
D03*
Y280000D02*
D03*
X900000Y270000D02*
D03*
Y280000D02*
D03*
D12*
X830000Y350157D02*
D03*
X830000Y369843D02*
D03*
X830000Y435000D02*
D03*
Y445000D02*
D03*
X930000Y470000D02*
D03*
Y460000D02*
D03*
Y390000D02*
D03*
Y400000D02*
D03*
Y420000D02*
D03*
Y440000D02*
D03*
X830000Y330000D02*
D03*
Y290000D02*
D03*
X850000Y289843D02*
D03*
X850000Y270158D02*
D03*
D13*
X930000Y495000D02*
D03*
Y485000D02*
D03*
X830000Y495000D02*
D03*
Y485000D02*
D03*
Y405000D02*
D03*
Y415000D02*
D03*
D14*
X910000Y315000D02*
D03*
Y325000D02*
D03*
Y335000D02*
D03*
Y345000D02*
D03*
Y355000D02*
D03*
Y365000D02*
D03*
Y375000D02*
D03*
Y385000D02*
D03*
Y395000D02*
D03*
Y405000D02*
D03*
Y415000D02*
D03*
Y425000D02*
D03*
Y435000D02*
D03*
Y445000D02*
D03*
Y455000D02*
D03*
Y465000D02*
D03*
Y475000D02*
D03*
Y485000D02*
D03*
Y495000D02*
D03*
Y505000D02*
D03*
X850000Y315000D02*
D03*
Y325000D02*
D03*
Y335000D02*
D03*
Y345000D02*
D03*
Y355000D02*
D03*
Y365000D02*
D03*
Y375000D02*
D03*
Y385000D02*
D03*
Y395000D02*
D03*
Y405000D02*
D03*
Y415000D02*
D03*
Y425000D02*
D03*
Y435000D02*
D03*
Y445000D02*
D03*
Y455000D02*
D03*
Y465000D02*
D03*
Y475000D02*
D03*
Y485000D02*
D03*
Y495000D02*
D03*
Y505000D02*
D03*
D15*
X930000Y520000D02*
D03*
Y270000D02*
D03*
X830000D02*
D03*
Y520000D02*
D03*
D16*
X870000Y300000D02*
D03*
X910000D02*
D03*
M02*
